<svg width="126" height="24" viewBox="0 0 126 24" fill="none" xmlns="http://www.w3.org/2000/svg">
<path fill-rule="evenodd" clip-rule="evenodd" d="M90.1902 4.11597H91.3029V18.7321H90.1902V4.11597Z" fill="white"/>
<path d="M105.908 18.8037C105.739 18.5551 105.739 18.5066 105.908 18.2436C106.101 17.944 106.293 17.6442 106.503 17.3168C106.399 17.3068 106.33 17.3004 106.26 17.2937C104.46 17.1218 102.659 16.9503 100.859 16.7784C100.323 16.7272 100.132 16.496 100.182 15.9616C100.532 12.2946 100.875 8.62689 101.24 4.96155C101.29 4.45329 101.446 3.95475 101.56 3.4532C101.799 2.40284 102.044 1.35384 102.282 0.303485C102.318 0.148361 102.385 0.0317653 102.549 0.004627C102.714 -0.0225113 102.815 0.0729756 102.896 0.205987C103.597 1.35618 104.3 2.50503 105.003 3.65456C105.038 3.71051 105.073 3.76512 105.119 3.83581C105.186 3.80801 105.251 3.78321 105.314 3.75473C106.656 3.14965 107.997 2.54356 109.338 1.93848C109.566 1.83596 109.762 1.88956 109.807 2.08824C109.83 2.18741 109.801 2.31306 109.758 2.41022C109.171 3.73899 108.58 5.06608 107.982 6.39016C107.924 6.51915 107.943 6.58281 108.046 6.6726C109.238 7.71022 110.423 8.75488 111.615 9.79317C111.761 9.92048 111.834 10.0528 111.83 10.2552C111.806 11.6617 111.792 13.0689 111.776 14.4754C111.765 15.4151 111.754 16.3549 111.747 17.2951C111.745 17.6941 111.697 17.7584 111.308 17.8331C109.67 18.1487 108.033 18.4643 106.395 18.7813C106.339 18.792 106.285 18.8165 106.23 18.8342C106.123 18.8238 106.016 18.8138 105.908 18.8034V18.8037ZM107.594 7.08604C105.393 10.1242 103.211 13.1365 101.016 16.1666C101.085 16.178 101.124 16.1867 101.164 16.1908C103.024 16.3687 104.885 16.5449 106.746 16.7265C106.861 16.7379 106.916 16.697 106.973 16.6072C108.329 14.4914 109.687 12.3773 111.044 10.2629C111.069 10.2244 111.088 10.1818 111.115 10.1329C109.941 9.11739 108.774 8.10791 107.593 7.08604H107.594ZM101.944 5.07312C102.425 6.52887 102.899 7.96217 103.379 9.4139C104.617 8.4721 105.833 7.5484 107.052 6.62134C107.033 6.5932 107.023 6.57075 107.007 6.55534C106.327 5.91474 105.648 5.27314 104.962 4.63824C104.916 4.59535 104.821 4.58027 104.754 4.58932C104.493 4.62483 104.235 4.67576 103.976 4.72066C103.305 4.83692 102.633 4.95318 101.944 5.07278V5.07312ZM111.202 11.2359C111.19 11.2305 111.178 11.2248 111.166 11.2194C109.705 13.4923 108.244 15.7656 106.767 18.0636C106.837 18.0566 106.872 18.0563 106.905 18.0496C108.261 17.7872 109.616 17.5226 110.971 17.2639C111.095 17.2404 111.135 17.1952 111.136 17.0672C111.147 15.8644 111.165 14.662 111.18 13.4592C111.189 12.7181 111.195 11.977 111.202 11.2359ZM100.872 15.2597C100.883 15.2647 100.893 15.2697 100.903 15.2748C102.596 12.9328 104.29 10.5906 105.983 8.24863C105.903 8.26103 105.85 8.29889 105.799 8.33809C105.033 8.92307 104.267 9.50838 103.5 10.093C103.208 10.3162 103.01 10.2559 102.895 9.90775C102.531 8.80011 102.168 7.69247 101.804 6.58482C101.784 6.52619 101.761 6.46889 101.721 6.36403C101.435 9.36498 101.154 12.3123 100.873 15.2593L100.872 15.2597ZM105.541 4.32732C106.184 4.9324 106.804 5.51537 107.437 6.11174C107.926 5.00678 108.402 3.92963 108.897 2.81227C107.756 3.32689 106.663 3.82074 105.541 4.32732ZM104.501 4.00937C103.908 3.04043 103.33 2.09394 102.728 1.11026C102.465 2.24571 102.212 3.33593 101.954 4.45061C102.82 4.30051 103.648 4.15712 104.5 4.00937H104.501Z" fill="white"/>
<path d="M97.5785 20.0632L100.12 16.1895L100.66 16.2595L100.862 17.2308L101.033 18.0556L101.119 18.4681L100.706 18.5535L99.8815 18.7247L100.053 19.5496L100.138 19.962L99.7257 20.0474L98.9009 20.2187L98.076 20.3899L97.5781 20.0632H97.5785ZM99.2282 19.7208L99.6406 19.6353L99.5525 19.2269L99.5552 19.2229L99.384 18.398L100.209 18.2268L100.621 18.1414L100.533 17.733L100.536 17.729L100.365 16.9041L98.4037 19.892L99.2285 19.7208H99.2282Z" fill="white"/>
<path d="M101.765 19.5931L101.349 19.6859L100.934 19.7787L101.026 20.1945L101.119 20.6102L100.703 20.7031L100.288 20.7959L100.08 20.8424L100.033 20.6347L99.9405 20.2189L99.8477 19.8031L100.263 19.7103L100.679 19.6175L100.586 19.2017L100.494 18.786L100.701 18.7394L100.748 18.9471L100.841 19.3629L100.887 19.5706L101.095 19.5241L101.511 19.4312L101.719 19.3847L101.765 19.5924V19.5931ZM100.52 19.8732L100.518 19.8718L100.102 19.9646L100.195 20.3804L100.242 20.5881L100.449 20.5416L100.865 20.4488L100.772 20.033L100.774 20.031L100.726 19.8253L100.52 19.8728L100.52 19.8732Z" fill="white"/>
<path d="M104.756 21.0984L103.071 23.627L102.485 23.2363L106.979 16.4937L107.565 16.8843M107.003 17.7273L105.319 20.2558L107.003 17.7273Z" fill="white"/>
<path d="M111.264 22.4014L111.148 12.4299L111.836 12.1572L113.363 13.6559L114.621 14.8908L115.25 15.5083L114.632 16.1375L113.397 17.3956H113.388L112.78 18.0248L113.409 18.6423L114.667 19.8772L115.296 20.4947L114.679 21.1239L113.421 19.889L112.163 18.654L112.198 22.3934L111.264 22.4021V22.4014ZM113.386 16.1489L114.003 15.5197L113.374 14.9119V14.9022L112.116 13.6673L112.151 17.4066L113.386 16.1486L113.386 16.1489Z" fill="white"/>
<path d="M116.424 18.1028L115.166 16.8679L113.908 15.6329L115.143 14.3748L116.378 13.1168L116.996 12.4875L117.625 13.105L118.883 14.34L120.141 15.5749L118.906 16.833L117.671 18.0911L117.054 18.7592M117.65 16.8448H117.659L118.894 15.5867L117.636 14.3517L117.007 13.7342L116.39 14.3634L115.155 15.6215L116.413 16.8565V16.8662L117.042 17.474L117.65 16.8451V16.8448Z" fill="white"/>
<path d="M124.576 21.9491L123.624 21.0066L122.673 20.0642L122.197 19.5927L122.668 19.1167L123.61 18.1648L124.553 17.213L125.495 16.2611L125.971 16.7325L125.5 17.2086L124.558 18.1605L123.615 19.1123H123.608L123.144 19.5884L123.62 20.0598L124.572 21.0023L125.524 21.9447L126 22.4161L125.529 22.8922L124.577 21.9498L124.576 21.9491Z" fill="white"/>
<path d="M122.975 22.4467L121.805 21.2884L120.636 20.1302L120.051 19.5509L120.63 18.9659L121.788 17.796L122.946 16.626L124.105 15.4561L124.69 16.0353L124.11 16.6203L122.952 17.7903L121.794 18.9602H121.785L121.214 19.5452L121.799 20.1245L122.969 21.2827L124.139 22.441L124.724 23.0203L124.145 23.6052L122.975 22.447L122.975 22.4467Z" fill="white"/>
<path d="M120.426 17.7088L120.354 7.73699L121.31 7.7323L122.563 8.97262L123.815 10.2129L124.442 10.8331L123.822 11.4593L122.581 12.712H122.571L121.961 13.3382L122.587 13.9584L123.84 15.1987L124.466 15.8188L123.846 16.445L122.593 15.2047L121.341 13.9644L121.359 17.7038L120.426 17.7085L120.426 17.7088ZM122.575 11.4657L123.195 10.8395L122.569 10.229V10.2193L121.316 8.97898L121.335 12.7184L122.575 11.4657H122.575Z" fill="white"/>
<path d="M117.378 15.5591L117.011 15.1917L116.643 15.5591L117.011 15.9265L117.378 15.5591Z" fill="white"/>
<path d="M117.798 21.7461L116.54 20.5112L115.282 19.2762L116.517 18.0181L117.752 16.7601L118.369 16.1309L118.999 16.7483L120.257 17.9833L121.515 19.2183L120.28 20.4763L119.045 21.7344L118.428 22.4025M119.023 20.4881H119.033L120.268 19.23L119.01 17.995L118.381 17.3775L117.763 18.0068L116.528 19.2648L117.786 20.4998V20.5095L118.416 21.1173L119.023 20.4884V20.4881Z" fill="white"/>
<path d="M118.752 19.2026L118.384 18.8352L118.017 19.2027L118.384 19.5701L118.752 19.2026Z" fill="white"/>
<path d="M2.22199 15.2661H2.19418V16.0923H0V5.56665H2.19418V10.0518H2.22199C2.76342 9.22328 3.53434 8.80917 4.5341 8.80917C5.45044 8.80917 6.15637 9.12377 6.65189 9.75331C7.14708 10.3829 7.39468 11.2439 7.39468 12.3361C7.39468 13.5212 7.10554 14.4724 6.52692 15.1897C5.94831 15.9073 5.17537 16.2658 4.20778 16.2658C3.33299 16.2658 2.67094 15.9325 2.22199 15.2661ZM2.15933 12.2668V12.9958C2.15933 13.4542 2.29134 13.8338 2.55502 14.1346C2.8187 14.4355 3.15675 14.5859 3.56885 14.5859C4.06873 14.5859 4.45537 14.394 4.72843 14.0097C5.00618 13.6207 5.14488 13.0722 5.14488 12.3643C5.14488 11.7763 5.01757 11.3183 4.76294 10.9896C4.513 10.6562 4.15417 10.4897 3.68679 10.4897C3.24721 10.4897 2.88135 10.6539 2.58986 10.9826C2.30273 11.3113 2.15933 11.7394 2.15933 12.2671V12.2668Z" fill="white"/>
<path d="M15.5875 8.98279L12.6991 16.6619C12.0049 18.509 10.9585 19.4324 9.56076 19.4324C9.02838 19.4324 8.59114 19.3721 8.2484 19.2518V17.5022C8.53988 17.6734 8.85717 17.7592 9.19958 17.7592C9.76413 17.7592 10.1578 17.4932 10.3799 16.9608L10.7548 16.0789L7.86646 8.98312H10.2965L11.6226 13.3088C11.706 13.5772 11.7707 13.8945 11.8169 14.26H11.8447C11.8863 13.9916 11.9627 13.6791 12.0739 13.3226L13.4141 8.98312H15.5871L15.5875 8.98279Z" fill="white"/>
<path d="M23.2388 8.98279L20.5936 16.0927H18.0942L15.5737 8.98279H17.9207L19.1567 13.3638C19.2957 13.859 19.3764 14.2801 19.3996 14.6275H19.4274C19.4599 14.2989 19.5453 13.8915 19.6843 13.4057L20.9478 8.98279H23.2391H23.2388Z" fill="white"/>
<path d="M30.4248 13.1624H25.7868C25.8609 14.1946 26.5112 14.7106 27.7378 14.7106C28.5201 14.7106 29.2073 14.5253 29.8 14.1551V15.7381C29.1426 16.0899 28.2886 16.2658 27.2379 16.2658C26.0901 16.2658 25.1988 15.9489 24.5649 15.3147C23.9307 14.6757 23.6138 13.7872 23.6138 12.6484C23.6138 11.5096 23.9562 10.533 24.6413 9.84344C25.3265 9.15393 26.1688 8.80884 27.1686 8.80884C28.1683 8.80884 29.0062 9.11674 29.5708 9.73221C30.14 10.3477 30.4248 11.1833 30.4248 12.2386V13.162V13.1624ZM28.3904 11.8155C28.3904 10.7973 27.9783 10.288 27.1545 10.288C26.8027 10.288 26.4971 10.4338 26.2381 10.7256C25.9835 11.0171 25.8284 11.3806 25.7731 11.8158H28.3904V11.8155Z" fill="white"/>
<path d="M31.2649 15.905V14.1276C31.6257 14.345 31.9846 14.5072 32.341 14.6137C32.7019 14.7203 33.0423 14.7732 33.3616 14.7732C33.7506 14.7732 34.0558 14.72 34.2782 14.6137C34.5051 14.5072 34.6183 14.3454 34.6183 14.1276C34.6183 13.9889 34.5674 13.873 34.4655 13.7805C34.3637 13.688 34.2317 13.607 34.0699 13.5376C33.9124 13.4682 33.7388 13.4056 33.5492 13.35C33.3596 13.2944 33.1766 13.232 33.0007 13.1624C32.7183 13.0558 32.4684 12.9426 32.2509 12.8223C32.0382 12.6973 31.8576 12.5539 31.7095 12.3918C31.5661 12.2296 31.4549 12.0423 31.3761 11.8292C31.3021 11.6161 31.2652 11.3642 31.2652 11.0724C31.2652 10.6743 31.351 10.3319 31.5222 10.0448C31.6981 9.75767 31.9296 9.52415 32.2164 9.34356C32.5079 9.15828 32.8389 9.02427 33.2095 8.94084C33.5844 8.85306 33.9734 8.80884 34.3757 8.80884C34.6907 8.80884 35.01 8.8343 35.334 8.88522C35.6579 8.93146 35.9772 9.00082 36.2922 9.09362V10.7876C36.0144 10.6254 35.7159 10.5051 35.3966 10.4264C35.082 10.343 34.7718 10.3014 34.4662 10.3014C34.3228 10.3014 34.1861 10.3152 34.0565 10.343C33.9315 10.3661 33.8206 10.4033 33.7231 10.4542C33.6259 10.5005 33.5495 10.5631 33.4939 10.6418C33.4383 10.7159 33.4105 10.8017 33.4105 10.8988C33.4105 11.0285 33.452 11.1394 33.5355 11.2322C33.6189 11.3247 33.7274 11.4057 33.8618 11.4751C33.9958 11.5398 34.1442 11.6001 34.3061 11.6557C34.4726 11.7066 34.6371 11.7599 34.7989 11.8155C35.0904 11.9173 35.3544 12.0286 35.5903 12.1489C35.8265 12.2691 36.0278 12.4105 36.1943 12.5723C36.3655 12.7345 36.4952 12.9241 36.5833 13.1416C36.6758 13.359 36.722 13.6183 36.722 13.9192C36.722 14.3404 36.6296 14.7015 36.4443 15.0024C36.2637 15.2986 36.0208 15.5415 35.7152 15.7314C35.4144 15.9167 35.0649 16.0507 34.6669 16.1342C34.2736 16.2219 33.8638 16.2662 33.438 16.2662C32.6557 16.2662 31.9313 16.1459 31.2649 15.905Z" fill="white"/>
<path d="M44.8596 16.0923H42.6724V12.1419C42.6724 11.0402 42.2791 10.4894 41.4921 10.4894C41.1125 10.4894 40.8002 10.6352 40.5546 10.927C40.3094 11.2185 40.1868 11.589 40.1868 12.038V16.0926H37.9929V8.98275H40.1868V10.1075H40.2146C40.7376 9.24174 41.4991 8.8092 42.4989 8.8092C44.0726 8.8092 44.8596 9.78585 44.8596 11.7391V16.0923Z" fill="white"/>
<path d="M53.358 16.0923H51.1708V15.0091H51.136C50.5945 15.8471 49.8698 16.2659 48.9629 16.2659C47.3152 16.2659 46.491 15.2685 46.491 13.2733V8.98242H48.6781V13.079C48.6781 14.0834 49.0761 14.5856 49.8722 14.5856C50.2655 14.5856 50.5805 14.4489 50.8163 14.1759C51.0522 13.8981 51.1705 13.5232 51.1705 13.0512V8.98242H53.3576V16.0923H53.358Z" fill="white"/>
<path d="M54.7462 15.905V14.1276C55.1074 14.345 55.4658 14.5072 55.8223 14.6137C56.1835 14.7203 56.5236 14.7732 56.8429 14.7732C57.2315 14.7732 57.5371 14.72 57.7592 14.6137C57.986 14.5072 58.0993 14.3454 58.0993 14.1276C58.0993 13.9889 58.0483 13.873 57.9465 13.7805C57.8446 13.688 57.7126 13.607 57.5508 13.5376C57.3933 13.4682 57.2198 13.4056 57.0301 13.35C56.8405 13.2944 56.6576 13.232 56.4817 13.1624C56.1992 13.0558 55.9493 12.9426 55.7319 12.8223C55.5191 12.6973 55.3385 12.5539 55.1904 12.3918C55.0471 12.2296 54.9358 12.0423 54.8571 11.8292C54.783 11.6161 54.7458 11.3642 54.7458 11.0724C54.7458 10.6743 54.8316 10.3319 55.0028 10.0448C55.1787 9.75767 55.4102 9.52415 55.697 9.34356C55.9885 9.15828 56.3195 9.02427 56.6898 8.94084C57.0647 8.85306 57.4536 8.80884 57.8564 8.80884C58.171 8.80884 58.4906 8.8343 58.8146 8.88522C59.1386 8.93146 59.4578 9.00082 59.7728 9.09362V10.7876C59.495 10.6254 59.1965 10.5051 58.8772 10.4264C58.5626 10.343 58.2524 10.3014 57.9468 10.3014C57.8034 10.3014 57.6667 10.3152 57.5371 10.343C57.4121 10.3661 57.3009 10.4033 57.2037 10.4542C57.1065 10.5005 57.0302 10.5631 56.9745 10.6418C56.9189 10.7159 56.8911 10.8017 56.8911 10.8988C56.8911 11.0285 56.9327 11.1394 57.0161 11.2322C57.0995 11.3247 57.2081 11.4057 57.3424 11.4751C57.4768 11.5398 57.6248 11.6001 57.7867 11.6557C57.9532 11.7066 58.1177 11.7599 58.2795 11.8155C58.571 11.9173 58.835 12.0286 59.0709 12.1489C59.3071 12.2691 59.5084 12.4105 59.675 12.5723C59.8462 12.7345 59.9758 12.9241 60.0639 13.1416C60.1564 13.359 60.203 13.6183 60.203 13.9192C60.203 14.3404 60.1102 14.7015 59.9252 15.0024C59.7446 15.2986 59.5017 15.5415 59.1962 15.7314C58.8953 15.9167 58.5459 16.0507 58.1478 16.1342C57.7545 16.2219 57.3448 16.2662 56.9189 16.2662C56.1366 16.2662 55.4122 16.1459 54.7458 15.905H54.7462Z" fill="white"/>
<path d="M68.2994 16.0923H66.1123V12.0514C66.1123 11.01 65.7327 10.4891 64.9738 10.4891C64.5848 10.4891 64.2702 10.6348 64.0296 10.9266C63.7891 11.2181 63.6688 11.5887 63.6688 12.0376V16.0923H61.4746V5.56665H63.6688V10.0381H63.6966C64.2337 9.21892 64.9627 8.80917 65.8837 8.80917C67.4946 8.80917 68.3001 9.78112 68.3001 11.7254V16.0926L68.2994 16.0923Z" fill="white"/>
<path d="M77.1659 16.0923H74.5345L72.2639 12.5653H72.2361V16.0923H70.0422V5.56665H72.2361V12.2668H72.2639L74.3817 8.98272H76.9853L74.4373 12.3224L77.1659 16.0926V16.0923Z" fill="white"/>
<path d="M83.9145 16.0923H81.8386V15.0717H81.8108C81.334 15.8678 80.6281 16.2658 79.6933 16.2658C79.0038 16.2658 78.4597 16.0715 78.0617 15.6825C77.6683 15.2892 77.4717 14.7662 77.4717 14.1135C77.4717 12.7342 78.2885 11.9381 79.9225 11.725L81.8527 11.4681C81.8527 10.6904 81.4315 10.3014 80.5892 10.3014C79.7469 10.3014 78.9368 10.5537 78.1729 11.0583V9.40588C78.4785 9.24841 78.8949 9.1097 79.4226 8.98943C79.955 8.86915 80.4388 8.80884 80.8737 8.80884C82.901 8.80884 83.9148 9.82032 83.9148 11.843V16.0923H83.9145ZM81.8523 13.2039V12.7248L80.5611 12.8913C79.8481 12.9838 79.492 13.3054 79.492 13.8566C79.492 14.1065 79.5778 14.3125 79.749 14.4744C79.9249 14.6318 80.161 14.7106 80.4572 14.7106C80.8693 14.7106 81.2047 14.5695 81.464 14.2871C81.7233 14 81.853 13.6391 81.853 13.2039H81.8523Z" fill="white"/>
<path d="M15.2712 18.2064C16.362 18.2064 17.2463 17.3221 17.2463 16.2313C17.2463 15.1405 16.362 14.2562 15.2712 14.2562C14.1804 14.2562 13.2961 15.1405 13.2961 16.2313C13.2961 17.3221 14.1804 18.2064 15.2712 18.2064Z" fill="white"/>
<path d="M19.7492 20.5762C20.6219 20.5762 21.3293 19.8688 21.3293 18.9962C21.3293 18.1236 20.6219 17.4161 19.7492 17.4161C18.8766 17.4161 18.1692 18.1236 18.1692 18.9962C18.1692 19.8688 18.8766 20.5762 19.7492 20.5762Z" fill="white"/>
<path d="M14.6145 8.72676C15.269 8.72676 15.7995 8.19621 15.7995 7.54173C15.7995 6.88725 15.269 6.35669 14.6145 6.35669C13.96 6.35669 13.4294 6.88725 13.4294 7.54173C13.4294 8.19621 13.96 8.72676 14.6145 8.72676Z" fill="white"/>
</svg>
