<svg width="10" height="10" viewBox="0 0 10 10" fill="none" xmlns="http://www.w3.org/2000/svg">
<path d="M9.6875 4.72869V5.27807L9.66407 5.47588C9.55415 6.46189 9.19086 7.34268 8.52665 8.08119C7.41055 9.3215 6.0125 9.84322 4.35477 9.644C3.68586 9.56361 3.06735 9.3276 2.49946 8.96432C2.47512 8.94712 2.44688 8.93627 2.41729 8.93275C2.3877 8.92923 2.3577 8.93316 2.33 8.94416C1.79399 9.11807 1.25703 9.28869 0.720316 9.45979L0.618832 9.49096C0.798128 8.95682 0.967816 8.43885 1.14805 7.92439C1.19141 7.80064 1.18086 7.71205 1.10563 7.60049C0.481722 6.6726 0.231644 5.64439 0.335941 4.53416C0.403468 3.77378 0.665191 3.04349 1.09602 2.4133C1.84602 1.31174 2.87727 0.630176 4.19211 0.388066C4.36836 0.355488 4.54743 0.338848 4.72532 0.314941H5.27469C5.29774 0.321619 5.32124 0.326632 5.345 0.329941C6.07813 0.381504 6.76391 0.591504 7.39063 0.974941C8.60563 1.71908 9.35258 2.79275 9.61485 4.19666C9.64743 4.37244 9.66407 4.55127 9.6875 4.72869ZM6.53188 7.64853L6.53727 7.62674C6.66556 7.62718 6.79307 7.60684 6.91485 7.5665C7.58235 7.33635 7.80758 7.01244 7.82422 6.39885C7.8268 6.3051 7.78954 6.24299 7.7054 6.20291C7.35618 6.0365 7.00907 5.86564 6.65844 5.70228C6.47915 5.61885 6.37391 5.65283 6.25532 5.81197C6.16414 5.93408 6.07532 6.05807 5.98133 6.17807C5.83813 6.36111 5.73758 6.38502 5.52079 6.29643C4.7361 5.97627 4.15789 5.42314 3.72454 4.70619C3.66852 4.61244 3.67321 4.52666 3.74282 4.4451C3.81618 4.35932 3.88813 4.27166 3.96782 4.19221C4.14243 4.0183 4.20922 3.8301 4.06625 3.60463C4.06492 3.60184 4.06382 3.59893 4.06297 3.59596C3.92375 3.26783 3.78711 2.93971 3.6425 2.61346C3.61907 2.56307 3.56774 2.5026 3.51899 2.49135C3.26938 2.43275 3.01743 2.429 2.8025 2.59377C2.60909 2.74505 2.46275 2.94829 2.38063 3.17971C2.20883 3.64002 2.26344 4.08861 2.45352 4.53088C2.59414 4.85619 2.79688 5.14025 3.00547 5.42314C3.35288 5.89983 3.7637 6.32689 4.22657 6.69252C4.72977 7.08486 5.30469 7.33213 5.90961 7.51143C6.11305 7.57143 6.32446 7.604 6.53188 7.64853Z" fill="white"/>
</svg>
