<svg width="201" height="51" viewBox="0 0 201 51" fill="none" xmlns="http://www.w3.org/2000/svg">
<path d="M114.44 7.27543C114.44 8.77647 114.16 10.06 113.6 11.1281C113.04 12.1961 112.278 13.0128 111.315 13.5792C110.351 14.1456 109.26 14.4288 108.04 14.4288C106.82 14.4288 105.729 14.1446 104.765 13.5753C103.802 13.0061 103.04 12.1884 102.481 11.1203C101.921 10.0523 101.641 8.77067 101.641 7.27446C101.641 5.77826 101.921 4.48985 102.481 3.42182C103.04 2.35379 103.802 1.53707 104.765 0.970673C105.729 0.404279 106.82 0.120117 108.04 0.120117C109.26 0.120117 110.351 0.403313 111.315 0.970673C112.278 1.53707 113.04 2.35476 113.6 3.42182C114.159 4.48985 114.44 5.77342 114.44 7.27446V7.27543ZM111.903 7.27543C111.903 6.219 111.739 5.32688 111.41 4.59907C111.082 3.87126 110.628 3.32034 110.047 2.94628C109.466 2.57223 108.798 2.38569 108.04 2.38569C107.282 2.38569 106.614 2.57223 106.035 2.94628C105.454 3.32034 104.999 3.87126 104.671 4.59907C104.342 5.32688 104.178 6.219 104.178 7.27543C104.178 8.33186 104.342 9.22397 104.671 9.95178C104.999 10.6796 105.454 11.2305 106.035 11.6046C106.614 11.9786 107.283 12.1652 108.04 12.1652C108.797 12.1652 109.466 11.9786 110.047 11.6046C110.627 11.2305 111.082 10.6796 111.41 9.95178C111.739 9.22397 111.903 8.33186 111.903 7.27543Z" fill="white"/>
<path d="M125.178 14.2389L120.594 8.1526H119.357V14.2389H116.835V0.312012H119.357V6.03781H119.989L124.94 0.312012H128.048L122.547 6.66316L128.286 14.2389H125.179H125.178Z" fill="white"/>
<path d="M131.78 14.2389H129.087L133.991 0.312012H137.105L142.015 14.2389H139.322L135.603 3.16814H135.494L131.781 14.2389H131.78ZM131.868 8.77795H139.213V10.8048H131.868V8.77795Z" fill="white"/>
<path d="M141.552 2.42681V0.312012H152.663V2.42681H148.358V14.2389H145.856V2.42681H141.551H141.552Z" fill="white"/>
<path d="M62.4782 14.2389H59.7855L64.6887 0.312012H67.8029L72.713 14.2389H70.0202L66.3009 3.16814H66.1917L62.4792 14.2389H62.4782ZM62.5662 8.77795H69.911V10.8048H62.5662V8.77795Z" fill="white"/>
<path d="M89.4079 14.2389V0.312012H94.7394C95.7456 0.312012 96.5836 0.469554 97.2524 0.784646C97.9213 1.09974 98.4219 1.52889 98.7554 2.07305C99.0888 2.61721 99.2551 3.23387 99.2551 3.92301C99.2551 4.4894 99.1459 4.97364 98.9284 5.37476C98.7109 5.77587 98.4181 6.1016 98.0517 6.35096C97.6845 6.60033 97.2737 6.77915 96.8204 6.88837V7.02464C97.3143 7.0517 97.7898 7.20249 98.245 7.47699C98.7003 7.75149 99.0734 8.1381 99.3633 8.63684C99.6533 9.13557 99.7983 9.73869 99.7983 10.4462C99.7983 11.1537 99.6233 11.8139 99.2744 12.388C98.9255 12.9611 98.3997 13.4135 97.696 13.745C96.9934 14.0756 96.109 14.2418 95.0439 14.2418H89.407L89.4079 14.2389ZM91.9306 6.23498H94.4262C94.8612 6.23498 95.2536 6.15476 95.6025 5.99335C95.9514 5.8329 96.2269 5.60382 96.4289 5.30613C96.6309 5.0094 96.7314 4.65662 96.7314 4.24873C96.7314 3.7094 96.542 3.2648 96.1631 2.91588C95.7842 2.56695 95.2236 2.39201 94.4804 2.39201H91.9306V6.23402V6.23498ZM91.9306 12.1309H94.6437C95.559 12.1309 96.2201 11.955 96.6261 11.6041C97.032 11.2533 97.235 10.8009 97.235 10.2471C97.235 9.83439 97.1326 9.4613 96.9286 9.1288C96.7247 8.79535 96.4347 8.53244 96.0578 8.3401C95.6818 8.14776 95.2323 8.05111 94.7114 8.05111H91.9297V12.1309H91.9306Z" fill="white"/>
<path d="M61.7814 29.6469H59.8338L64.2103 17.4858H66.3299L70.7064 29.6469H68.7588L65.3209 19.6944H65.2261L61.7823 29.6469H61.7814ZM62.1081 24.8847H68.4264V26.4283H62.1081V24.8847Z" fill="white"/>
<path d="M72.4578 29.6469V17.4858H74.2923V22.7709H80.3554V17.4858H82.1957V29.6469H80.3554V24.3444H74.2923V29.6469H72.4578Z" fill="white"/>
<path d="M85.8956 29.6469H83.9481L88.3246 17.4858H90.4442L94.8207 29.6469H92.8731L89.4351 19.6944H89.3404L85.8966 29.6469H85.8956ZM86.2223 24.8847H92.5406V26.4283H86.2223V24.8847Z" fill="white"/>
<path d="M94.5239 19.0652V17.4858H103.936V19.0652H100.141V29.6469H98.3128V19.0652H94.5239Z" fill="white"/>
<path d="M116.061 23.5666C116.061 24.8647 115.824 25.98 115.349 26.9128C114.873 27.8455 114.224 28.5617 113.399 29.0623C112.573 29.563 111.636 29.8133 110.587 29.8133C109.538 29.8133 108.595 29.563 107.769 29.0623C106.944 28.5617 106.293 27.8445 105.819 26.9099C105.343 25.9752 105.107 24.8608 105.107 23.5666C105.107 22.2724 105.344 21.1531 105.819 20.2204C106.293 19.2877 106.944 18.5715 107.769 18.0708C108.595 17.5702 109.534 17.3198 110.587 17.3198C111.639 17.3198 112.573 17.5702 113.399 18.0708C114.224 18.5715 114.874 19.2887 115.349 20.2204C115.824 21.1531 116.061 22.2685 116.061 23.5666ZM114.244 23.5666C114.244 22.5768 114.085 21.7427 113.766 21.0632C113.447 20.3847 113.012 19.8696 112.459 19.5197C111.907 19.1688 111.283 18.9939 110.586 18.9939C109.889 18.9939 109.26 19.1688 108.709 19.5197C108.159 19.8696 107.724 20.3847 107.405 21.0632C107.086 21.7427 106.928 22.5768 106.928 23.5666C106.928 24.5563 107.087 25.3905 107.405 26.0699C107.724 26.7484 108.158 27.2636 108.709 27.6135C109.259 27.9644 109.884 28.1393 110.586 28.1393C111.288 28.1393 111.907 27.9644 112.459 27.6135C113.011 27.2636 113.447 26.7484 113.766 26.0699C114.085 25.3914 114.244 24.5563 114.244 23.5666Z" fill="white"/>
<path d="M117.421 29.6469V28.056L117.778 28.0444C118.261 28.0328 118.642 27.8684 118.921 27.5514C119.201 27.2344 119.405 26.7241 119.533 26.0195C119.662 25.3148 119.748 24.3744 119.791 23.1991L119.999 17.4868H127.689V29.6479H125.878V19.042H121.727L121.537 23.6853C121.486 24.9881 121.355 26.0813 121.145 26.9657C120.936 27.8501 120.58 28.5189 120.079 28.9703C119.579 29.4217 118.867 29.6469 117.944 29.6469H117.421Z" fill="white"/>
<path d="M130.36 17.4858H132.178V26.4167H132.291L138.478 17.4858H140.177V29.6469H138.342V20.7276H138.229L132.054 29.6469H130.361V17.4858H130.36Z" fill="white"/>
<path d="M142.848 17.4858H144.665V26.4167H144.778L150.966 17.4858H152.664V29.6469H150.829V20.7276H150.717L144.541 29.6469H142.848V17.4858Z" fill="white"/>
<path d="M59.9304 50.4868V32.0664H67.917C69.3204 32.0664 70.4996 32.2549 71.4564 32.6328C72.4123 33.0107 73.1353 33.5442 73.6244 34.2334C74.1125 34.9225 74.357 35.7354 74.357 36.671C74.357 37.3485 74.2082 37.9662 73.9114 38.5239C73.6147 39.0816 73.1991 39.5474 72.6656 39.9225C72.132 40.2975 71.5086 40.5565 70.7953 40.7005V40.8803C71.5869 40.9103 72.306 41.1094 72.9536 41.4786C73.6012 41.8478 74.1164 42.3543 74.501 42.999C74.8848 43.6436 75.0761 44.4004 75.0761 45.2703C75.0761 46.2775 74.8132 47.1744 74.2894 47.9592C73.7655 48.7441 73.0193 49.3627 72.0547 49.8121C71.0891 50.2616 69.938 50.4868 68.6013 50.4868H59.9314H59.9304ZM64.9313 39.5136H66.9823C67.4192 39.5136 67.8068 39.445 68.1422 39.3068C68.4775 39.1685 68.7404 38.9694 68.9289 38.7085C69.1174 38.4475 69.2121 38.1286 69.2121 37.7506C69.2121 37.1813 69.0082 36.7445 68.6003 36.4419C68.1924 36.1394 67.6773 35.9877 67.0538 35.9877H64.9313V39.5136ZM64.9313 46.493H67.2694C68.1093 46.493 68.7385 46.3355 69.158 46.0204C69.5775 45.7053 69.7872 45.2394 69.7872 44.6218C69.7872 44.1897 69.6886 43.8244 69.4905 43.5248C69.2923 43.2251 69.012 42.997 68.6496 42.8414C68.2871 42.6858 67.8503 42.6075 67.3409 42.6075H64.9303V46.493H64.9313Z" fill="white"/>
<path d="M93.769 41.2774C93.769 43.3284 93.3698 45.0566 92.5724 46.4619C91.775 47.8682 90.6983 48.9324 89.3432 49.6544C87.9881 50.3774 86.4774 50.7379 84.8102 50.7379C83.1429 50.7379 81.6157 50.3735 80.2635 49.6447C78.9113 48.916 77.8375 47.8489 77.044 46.4426C76.2495 45.0363 75.8522 43.3139 75.8522 41.2754C75.8522 39.237 76.2495 37.4963 77.044 36.09C77.8385 34.6836 78.9113 33.6195 80.2635 32.8975C81.6157 32.1755 83.1313 31.814 84.8102 31.814C86.489 31.814 87.9881 32.1755 89.3432 32.8975C90.6983 33.6204 91.775 34.6846 92.5724 36.09C93.3698 37.4963 93.769 39.2244 93.769 41.2754V41.2774ZM88.6241 41.2774C88.6241 40.1746 88.4782 39.2428 88.1882 38.485C87.8973 37.7263 87.4681 37.1512 86.9017 36.7578C86.3353 36.3654 85.6375 36.1682 84.8111 36.1682C83.9847 36.1682 83.2869 36.3644 82.7195 36.7578C82.1531 37.1502 81.724 37.7263 81.433 38.485C81.1421 39.2438 80.9971 40.1746 80.9971 41.2774C80.9971 42.3802 81.1421 43.312 81.433 44.0697C81.724 44.8285 82.1531 45.4035 82.7195 45.796C83.2859 46.1884 83.9838 46.3856 84.8111 46.3856C85.6385 46.3856 86.3353 46.1893 86.9017 45.796C87.4681 45.4035 87.8973 44.8275 88.1882 44.0697C88.4791 43.311 88.6241 42.3802 88.6241 41.2774Z" fill="white"/>
<path d="M131.257 41.2774C131.257 43.3284 130.858 45.0566 130.061 46.4619C129.263 47.8682 128.187 48.9324 126.832 49.6544C125.476 50.3774 123.966 50.7379 122.298 50.7379C120.631 50.7379 119.104 50.3735 117.752 49.6447C116.4 48.916 115.326 47.8489 114.532 46.4426C113.738 45.0363 113.341 43.3139 113.341 41.2754C113.341 39.237 113.738 37.4963 114.532 36.09C115.327 34.6836 116.4 33.6195 117.752 32.8975C119.104 32.1755 120.62 31.814 122.298 31.814C123.977 31.814 125.476 32.1755 126.832 32.8975C128.187 33.6204 129.263 34.6846 130.061 36.09C130.858 37.4963 131.257 39.2244 131.257 41.2754V41.2774ZM126.112 41.2774C126.112 40.1746 125.966 39.2428 125.676 38.485C125.386 37.7263 124.956 37.1512 124.39 36.7578C123.824 36.3654 123.126 36.1682 122.299 36.1682C121.473 36.1682 120.775 36.3644 120.208 36.7578C119.641 37.1502 119.212 37.7263 118.921 38.485C118.63 39.2438 118.485 40.1746 118.485 41.2774C118.485 42.3802 118.63 43.312 118.921 44.0697C119.212 44.8285 119.641 45.4035 120.208 45.796C120.774 46.1884 121.472 46.3856 122.299 46.3856C123.127 46.3856 123.824 46.1893 124.39 45.796C124.956 45.4035 125.386 44.8275 125.676 44.0697C125.967 43.311 126.112 42.3802 126.112 41.2774Z" fill="white"/>
<path d="M132.293 50.4868V32.0664H137.294V39.2613H143.914V32.0664H148.915V50.4868H143.914V43.2918H137.294V50.4868H132.293Z" fill="white"/>
<path d="M155.511 50.4868H150.115L156.194 32.0664H163.029L169.109 50.4868H163.713L159.683 37.1398H159.539L155.51 50.4868H155.511ZM154.504 43.2193H164.648V46.9608H154.504V43.2193Z" fill="white"/>
<path d="M170.31 50.4868V32.0664H183.585V36.0959H175.31V39.2623H182.902V43.2918H175.31V46.4582H183.549V50.4877H170.31V50.4868Z" fill="white"/>
<path d="M185.152 50.4868V32.0664H193.138C194.542 32.0664 195.721 32.2549 196.678 32.6328C197.634 33.0107 198.357 33.5442 198.846 34.2334C199.334 34.9225 199.578 35.7354 199.578 36.671C199.578 37.3485 199.429 37.9662 199.133 38.5239C198.836 39.0816 198.42 39.5474 197.887 39.9225C197.353 40.2975 196.73 40.5565 196.017 40.7005V40.8803C196.808 40.9103 197.527 41.1094 198.175 41.4786C198.822 41.8478 199.338 42.3543 199.722 42.999C200.106 43.6436 200.297 44.4004 200.297 45.2703C200.297 46.2775 200.034 47.1744 199.511 47.9592C198.986 48.745 198.241 49.3627 197.276 49.8121C196.31 50.2616 195.159 50.4868 193.823 50.4868H185.153H185.152ZM190.153 39.5136H192.204C192.64 39.5136 193.028 39.445 193.363 39.3068C193.699 39.1685 193.962 38.9694 194.15 38.7085C194.339 38.4475 194.433 38.1286 194.433 37.7506C194.433 37.1813 194.229 36.7445 193.822 36.4419C193.414 36.1394 192.899 35.9877 192.275 35.9877H190.153V39.5136ZM190.153 46.493H192.491C193.331 46.493 193.96 46.3355 194.379 46.0204C194.799 45.7053 195.008 45.2394 195.008 44.6218C195.008 44.1897 194.91 43.8244 194.712 43.5248C194.514 43.2251 194.233 42.997 193.871 42.8414C193.508 42.6858 193.072 42.6075 192.562 42.6075H190.152V46.493H190.153Z" fill="white"/>
<path d="M112.989 50.7393V46.9901H111.046V32.4194H98.0228L97.411 40.2262C97.2911 41.7253 97.1065 42.9219 96.8581 43.815C96.6087 44.708 96.3091 45.3953 95.9592 45.8747C95.6084 46.355 95.2169 46.7262 94.7858 46.9901H93.4907V50.7393H112.99H112.989ZM101.247 45.375C101.478 44.7544 101.679 44.0228 101.85 43.18C102.021 42.3381 102.149 41.3532 102.232 40.2252L102.52 36.448H106.226V46.9891H100.506C100.77 46.5338 101.017 45.9955 101.248 45.375H101.247Z" fill="white"/>
<path d="M76.0658 14.2389H87.3608V12.1782H85.8105V0.311035H76.9087L76.5414 6.20017C76.4689 7.45184 76.3374 8.47155 76.147 9.26024C75.9566 10.0489 75.7256 10.6704 75.454 11.1237C75.1824 11.577 74.8896 11.9289 74.5764 12.1782H73.6447V14.2389H76.0658ZM78.1806 10.7197C78.3797 10.1504 78.546 9.49222 78.6774 8.74411C78.8089 7.99601 78.9046 7.14835 78.9635 6.20114L79.181 2.4268H83.3903V12.1782H77.5147C77.7592 11.7752 77.9815 11.288 78.1816 10.7197H78.1806Z" fill="white"/>
<path d="M14.9872 11.1812C13.9588 11.1763 13.0744 12.0646 13.087 13.0872C13.1005 14.1146 13.9424 14.9468 14.9708 14.9497C16.0311 14.9526 16.8642 14.1175 16.8555 13.0611C16.8468 12.0259 16.0117 11.186 14.9872 11.1821V11.1812Z" fill="white"/>
<path d="M36.9258 11.1812C35.8993 11.1909 35.0671 12.0337 35.0632 13.0679C35.0594 14.1253 35.8935 14.9546 36.9548 14.9498C37.9822 14.9449 38.826 14.106 38.8318 13.0805C38.8376 12.0531 37.9532 11.1716 36.9248 11.1812H36.9258Z" fill="white"/>
<path d="M0 0V50.93H50.93V0H0ZM24.6575 44.0521H22.8577V34.3412L24.6575 33.5023V44.0521ZM27.9756 44.0521H26.1759V32.7938L27.9756 31.9442V44.0521ZM41.7527 14.8925C40.9756 16.9773 38.8907 18.2995 36.6851 18.198C35.4296 18.1401 34.2562 17.593 33.3824 16.7579V29.4225L31.285 30.4122V44.0878H29.4863V31.286L31.285 30.4122L31.287 27.1676H31.285V24.8073V14.4972L29.524 15.3361C29.524 15.3361 29.4873 21.3731 29.4873 24.8073V28.0945H29.4892L29.4873 31.2502L27.9785 31.9442V28.5922V16.0562L26.1749 16.8971V28.5913H26.1788L26.1769 32.7793L24.6604 33.5013V27.1656H24.6575V17.6036L22.8597 18.4416V28.6009H22.8606L22.8954 34.32L21.3422 35.0429V27.1666H21.3403V19.1511L19.5415 19.9891V27.1666H19.5435V35.8867L21.3412 35.0429V44.0521H19.5415V35.8887L17.449 36.861V44.0521H15.6502V37.6748L17.449 36.861V17.5775C16.6487 18.0221 15.7285 18.2502 14.7678 18.201C12.3969 18.0801 10.5314 16.5259 9.96408 14.1985C9.29233 11.4439 11.1829 8.54327 13.9859 8.02327C14.0796 8.00587 14.1685 7.96528 14.2604 7.93531H37.6603C38.5428 8.15762 39.3856 8.45627 40.1192 9.0275C41.8658 10.3874 42.5404 12.7767 41.7527 14.8915V14.8925Z" fill="white"/>
<path d="M149.792 16.1685H145.858V17.4859H149.792V16.1685Z" fill="white"/>
</svg>
