<svg width="264" height="88" viewBox="0 0 264 88" fill="none" xmlns="http://www.w3.org/2000/svg">
<path d="M108.563 69.6404V67.601L108.903 67.5713C109.341 67.5361 109.694 67.3689 109.964 67.0708C110.233 66.7716 110.436 66.2931 110.57 65.6353C110.705 64.9775 110.792 64.0909 110.831 62.9777L111.03 57.6394H119.174V69.6393H116.708V59.6722H113.386L113.199 63.85C113.136 65.1942 112.977 66.2909 112.721 67.1434C112.465 67.9948 112.059 68.624 111.503 69.0299C110.946 69.4358 110.185 69.6393 109.22 69.6393H108.563V69.6404Z" fill="white"/>
<path d="M121.26 57.6406H123.791V65.1877H123.891L129.076 57.6406H131.297V69.6405H128.761V62.0879H128.673L123.457 69.6405H121.26V57.6406V57.6406Z" fill="white"/>
<path d="M133.875 57.6405H136.343V61.5081C136.343 61.969 136.423 62.3397 136.583 62.618C136.743 62.8974 136.992 63.0987 137.329 63.2219C137.667 63.3451 138.102 63.4067 138.633 63.4067C138.821 63.4067 139.041 63.4001 139.295 63.3858C139.549 63.3726 139.812 63.3517 140.083 63.3242C140.354 63.2967 140.611 63.2637 140.853 63.2241C141.095 63.1856 141.296 63.1405 141.457 63.0888V65.093C141.293 65.148 141.088 65.1953 140.844 65.2371C140.6 65.2778 140.343 65.313 140.074 65.3427C139.804 65.3724 139.543 65.3944 139.289 65.4098C139.034 65.4252 138.816 65.4329 138.632 65.4329C137.667 65.4329 136.827 65.2954 136.113 65.0193C135.398 64.7443 134.847 64.3175 134.457 63.7389C134.069 63.1614 133.874 62.4167 133.874 61.507V57.6394L133.875 57.6405ZM141.018 57.6405H143.496V69.6404H141.018V57.6405V57.6405Z" fill="white"/>
<path d="M146.01 69.6405V57.6406H148.546V62.5917H153.696V57.6406H156.228V69.6405H153.696V64.6839H148.546V69.6405H146.01V69.6405Z" fill="white"/>
<path d="M159.991 62.077H162.85C163.802 62.077 164.624 62.2299 165.314 62.5368C166.003 62.8437 166.536 63.276 166.911 63.8348C167.286 64.3936 167.471 65.0514 167.467 65.8093C167.471 66.5628 167.286 67.2283 166.911 67.8047C166.536 68.3811 166.003 68.831 165.314 69.1555C164.624 69.48 163.803 69.6417 162.85 69.6417H158.367V57.6418H160.898V67.6023H162.85C163.306 67.6023 163.691 67.5198 164.003 67.3537C164.316 67.1876 164.553 66.9665 164.715 66.6915C164.877 66.4165 164.956 66.114 164.953 65.7862C164.956 65.3099 164.778 64.9062 164.417 64.5762C164.055 64.2462 163.533 64.0812 162.85 64.0812H159.991V62.077V62.077ZM170.977 57.6418V69.6417H168.446V57.6418H170.977Z" fill="white"/>
<path d="M173.068 57.6406H175.6V65.1877H175.7L180.885 57.6406H183.106V69.6405H180.569V62.0879H180.481L175.266 69.6405H173.068V57.6406V57.6406ZM179.256 54.5001H180.996C180.992 55.2107 180.73 55.7838 180.209 56.2172C179.687 56.6506 178.983 56.8673 178.097 56.8673C177.21 56.8673 176.5 56.6506 175.981 56.2172C175.462 55.7838 175.202 55.2118 175.202 54.5001H176.931C176.926 54.7696 177.013 55.0116 177.191 55.2261C177.369 55.4406 177.671 55.5484 178.097 55.5484C178.522 55.5484 178.807 55.4428 178.988 55.2316C179.167 55.0204 179.257 54.7762 179.257 54.499L179.256 54.5001Z" fill="white"/>
<path d="M109.248 82.934C108.775 82.4148 108.538 81.6327 108.538 80.5866C108.538 79.3337 108.824 78.3965 109.397 77.7772C109.97 77.1579 110.829 76.8477 111.976 76.8477H113.694L113.844 78.3195H111.987C111.399 78.3195 110.959 78.5076 110.665 78.8838C110.372 79.26 110.225 79.8276 110.225 80.5866C110.225 81.1454 110.356 81.559 110.617 81.8274C110.879 82.0958 111.274 82.23 111.804 82.23C112.406 82.23 112.854 82.0694 113.153 81.7471C113.45 81.4248 113.598 80.9375 113.598 80.2863L113.824 81.2642C113.816 81.8087 113.721 82.263 113.539 82.6282C113.356 82.9934 113.085 83.2662 112.728 83.4444C112.369 83.6237 111.918 83.7128 111.375 83.7128C110.43 83.7128 109.721 83.4532 109.248 82.934V82.934ZM113.598 75.388C113.598 74.8655 113.455 74.4607 113.168 74.1736C112.882 73.8876 112.477 73.7435 111.954 73.7435C111.495 73.7435 111.137 73.8865 110.879 74.1736C110.621 74.4596 110.496 74.8688 110.503 75.3979L108.762 75.3869C108.762 74.3771 109.045 73.595 109.611 73.0395C110.176 72.4851 110.975 72.2068 112.006 72.2068C112.7 72.2068 113.296 72.3322 113.789 72.583C114.283 72.8338 114.66 73.1957 114.917 73.6676C115.174 74.1395 115.304 74.7137 115.304 75.3858V83.55H113.596V75.3858L113.598 75.388Z" fill="white"/>
<path d="M116.778 81.8648H124.953V83.5511H116.778V81.8648ZM116.778 81.8648H118.572V86.355H116.778V81.8648ZM117.089 81.8648H117.347C117.59 81.8648 117.8 81.7669 117.975 81.5689C118.15 81.372 118.285 81.0838 118.378 80.7043C118.471 80.3248 118.517 79.8661 118.517 79.3293V72.4004H120.3V79.6296C120.3 80.8044 120.064 81.6855 119.591 82.2718C119.118 82.8592 118.441 83.1529 117.56 83.1529H117.087V81.8637L117.089 81.8648ZM119.722 72.4004H123.439V74.0867H119.722V72.4004ZM122.783 72.4004H124.588V83.5511H122.783V72.4004ZM124.352 81.8648H126.146V86.355H124.352V81.8648Z" fill="white"/>
<path d="M127.617 72.4014H129.411V83.5521H127.617V72.4014ZM128.906 81.8658H131.505C131.77 81.8658 131.97 81.7855 132.107 81.6238C132.243 81.4632 132.311 81.2322 132.311 80.9308V79.7494C132.311 79.3556 132.202 79.0531 131.984 78.8419C131.765 78.6307 131.462 78.5251 131.076 78.5251H128.906V76.8278H131.076C131.405 76.8278 131.66 76.7387 131.838 76.5594C132.018 76.3801 132.107 76.1227 132.107 75.7861V74.7983C132.107 74.5838 132.039 74.4111 131.902 74.2824C131.766 74.1537 131.569 74.0888 131.311 74.0888H128.905V72.4025H131.515C132.274 72.4025 132.861 72.5906 133.277 72.9668C133.693 73.343 133.9 73.8743 133.9 74.5618V75.84C133.9 76.3339 133.767 76.7464 133.503 77.0753C133.238 77.4053 132.869 77.6121 132.396 77.6979C132.941 77.7837 133.361 78.0037 133.658 78.359C133.955 78.7132 134.103 79.1697 134.103 79.7285V81.1574C134.103 81.9164 133.884 82.506 133.448 82.924C133.011 83.3431 132.392 83.5521 131.59 83.5521H128.905V81.8658H128.906Z" fill="white"/>
<path d="M137.301 83.3312C136.818 83.0771 136.451 82.7064 136.2 82.2191C135.949 81.7318 135.824 81.1488 135.824 80.4679V75.398C135.824 74.7248 135.949 74.1506 136.2 73.6743C136.451 73.198 136.818 72.835 137.301 72.5842C137.784 72.3334 138.362 72.208 139.036 72.208C139.709 72.208 140.283 72.3334 140.759 72.5842C141.236 72.835 141.599 73.198 141.849 73.6743C142.1 74.1506 142.226 74.7259 142.226 75.398V80.5009C142.226 81.1741 142.1 81.7527 141.849 82.2356C141.599 82.7185 141.236 83.0859 140.759 83.3367C140.283 83.5875 139.709 83.7129 139.036 83.7129C138.362 83.7129 137.784 83.5853 137.301 83.3312V83.3312ZM140.062 81.5965C140.309 81.3314 140.433 80.9552 140.433 80.469V75.431C140.433 74.958 140.307 74.5895 140.056 74.3244C139.806 74.0593 139.458 73.9273 139.015 73.9273C138.571 73.9273 138.236 74.0604 137.988 74.3244C137.741 74.5895 137.618 74.958 137.618 75.431V80.469C137.618 80.9563 137.74 81.3325 137.983 81.5965C138.226 81.8616 138.57 81.9936 139.015 81.9936C139.459 81.9936 139.816 81.8616 140.062 81.5965Z" fill="white"/>
<path d="M144.374 72.4014H146.168V83.5521H144.374V72.4014ZM145.438 77.2029H149.197V78.8573H145.438V77.2029ZM147.651 78.6428L149.026 77.4614L151.776 83.5521H149.831L147.651 78.6428ZM147.673 77.4504L149.531 72.4014H151.389L148.993 78.7066L147.672 77.4493L147.673 77.4504Z" fill="white"/>
<path d="M153.398 82.934C152.925 82.4148 152.689 81.6327 152.689 80.5866C152.689 79.3337 152.975 78.3965 153.548 77.7772C154.121 77.1579 154.98 76.8477 156.126 76.8477H157.844L157.995 78.3195H156.137C155.55 78.3195 155.11 78.5076 154.816 78.8838C154.522 79.26 154.376 79.8276 154.376 80.5866C154.376 81.1454 154.507 81.559 154.768 81.8274C155.03 82.0958 155.424 82.23 155.955 82.23C156.556 82.23 157.005 82.0694 157.303 81.7471C157.6 81.4248 157.749 80.9375 157.749 80.2863L157.974 81.2642C157.967 81.8087 157.872 82.263 157.689 82.6282C157.507 82.9934 157.236 83.2662 156.879 83.4444C156.52 83.6237 156.069 83.7128 155.526 83.7128C154.581 83.7128 153.871 83.4532 153.398 82.934V82.934ZM157.749 75.388C157.749 74.8655 157.606 74.4607 157.319 74.1736C157.033 73.8876 156.628 73.7435 156.104 73.7435C155.646 73.7435 155.288 73.8865 155.03 74.1736C154.772 74.4596 154.647 74.8688 154.653 75.3979L152.913 75.3869C152.913 74.3771 153.196 73.595 153.761 73.0395C154.327 72.4851 155.125 72.2068 156.157 72.2068C156.851 72.2068 157.446 72.3322 157.94 72.583C158.434 72.8338 158.81 73.1957 159.068 73.6676C159.325 74.1395 159.455 74.7137 159.455 75.3858V83.55H157.747V75.3858L157.749 75.388Z" fill="white"/>
<path d="M160.423 72.4014H166.46V74.0877H160.423V72.4014ZM162.571 72.4014H164.311V83.5521H162.571V72.4014Z" fill="white"/>
<path d="M105.982 83.6205H103.951C103.87 80.1445 102.522 77.2746 99.8514 75.0724C97.6976 73.2959 95.1863 72.4797 92.4 72.6117C89.4784 72.7503 86.9858 73.8998 84.9607 76.0118C82.9345 78.1249 81.939 80.6714 81.8818 83.6051H79.8457C79.8754 80.8298 80.6531 78.3064 82.2635 76.0547C83.8717 73.8052 85.9903 72.219 88.6193 71.2708C88.5445 71.207 88.4972 71.163 88.4466 71.1245C85.9012 69.227 84.777 66.1096 85.6482 63.045C86.4501 60.2257 88.3432 58.4514 91.1779 57.699C91.5772 57.5934 91.9952 57.5549 92.4044 57.4856C92.7443 57.4856 93.0853 57.4856 93.4252 57.4856C93.8344 57.5549 94.2524 57.5923 94.6517 57.699C97.4864 58.4514 99.4015 60.2202 100.175 63.0472C100.983 66.004 100.161 68.567 97.9341 70.6735C97.7152 70.8803 97.4699 71.0585 97.218 71.2642C97.2928 71.2983 97.3445 71.3258 97.3984 71.3445C99.1661 71.9891 100.722 72.9736 102.059 74.2936C104.042 76.2494 105.295 78.5979 105.776 81.3468C105.864 81.8462 105.914 82.3522 105.981 82.8549V83.6205H105.982ZM92.9137 59.5283C89.8865 59.5283 87.4137 61.9978 87.4027 65.0283C87.3917 68.0599 89.881 70.5525 92.9159 70.5514C95.9431 70.5514 98.4159 68.0819 98.4269 65.0514C98.4379 62.0198 95.9486 59.5272 92.9137 59.5283Z" fill="white"/>
</svg>
