<svg width="264" height="89" viewBox="0 0 264 89" fill="none" xmlns="http://www.w3.org/2000/svg">
<g clip-path="url(#clip0_53_714)">
<path d="M93.6119 56.3524V54.2861H94.262C94.5865 54.2861 94.8483 54.2464 95.0474 54.166C95.2465 54.0856 95.406 53.9665 95.5248 53.8078C95.6436 53.6492 95.7448 53.4508 95.8262 53.2117L95.9725 52.8182L91.6132 44.1653H94.2378L97.0615 50.082L99.4232 44.1653H102.013L97.8755 53.8277C97.6764 54.274 97.441 54.6884 97.1693 55.0718C96.8976 55.4553 96.5511 55.765 96.1287 55.9997C95.7074 56.2345 95.1673 56.3524 94.5117 56.3524H93.6097H93.6119Z" fill="white"/>
<path d="M113.246 48.375H110.68C110.632 48.0422 110.537 47.7457 110.392 47.4856C110.248 47.2256 110.062 47.003 109.836 46.8189C109.609 46.6349 109.349 46.4938 109.054 46.3958C108.759 46.2977 108.44 46.2492 108.096 46.2492C107.474 46.2492 106.934 46.4024 106.473 46.7098C106.012 47.0173 105.655 47.4636 105.401 48.0477C105.147 48.6328 105.02 49.3425 105.02 50.1757C105.02 51.0088 105.148 51.7526 105.404 52.3356C105.66 52.9185 106.018 53.3593 106.479 53.6569C106.94 53.9544 107.473 54.1032 108.078 54.1032C108.418 54.1032 108.734 54.058 109.024 53.9677C109.314 53.8773 109.574 53.7451 109.801 53.5709C110.027 53.3968 110.215 53.1841 110.366 52.934C110.517 52.6838 110.621 52.3984 110.68 52.0766L113.246 52.0887C113.18 52.6408 113.015 53.172 112.751 53.6822C112.487 54.1925 112.134 54.6487 111.69 55.0498C111.247 55.451 110.719 55.7683 110.109 56.0009C109.497 56.2334 108.807 56.3502 108.037 56.3502C106.967 56.3502 106.011 56.1078 105.17 55.6229C104.328 55.138 103.664 54.4349 103.178 53.5158C102.691 52.5968 102.448 51.4826 102.448 50.1757C102.448 48.8687 102.695 47.749 103.186 46.83C103.678 45.9109 104.347 45.2089 105.191 44.7251C106.034 44.2413 106.984 44 108.038 44C108.734 44 109.379 44.0981 109.974 44.2931C110.571 44.4893 111.099 44.7736 111.56 45.1472C112.02 45.5208 112.397 45.9781 112.687 46.5181C112.977 47.0581 113.164 47.6763 113.247 48.3728L113.246 48.375Z" fill="white"/>
<path d="M114.418 56.1882V54.1451L114.758 54.1153C115.196 54.08 115.549 53.9125 115.819 53.6139C116.088 53.3141 116.291 52.8348 116.425 52.1758C116.56 51.5168 116.647 50.6286 116.686 49.5133L116.885 44.1653H125.029V56.1871H122.563V46.2018H119.241L119.054 50.3872C118.991 51.7339 118.832 52.8326 118.576 53.6866C118.32 54.5396 117.914 55.1699 117.358 55.5766C116.801 55.9832 116.04 56.1871 115.075 56.1871H114.418V56.1882Z" fill="white"/>
<path d="M138.142 50.1767C138.142 51.4881 137.895 52.6034 137.401 53.5224C136.907 54.4426 136.235 55.1435 135.386 55.6273C134.536 56.1111 133.582 56.3524 132.523 56.3524C131.465 56.3524 130.499 56.11 129.652 55.6251C128.804 55.1402 128.134 54.4371 127.643 53.518C127.151 52.599 126.905 51.4848 126.905 50.1778C126.905 48.8709 127.151 47.7512 127.643 46.8322C128.134 45.9131 128.804 45.2111 129.652 44.7273C130.5 44.2435 131.457 44.0022 132.523 44.0022C133.589 44.0022 134.536 44.2435 135.386 44.7273C136.235 45.2111 136.907 45.912 137.401 46.8322C137.895 47.7523 138.142 48.8676 138.142 50.1778V50.1767ZM135.57 50.1767C135.57 49.3271 135.444 48.6119 135.192 48.0278C134.94 47.4449 134.586 47.003 134.128 46.701C133.671 46.4002 133.136 46.2492 132.523 46.2492C131.911 46.2492 131.375 46.4002 130.917 46.701C130.461 47.0019 130.106 47.4449 129.854 48.0278C129.602 48.6108 129.475 49.3271 129.475 50.1767C129.475 51.0264 129.602 51.7416 129.854 52.3257C130.106 52.9086 130.46 53.3505 130.917 53.6525C131.375 53.9533 131.91 54.1043 132.523 54.1043C133.137 54.1043 133.672 53.9533 134.128 53.6525C134.586 53.3516 134.94 52.9086 135.192 52.3257C135.444 51.7427 135.57 51.0264 135.57 50.1767V50.1767Z" fill="white"/>
<path d="M140.018 56.1883V44.1665H144.822C145.706 44.1665 146.442 44.2976 147.031 44.5599C147.621 44.8222 148.064 45.1848 148.361 45.6487C148.658 46.1126 148.807 46.646 148.807 47.2488C148.807 47.7183 148.713 48.1304 148.525 48.4842C148.338 48.8379 148.081 49.1277 147.755 49.3526C147.429 49.5774 147.057 49.7372 146.639 49.8308V49.9476C147.096 49.9675 147.524 50.0964 147.924 50.3355C148.325 50.5747 148.65 50.9075 148.9 51.3362C149.15 51.7648 149.275 52.274 149.275 52.8658C149.275 53.5038 149.118 54.0724 148.803 54.5706C148.489 55.0698 148.025 55.4643 147.412 55.753C146.798 56.0428 146.042 56.1872 145.145 56.1872H140.018V56.1883ZM142.554 49.1972H144.435C144.783 49.1972 145.092 49.1355 145.364 49.012C145.635 48.8886 145.85 48.7134 146.008 48.4864C146.167 48.2594 146.246 47.9872 146.246 47.6709C146.246 47.2367 146.093 46.8863 145.786 46.6207C145.479 46.3551 145.045 46.2217 144.483 46.2217H142.554V49.1983V49.1972ZM142.554 54.1099H144.622C145.33 54.1099 145.844 53.9744 146.169 53.7022C146.493 53.43 146.655 53.0674 146.655 52.6134C146.655 52.2806 146.575 51.9875 146.415 51.7329C146.255 51.4783 146.027 51.2789 145.732 51.1345C145.437 50.9901 145.086 50.9174 144.681 50.9174H142.553V54.111L142.554 54.1099Z" fill="white"/>
<path d="M150.922 56.1883V44.1665H153.459V49.1266H158.609V44.1665H161.14V56.1883H158.609V51.2227H153.459V56.1883H150.922Z" fill="white"/>
<path d="M174.26 50.1767C174.26 51.4881 174.012 52.6034 173.518 53.5224C173.024 54.4426 172.352 55.1435 171.503 55.6273C170.654 56.1111 169.699 56.3524 168.641 56.3524C167.583 56.3524 166.617 56.11 165.77 55.6251C164.922 55.1402 164.252 54.4371 163.76 53.518C163.268 52.599 163.022 51.4848 163.022 50.1778C163.022 48.8709 163.268 47.7512 163.76 46.8322C164.252 45.9131 164.922 45.2111 165.77 44.7273C166.618 44.2435 167.575 44.0022 168.641 44.0022C169.707 44.0022 170.654 44.2435 171.503 44.7273C172.352 45.2111 173.024 45.912 173.518 46.8322C174.012 47.7523 174.26 48.8676 174.26 50.1778V50.1767ZM171.688 50.1767C171.688 49.3271 171.561 48.6119 171.309 48.0278C171.057 47.4449 170.703 47.003 170.246 46.701C169.788 46.4002 169.253 46.2492 168.641 46.2492C168.028 46.2492 167.492 46.4002 167.035 46.701C166.578 47.0019 166.223 47.4449 165.971 48.0278C165.719 48.6108 165.593 49.3271 165.593 50.1767C165.593 51.0264 165.719 51.7416 165.971 52.3257C166.223 52.9086 166.577 53.3505 167.035 53.6525C167.492 53.9533 168.027 54.1043 168.641 54.1043C169.255 54.1043 169.789 53.9533 170.246 53.6525C170.703 53.3516 171.057 52.9086 171.309 52.3257C171.561 51.7427 171.688 51.0264 171.688 50.1767V50.1767Z" fill="white"/>
<path d="M181.694 49.1851V51.1687H176.222V49.1851H181.694Z" fill="white"/>
<path d="M91.666 72.3117V67.3868H92.48C92.7572 67.1874 93.0113 66.9041 93.2412 66.5383C93.4711 66.1724 93.6691 65.6655 93.833 65.0175C93.9969 64.3695 94.1146 63.5221 94.185 62.473L94.5249 57.3894H102.465V67.3857H103.777V72.2985H101.339V69.4101H94.1025V72.3095H91.6649L91.666 72.3117ZM95.4104 67.3868H100.027V59.4854H96.8107L96.6237 62.473C96.5731 63.2675 96.4895 63.9717 96.3751 64.5866C96.2596 65.2015 96.121 65.7382 95.9593 66.1977C95.7976 66.6573 95.615 67.054 95.4115 67.3868H95.4104Z" fill="white"/>
<path d="M116.346 63.4009C116.346 64.7123 116.098 65.8275 115.604 66.7466C115.11 67.6667 114.438 68.3676 113.589 68.8514C112.74 69.3352 111.785 69.5765 110.727 69.5765C109.669 69.5765 108.703 69.3341 107.856 68.8492C107.009 68.3643 106.338 67.6612 105.846 66.7421C105.354 65.8231 105.108 64.7089 105.108 63.402C105.108 62.095 105.354 60.9753 105.846 60.0563C106.338 59.1372 107.008 58.4352 107.856 57.9514C108.704 57.4677 109.661 57.2263 110.727 57.2263C111.793 57.2263 112.74 57.4677 113.589 57.9514C114.438 58.4352 115.11 59.1361 115.604 60.0563C116.098 60.9753 116.346 62.0917 116.346 63.402V63.4009ZM113.774 63.4009C113.774 62.5512 113.647 61.836 113.395 61.252C113.144 60.669 112.789 60.2271 112.332 59.9251C111.874 59.6232 111.34 59.4733 110.727 59.4733C110.114 59.4733 109.578 59.6243 109.121 59.9251C108.664 60.226 108.309 60.669 108.057 61.252C107.805 61.8349 107.679 62.5512 107.679 63.4009C107.679 64.2505 107.805 64.9668 108.057 65.5498C108.309 66.1327 108.663 66.5746 109.121 66.8766C109.578 67.1785 110.113 67.3284 110.727 67.3284C111.341 67.3284 111.875 67.1774 112.332 66.8766C112.789 66.5757 113.144 66.1327 113.395 65.5498C113.647 64.9668 113.774 64.2505 113.774 63.4009Z" fill="white"/>
<path d="M128.809 61.599H126.242C126.195 61.2662 126.099 60.9697 125.955 60.7096C125.811 60.4496 125.625 60.227 125.399 60.0429C125.172 59.8589 124.911 59.7178 124.617 59.6209C124.322 59.5228 124.003 59.4743 123.658 59.4743C123.037 59.4743 122.497 59.6275 122.036 59.9349C121.575 60.2424 121.218 60.6887 120.963 61.2739C120.709 61.859 120.583 62.5687 120.583 63.4018C120.583 64.235 120.71 64.9788 120.967 65.5618C121.223 66.1447 121.581 66.5855 122.041 66.8831C122.502 67.1806 123.036 67.3294 123.641 67.3294C123.981 67.3294 124.296 67.2842 124.587 67.195C124.877 67.1046 125.137 66.9723 125.363 66.7982C125.59 66.6241 125.778 66.4114 125.929 66.1613C126.08 65.9111 126.184 65.6246 126.242 65.3039L128.809 65.316C128.743 65.8681 128.578 66.3993 128.314 66.9095C128.05 67.4198 127.697 67.876 127.253 68.2771C126.81 68.6783 126.282 68.9956 125.671 69.2282C125.06 69.4607 124.37 69.5775 123.6 69.5775C122.53 69.5775 121.574 69.335 120.732 68.8502C119.891 68.3653 119.227 67.6622 118.74 66.7431C118.254 65.8241 118.011 64.7099 118.011 63.4029C118.011 62.096 118.257 60.9763 118.749 60.0572C119.241 59.1382 119.91 58.4362 120.753 57.9524C121.597 57.4686 122.546 57.2273 123.601 57.2273C124.296 57.2273 124.942 57.3254 125.537 57.5204C126.133 57.7166 126.661 58.0009 127.122 58.3745C127.583 58.7481 127.959 59.2054 128.25 59.7454C128.54 60.2854 128.727 60.9036 128.81 61.6001L128.809 61.599Z" fill="white"/>
<path d="M130.631 69.4122V57.3904H135.366C136.275 57.3904 137.051 57.5634 137.692 57.9094C138.334 58.2555 138.822 58.7348 139.16 59.3475C139.497 59.9603 139.667 60.6655 139.667 61.4634C139.667 62.2613 139.495 62.9665 139.151 63.577C138.807 64.1876 138.31 64.6625 137.659 65.003C137.009 65.3436 136.223 65.5133 135.301 65.5133H132.284V63.4768H134.891C135.379 63.4768 135.782 63.3919 136.101 63.2211C136.42 63.0503 136.657 62.8145 136.816 62.5103C136.974 62.2062 137.053 61.8579 137.053 61.4623C137.053 61.0667 136.974 60.714 136.816 60.4143C136.657 60.1145 136.418 59.882 136.097 59.7156C135.777 59.5492 135.37 59.4666 134.878 59.4666H133.168V69.41H130.631V69.4122Z" fill="white"/>
<path d="M152.345 63.4009C152.345 64.7123 152.098 65.8275 151.604 66.7466C151.11 67.6667 150.438 68.3676 149.589 68.8514C148.74 69.3352 147.785 69.5765 146.727 69.5765C145.668 69.5765 144.703 69.3341 143.856 68.8492C143.009 68.3643 142.338 67.6612 141.846 66.7421C141.354 65.8231 141.108 64.7089 141.108 63.402C141.108 62.095 141.354 60.9753 141.846 60.0563C142.338 59.1372 143.007 58.4352 143.856 57.9514C144.704 57.4677 145.661 57.2263 146.727 57.2263C147.792 57.2263 148.74 57.4677 149.589 57.9514C150.438 58.4352 151.11 59.1361 151.604 60.0563C152.098 60.9753 152.345 62.0917 152.345 63.402V63.4009ZM149.774 63.4009C149.774 62.5512 149.647 61.836 149.395 61.252C149.143 60.669 148.789 60.2271 148.331 59.9251C147.874 59.6232 147.339 59.4733 146.727 59.4733C146.114 59.4733 145.578 59.6243 145.121 59.9251C144.664 60.226 144.309 60.669 144.057 61.252C143.805 61.8349 143.678 62.5512 143.678 63.4009C143.678 64.2505 143.805 64.9668 144.057 65.5498C144.309 66.1327 144.663 66.5746 145.121 66.8766C145.578 67.1785 146.113 67.3284 146.727 67.3284C147.34 67.3284 147.875 67.1774 148.331 66.8766C148.789 66.5757 149.143 66.1327 149.395 65.5498C149.647 64.9668 149.774 64.2505 149.774 63.4009Z" fill="white"/>
<path d="M154.707 57.3905H157.174V61.2652C157.174 61.7269 157.255 62.0983 157.414 62.3771C157.575 62.657 157.823 62.8587 158.161 62.9821C158.499 63.1055 158.933 63.1672 159.465 63.1672C159.653 63.1672 159.873 63.1606 160.127 63.1463C160.381 63.1331 160.644 63.1121 160.914 63.0846C161.186 63.057 161.442 63.024 161.684 62.9843C161.926 62.9457 162.128 62.9005 162.288 62.8487V64.8566C162.124 64.9117 161.92 64.9591 161.676 64.9999C161.431 65.0406 161.175 65.0759 160.906 65.1057C160.636 65.1354 160.374 65.1575 160.12 65.1729C159.866 65.1883 159.647 65.196 159.463 65.196C158.499 65.196 157.658 65.0583 156.944 64.7828C156.229 64.5073 155.678 64.0797 155.289 63.5C154.901 62.9204 154.706 62.1754 154.706 61.2641V57.3894L154.707 57.3905ZM161.849 57.3905H164.328V69.4123H161.849V57.3905Z" fill="white"/>
<path d="M166.841 69.4122V57.3904H169.378V62.3505H174.528V57.3904H177.059V69.4122H174.528V64.4465H169.378V69.4122H166.841Z" fill="white"/>
<path d="M190.18 63.4009C190.18 64.7123 189.932 65.8275 189.438 66.7466C188.945 67.6667 188.272 68.3676 187.423 68.8514C186.574 69.3352 185.619 69.5765 184.561 69.5765C183.503 69.5765 182.537 69.3341 181.69 68.8492C180.843 68.3643 180.172 67.6612 179.68 66.7421C179.189 65.8231 178.942 64.7089 178.942 63.402C178.942 62.095 179.189 60.9753 179.68 60.0563C180.172 59.1372 180.842 58.4352 181.69 57.9514C182.538 57.4677 183.495 57.2263 184.561 57.2263C185.627 57.2263 186.574 57.4677 187.423 57.9514C188.272 58.4352 188.945 59.1361 189.438 60.0563C189.932 60.9753 190.18 62.0917 190.18 63.402V63.4009ZM187.608 63.4009C187.608 62.5512 187.482 61.836 187.23 61.252C186.978 60.669 186.624 60.2271 186.166 59.9251C185.708 59.6232 185.174 59.4733 184.561 59.4733C183.948 59.4733 183.413 59.6243 182.955 59.9251C182.499 60.226 182.143 60.669 181.891 61.252C181.639 61.8349 181.513 62.5512 181.513 63.4009C181.513 64.2505 181.639 64.9668 181.891 65.5498C182.143 66.1327 182.497 66.5746 182.955 66.8766C183.413 67.1785 183.947 67.3284 184.561 67.3284C185.175 67.3284 185.709 67.1774 186.166 66.8766C186.624 66.5757 186.978 66.1327 187.23 65.5498C187.482 64.9668 187.608 64.2505 187.608 63.4009Z" fill="white"/>
<path d="M192.054 69.4122V57.3904H200.14V59.4864H194.592V62.3505H199.724V64.4465H194.592V67.3173H200.164V69.4133H192.055L192.054 69.4122Z" fill="white"/>
<path d="M92.8441 86.5441C92.3645 86.2896 91.9993 85.9182 91.7485 85.43C91.4977 84.9418 91.3723 84.3578 91.3723 83.6756V78.5965C91.3723 77.922 91.4977 77.3468 91.7485 76.8696C91.9993 76.3924 92.3645 76.0288 92.8441 75.7775C93.3237 75.5263 93.9001 75.4006 94.5733 75.4006C95.2465 75.4006 95.8229 75.5263 96.3025 75.7775C96.7821 76.0288 97.1473 76.3924 97.3981 76.8696C97.6489 77.3468 97.7743 77.9231 97.7743 78.5965V83.7087C97.7743 84.3831 97.6489 84.9627 97.3981 85.4465C97.1473 85.9303 96.7821 86.2984 96.3025 86.5496C95.8229 86.8009 95.2465 86.9265 94.5733 86.9265C93.9001 86.9265 93.3237 86.7987 92.8441 86.5441V86.5441ZM95.7932 85.0212C96.0836 84.7126 96.2288 84.2751 96.2288 83.7087V78.5965C96.2288 78.0444 96.0825 77.6135 95.7888 77.3049C95.4951 76.9963 95.087 76.8421 94.5645 76.8421C94.042 76.8421 93.6372 76.9963 93.3501 77.3049C93.0641 77.6135 92.92 78.0444 92.92 78.5965V83.7087C92.92 84.2751 93.063 84.7137 93.3501 85.0212C93.6361 85.3297 94.0409 85.484 94.5645 85.484C95.0881 85.484 95.5039 85.3297 95.7943 85.0212H95.7932Z" fill="white"/>
<path d="M101.256 86.533C100.754 86.2707 100.371 85.8905 100.106 85.3924C99.8412 84.8943 99.7092 84.2893 99.7092 83.5785V78.9082C99.7092 78.1699 99.8412 77.5384 100.106 77.0139C100.371 76.4904 100.756 76.0904 101.261 75.8138C101.766 75.5372 102.373 75.3994 103.082 75.3994C103.79 75.3994 104.411 75.5372 104.919 75.8138C105.427 76.0904 105.814 76.4915 106.079 77.0194C106.344 77.5472 106.476 78.1831 106.476 78.9291V79.0151H105.005V78.9291C105.005 78.269 104.84 77.7566 104.511 77.3907C104.181 77.0249 103.715 76.8419 103.114 76.8419C102.512 76.8419 102.07 77.0216 101.744 77.3797C101.419 77.739 101.256 78.2481 101.256 78.9082V83.5785C101.256 84.1879 101.416 84.6585 101.739 84.988C102.061 85.3186 102.52 85.4828 103.114 85.4828C103.708 85.4828 104.181 85.312 104.511 84.9714C104.84 84.6309 105.005 84.1516 105.005 83.5344V83.4485H106.497V83.5344C106.497 84.2518 106.363 84.8635 106.095 85.3693C105.826 85.8751 105.436 86.2608 104.924 86.5264C104.412 86.792 103.798 86.9242 103.082 86.9242C102.366 86.9242 101.757 86.7931 101.256 86.5319V86.533Z" fill="white"/>
<path d="M108.217 75.5934H109.763V86.7644H108.217V75.5934V75.5934ZM109.506 85.3219H112.353C112.61 85.3219 112.809 85.2415 112.949 85.0795C113.089 84.9175 113.158 84.6827 113.158 84.3742V82.8248C113.158 82.4369 113.047 82.136 112.825 81.9211C112.602 81.7062 112.302 81.5982 111.923 81.5982H109.506V80.1557H111.923C112.251 80.1557 112.507 80.0642 112.685 79.8813C112.864 79.6984 112.953 79.4416 112.953 79.1121V77.7566C112.953 77.534 112.884 77.3588 112.744 77.2288C112.605 77.0987 112.41 77.0348 112.159 77.0348H109.506V75.5923H112.278C112.987 75.5923 113.535 75.7664 113.921 76.1146C114.308 76.4629 114.501 76.9555 114.501 77.5946V79.187C114.501 79.6466 114.383 80.0268 114.147 80.3276C113.91 80.6285 113.581 80.8191 113.159 80.8985C113.653 80.9844 114.035 81.1894 114.303 81.5123C114.571 81.8352 114.706 82.2583 114.706 82.7818V84.5252C114.706 85.236 114.501 85.7859 114.093 86.1771C113.685 86.5683 113.105 86.7633 112.353 86.7633H109.506V85.3208V85.3219Z" fill="white"/>
<path d="M117.896 86.5441C117.416 86.2896 117.051 85.9182 116.8 85.43C116.549 84.9418 116.424 84.3578 116.424 83.6756V78.5965C116.424 77.922 116.549 77.3468 116.8 76.8696C117.051 76.3924 117.416 76.0288 117.896 75.7775C118.375 75.5263 118.952 75.4006 119.625 75.4006C120.298 75.4006 120.874 75.5263 121.354 75.7775C121.834 76.0288 122.199 76.3924 122.449 76.8696C122.7 77.3468 122.826 77.9231 122.826 78.5965V83.7087C122.826 84.3831 122.7 84.9627 122.449 85.4465C122.199 85.9303 121.834 86.2984 121.354 86.5496C120.874 86.8009 120.298 86.9265 119.625 86.9265C118.952 86.9265 118.375 86.7987 117.896 86.5441V86.5441ZM120.845 85.0212C121.135 84.7126 121.28 84.2751 121.28 83.7087V78.5965C121.28 78.0444 121.134 77.6135 120.84 77.3049C120.546 76.9963 120.138 76.8421 119.616 76.8421C119.093 76.8421 118.689 76.9963 118.402 77.3049C118.116 77.6135 117.971 78.0444 117.971 78.5965V83.7087C117.971 84.2751 118.114 84.7137 118.402 85.0212C118.688 85.3297 119.092 85.484 119.616 85.484C120.139 85.484 120.555 85.3297 120.846 85.0212H120.845Z" fill="white"/>
<path d="M124.974 76.0772C124.974 75.4678 125.088 74.9543 125.317 74.5388C125.546 74.1233 125.883 73.7751 126.327 73.4952C126.771 73.2153 127.348 72.953 128.056 72.7095C128.472 72.5728 128.795 72.4384 129.029 72.3061C129.262 72.1739 129.437 72.0141 129.556 71.8268C129.673 71.6405 129.733 71.4036 129.733 71.116H131.236C131.236 71.5964 131.165 72.0053 131.022 72.3425C130.879 72.6797 130.668 72.9563 130.388 73.1712C130.109 73.3861 129.751 73.5547 129.314 73.677C128.655 73.8633 128.127 74.0594 127.73 74.2633C127.332 74.4672 127.031 74.7239 126.828 75.0325C126.623 75.3411 126.522 75.7356 126.522 76.2161V80.8004H124.975V76.0761L124.974 76.0772ZM126.446 86.543C125.966 86.2884 125.601 85.9192 125.35 85.4343C125.099 84.9506 124.974 84.3676 124.974 83.6855V79.0471L126.403 77.2927C126.568 76.8409 126.876 76.4838 127.327 76.2216C127.778 75.9593 128.276 75.8293 128.82 75.8293C129.363 75.8293 129.817 75.9527 130.2 76.2006C130.583 76.4486 130.876 76.81 131.076 77.2872C131.276 77.7644 131.376 78.3407 131.376 79.0141V83.7174C131.376 84.3919 131.251 84.9693 131 85.4498C130.749 85.9303 130.384 86.2961 129.904 86.5474C129.425 86.7986 128.848 86.9243 128.175 86.9243C127.502 86.9243 126.925 86.7964 126.446 86.5419V86.543ZM129.389 84.9561C129.683 84.6409 129.829 84.199 129.829 83.6326V79.1022C129.829 78.5424 129.683 78.1071 129.389 77.7941C129.096 77.4823 128.688 77.3258 128.165 77.3258C127.643 77.3258 127.247 77.4823 126.956 77.7941C126.666 78.106 126.521 78.5424 126.521 79.1022V83.6326C126.521 84.199 126.666 84.6409 126.956 84.9561C127.247 85.2724 127.649 85.4299 128.165 85.4299C128.681 85.4299 129.096 85.2724 129.389 84.9561Z" fill="white"/>
<path d="M134.782 86.5441C134.302 86.2896 133.937 85.9182 133.686 85.43C133.435 84.9418 133.31 84.3578 133.31 83.6756V78.5965C133.31 77.922 133.435 77.3468 133.686 76.8696C133.937 76.3924 134.302 76.0288 134.782 75.7775C135.261 75.5263 135.838 75.4006 136.511 75.4006C137.184 75.4006 137.76 75.5263 138.24 75.7775C138.72 76.0288 139.085 76.3924 139.336 76.8696C139.586 77.3468 139.712 77.9231 139.712 78.5965V83.7087C139.712 84.3831 139.586 84.9627 139.336 85.4465C139.085 85.9303 138.72 86.2984 138.24 86.5496C137.76 86.8009 137.184 86.9265 136.511 86.9265C135.838 86.9265 135.261 86.7987 134.782 86.5441V86.5441ZM137.731 85.0212C138.021 84.7126 138.166 84.2751 138.166 83.7087V78.5965C138.166 78.0444 138.02 77.6135 137.726 77.3049C137.433 76.9963 137.025 76.8421 136.502 76.8421C135.98 76.8421 135.575 76.9963 135.288 77.3049C135.002 77.6135 134.858 78.0444 134.858 78.5965V83.7087C134.858 84.2751 135.001 84.7137 135.288 85.0212C135.574 85.3297 135.978 85.484 136.502 85.484C137.026 85.484 137.441 85.3297 137.732 85.0212H137.731Z" fill="white"/>
<path d="M143.967 80.6626L145.127 81.5883L141.85 86.7644H140.25L143.967 80.6626ZM140.637 75.5934H142.163L145.073 80.8775L143.999 81.9112L140.636 75.5945L140.637 75.5934ZM143.795 80.5436H149.059V81.9211H143.795V80.5436ZM145.653 75.5934H147.2V86.7644H145.653V75.5934V75.5934ZM147.726 81.5872L148.887 80.6615L152.604 86.7633H151.003L147.726 81.5872ZM147.78 80.8764L150.691 75.5923H152.217L148.854 81.909L147.779 80.8753L147.78 80.8764Z" fill="white"/>
<path d="M152.872 85.322H160.875V86.7646H152.872V85.322ZM152.872 85.322H154.419V89.5725H152.872V85.322ZM153.173 85.322H153.43C153.673 85.322 153.883 85.2129 154.058 84.9936C154.233 84.7743 154.368 84.4569 154.461 84.0415C154.554 83.626 154.6 83.1235 154.6 82.535V75.5935H156.147V82.8359C156.147 84.0911 155.932 85.0355 155.502 85.6659C155.072 86.2973 154.453 86.6125 153.644 86.6125H153.171V85.3209L153.173 85.322ZM155.643 75.5935H159.371V77.036H155.643V75.5935ZM159.07 75.5935H160.616V86.7646H159.07V75.5935ZM160.519 85.322H162.066V89.5725H160.519V85.322Z" fill="white"/>
<path d="M164.651 86.49C164.146 86.1991 163.759 85.7759 163.491 85.2205C163.222 84.6651 163.088 83.9951 163.088 83.2138V79.3391C163.088 78.5071 163.219 77.7963 163.48 77.2078C163.741 76.6193 164.119 76.1708 164.613 75.8623C165.106 75.5537 165.702 75.3994 166.396 75.3994C167.09 75.3994 167.708 75.5416 168.206 75.8248C168.703 76.108 169.083 76.5224 169.345 77.0679C169.607 77.6133 169.736 78.2701 169.736 79.0371V81.8142H164.032V80.3717H168.189V79.0801C168.189 78.3693 168.031 77.8194 167.716 77.4282C167.4 77.037 166.96 76.8419 166.395 76.8419C165.829 76.8419 165.402 77.048 165.094 77.4613C164.786 77.8734 164.632 78.4608 164.632 79.2212V83.2567C164.632 83.9598 164.793 84.5064 165.115 84.8976C165.438 85.2888 165.892 85.4839 166.479 85.4839C167.03 85.4839 167.458 85.3296 167.763 85.021C168.068 84.7125 168.219 84.275 168.219 83.7086V83.6435H169.766V83.7086C169.766 84.7345 169.48 85.5269 168.907 86.0867C168.334 86.6465 167.524 86.9264 166.479 86.9264C165.763 86.9264 165.153 86.7809 164.648 86.49H164.651Z" fill="white"/>
<path d="M171.918 75.5935H173.464V86.7646H171.918V75.5935V75.5935ZM173.132 80.5547H177.568V81.9973H173.132V80.5547ZM176.784 75.5935H178.331V86.7646H176.784V75.5935Z" fill="white"/>
<path d="M185.657 86.7535V78.2306L185.914 78.5105L181.897 86.7535H180.693V75.5935H182.165V84.4074L181.908 84.1275L185.947 75.5935H187.128V86.7535H185.657V86.7535Z" fill="white"/>
<path d="M190.84 86.49C190.335 86.1991 189.948 85.7759 189.679 85.2205C189.411 84.6651 189.277 83.9951 189.277 83.2138V79.3391C189.277 78.5071 189.408 77.7963 189.668 77.2078C189.93 76.6193 190.307 76.1708 190.801 75.8623C191.295 75.5537 191.89 75.3994 192.584 75.3994C193.279 75.3994 193.897 75.5416 194.395 75.8248C194.892 76.108 195.272 76.5224 195.534 77.0679C195.795 77.6133 195.925 78.2701 195.925 79.0371V81.8142H190.221V80.3717H194.377V79.0801C194.377 78.3693 194.22 77.8194 193.904 77.4282C193.589 77.037 193.149 76.8419 192.583 76.8419C192.018 76.8419 191.591 77.048 191.283 77.4613C190.975 77.8734 190.821 78.4608 190.821 79.2212V83.2567C190.821 83.9598 190.982 84.5064 191.304 84.8976C191.626 85.2888 192.081 85.4839 192.668 85.4839C193.219 85.4839 193.647 85.3296 193.952 85.021C194.256 84.7125 194.408 84.275 194.408 83.7086V83.6435H195.955V83.7086C195.955 84.7345 195.669 85.5269 195.096 86.0867C194.523 86.6465 193.713 86.9264 192.668 86.9264C191.952 86.9264 191.341 86.7809 190.837 86.49H190.84Z" fill="white"/>
<path d="M66.2527 58.3073C66.2527 58.1839 66.2527 58.0869 66.2527 57.99C66.2527 56.9927 66.2527 55.9942 66.2527 54.9969C66.2527 54.566 66.3693 54.4492 66.8005 54.4492C72.6569 54.4492 78.5122 54.4492 84.3686 54.4492C84.7866 54.4492 84.9076 54.5649 84.9076 54.9782C84.9076 61.944 84.9076 68.9087 84.9076 75.8744C84.9076 76.2745 84.7877 76.3913 84.3873 76.3924C83.493 76.3946 82.5976 76.3924 81.6736 76.3924C81.6681 76.5059 81.6582 76.6007 81.6582 76.6965C81.6582 77.6939 81.6582 78.6923 81.6582 79.6896C81.6582 80.1348 81.5438 80.2472 81.0917 80.2472C75.254 80.2472 69.4152 80.2472 63.5775 80.2472C63.1067 80.2472 63 80.1425 63 79.6742C63 72.7359 63 65.7977 63 58.8606C63 58.4087 63.1056 58.3073 63.5643 58.3073C64.3519 58.3073 65.1395 58.3073 65.9271 58.3073C66.0239 58.3073 66.1218 58.3073 66.2527 58.3073V58.3073ZM63.7755 79.4703H80.8783V59.0865H63.7755V79.4703ZM67.0282 58.3073H67.3824C71.1741 58.3073 74.9669 58.3073 78.7586 58.3073C79.5737 58.3073 80.3877 58.3051 81.2028 58.3084C81.5152 58.3095 81.6439 58.4407 81.6571 58.7537C81.6604 58.8352 81.6571 58.9168 81.6571 58.9983C81.6571 64.4213 81.6571 69.8443 81.6571 75.2672V75.6122H84.1288V55.225H67.0271V58.3073H67.0282Z" fill="white"/>
<path d="M72.3005 65.7348C70.3106 65.7348 68.3207 65.7348 66.3308 65.7348C66.2406 65.7348 66.1493 65.737 66.0602 65.7281C65.8358 65.7072 65.7104 65.5739 65.7082 65.3557C65.706 65.1485 65.8292 65.0195 66.036 64.9854C66.124 64.9711 66.2164 64.9733 66.3066 64.9733C70.3227 64.9733 74.3388 64.9733 78.3549 64.9733C78.3824 64.9733 78.4088 64.9733 78.4363 64.9733C78.7773 64.9777 78.9533 65.1099 78.9533 65.3579C78.9533 65.6069 78.7828 65.7348 78.4352 65.7348C76.3914 65.7348 74.3465 65.7348 72.3027 65.7348H72.3005Z" fill="white"/>
<path d="M72.3302 67.6942C70.3315 67.6942 68.3317 67.6942 66.333 67.6942C66.2428 67.6942 66.1515 67.6964 66.0624 67.6886C65.838 67.6688 65.7115 67.5355 65.7082 67.3173C65.7049 67.1101 65.8281 66.9801 66.0338 66.9448C66.1218 66.9294 66.2142 66.9327 66.3044 66.9327C70.3205 66.9327 74.3366 66.9327 78.3527 66.9327C78.3703 66.9327 78.389 66.9327 78.4066 66.9327C78.7718 66.936 78.9522 67.0616 78.9533 67.3151C78.9544 67.5707 78.7817 67.6942 78.4099 67.6942C76.3837 67.6942 74.3575 67.6942 72.3313 67.6942H72.3302Z" fill="white"/>
<path d="M72.3082 69.6537C70.3271 69.6537 68.346 69.6537 66.3649 69.6537C66.2747 69.6537 66.1834 69.6537 66.0932 69.6504C65.8578 69.6405 65.7126 69.5148 65.7071 69.2812C65.7016 69.0454 65.8512 68.9208 66.08 68.8955C66.1515 68.8878 66.2241 68.8911 66.2967 68.8911C70.3216 68.8911 74.3476 68.8911 78.3725 68.8911C78.4715 68.8911 78.5738 68.8911 78.6684 68.9153C78.8598 68.9627 78.9588 69.0994 78.9478 69.2944C78.9368 69.4884 78.8268 69.614 78.6288 69.6416C78.5309 69.6548 78.4308 69.6515 78.3307 69.6515C76.3221 69.6515 74.3146 69.6515 72.306 69.6515L72.3082 69.6537Z" fill="white"/>
<path d="M72.3203 71.6129C70.3216 71.6129 68.3218 71.6129 66.3231 71.6129C66.2153 71.6129 66.08 71.6427 66.0041 71.5909C65.8831 71.5082 65.7302 71.3727 65.7236 71.2525C65.7181 71.1324 65.8567 70.9815 65.97 70.8889C66.0393 70.8327 66.1779 70.8525 66.2857 70.8525C70.3106 70.8514 74.3366 70.8514 78.3615 70.8514C78.3791 70.8514 78.3978 70.8514 78.4154 70.8514C78.774 70.8547 78.9577 70.9881 78.9522 71.2437C78.9467 71.4917 78.7784 71.6129 78.4264 71.6129C76.3914 71.6129 74.3564 71.6129 72.3203 71.6129V71.6129Z" fill="white"/>
<path d="M72.3313 73.5724C70.3326 73.5724 68.3328 73.5724 66.3341 73.5724C66.2439 73.5724 66.1526 73.5746 66.0635 73.5669C65.8391 73.5481 65.7115 73.4159 65.7071 73.1977C65.7027 72.9905 65.8248 72.8594 66.0305 72.8241C66.1185 72.8087 66.2109 72.8109 66.3011 72.8109C70.3172 72.8109 74.3333 72.8109 78.3494 72.8109C78.7652 72.8109 78.9489 72.9277 78.9511 73.1922C78.9533 73.4589 78.7762 73.5735 78.3549 73.5735C76.3463 73.5735 74.3388 73.5735 72.3302 73.5735L72.3313 73.5724Z" fill="white"/>
<path d="M72.3203 75.5316C70.3216 75.5316 68.3218 75.5316 66.3231 75.5316C66.2153 75.5316 66.08 75.5614 66.0041 75.5096C65.8831 75.4269 65.7302 75.2914 65.7247 75.1712C65.7192 75.0511 65.8589 74.9002 65.9711 74.8076C66.0404 74.7514 66.179 74.7712 66.2868 74.7712C70.3117 74.7701 74.3377 74.7701 78.3626 74.7701C78.3802 74.7701 78.3989 74.7701 78.4165 74.7701C78.7751 74.7734 78.9588 74.9079 78.9522 75.1624C78.9467 75.4104 78.7784 75.5305 78.4253 75.5316C76.3903 75.5316 74.3553 75.5316 72.3192 75.5316H72.3203Z" fill="white"/>
<path d="M72.3379 77.4912C71.107 77.4912 69.8761 77.4912 68.6463 77.4912C68.5473 77.4912 68.4461 77.4945 68.3482 77.4779C68.1513 77.4438 68.0215 77.2994 68.0534 77.1187C68.0776 76.9853 68.2085 76.8553 68.3229 76.7627C68.3867 76.7109 68.5143 76.7308 68.6133 76.7308C71.0927 76.7297 73.5721 76.7297 76.0515 76.7308C76.1593 76.7308 76.2957 76.7154 76.3661 76.7727C76.4728 76.8597 76.6059 77.0107 76.5949 77.122C76.5817 77.2476 76.4387 77.3799 76.321 77.468C76.2561 77.5176 76.1285 77.4901 76.0295 77.4901C74.7986 77.4901 73.5677 77.4901 72.3379 77.4901V77.4912Z" fill="white"/>
<path d="M76.2671 61.8161C75.5345 61.8161 74.803 61.8183 74.0704 61.8161C73.7492 61.815 73.5787 61.6806 73.5776 61.4415C73.5765 61.2023 73.7514 61.0568 74.0671 61.0568C75.5411 61.0546 77.014 61.0502 78.488 61.0646C78.6277 61.0657 78.8015 61.1593 78.8917 61.2673C78.9533 61.3412 78.9478 61.5627 78.8818 61.6321C78.785 61.7346 78.609 61.8062 78.4649 61.8095C77.7334 61.8272 77.0008 61.8172 76.2682 61.8172L76.2671 61.8161Z" fill="white"/>
</g>
<defs>
<clipPath id="clip0_53_714">
<rect width="264" height="88.1606" fill="white"/>
</clipPath>
</defs>
</svg>
