<svg width="264" height="88" viewBox="0 0 264 88" fill="none" xmlns="http://www.w3.org/2000/svg">
<path d="M103.786 59.255V57.1628H113.642V59.255H109.968V69.1627H107.46V59.255H103.786Z" fill="white"/>
<path d="M115.27 69.1637V57.1638H120.004C120.914 57.1638 121.689 57.3365 122.331 57.6819C122.971 58.0273 123.46 58.5058 123.798 59.1174C124.136 59.729 124.305 60.433 124.305 61.2294C124.305 62.0258 124.133 62.7298 123.789 63.3392C123.446 63.9486 122.949 64.4227 122.298 64.7626C121.647 65.1025 120.861 65.2719 119.939 65.2719H116.922V63.2391H119.53C120.018 63.2391 120.421 63.1544 120.74 62.9839C121.058 62.8145 121.297 62.578 121.455 62.2744C121.613 61.9719 121.693 61.6232 121.693 61.2283C121.693 60.8334 121.613 60.4814 121.455 60.1822C121.297 59.883 121.057 59.6509 120.737 59.4848C120.417 59.3187 120.01 59.2362 119.518 59.2362H117.807V69.1615H115.271L115.27 69.1637Z" fill="white"/>
<path d="M127.252 69.3277V67.2652H127.902C128.227 67.2652 128.488 67.2256 128.687 67.1453C128.887 67.065 129.046 66.9462 129.165 66.7878C129.284 66.6294 129.385 66.4314 129.466 66.1927L129.613 65.8L125.253 57.1628H127.878L130.702 63.0687L133.063 57.1628H135.653L131.516 66.8076C131.316 67.2531 131.081 67.6667 130.809 68.0495C130.538 68.4323 130.191 68.7414 129.769 68.9757C129.346 69.21 128.807 69.3277 128.152 69.3277H127.25H127.252Z" fill="white"/>
<path d="M136.381 72.0579V67.142H137.195C137.472 66.9429 137.726 66.6602 137.956 66.295C138.187 65.9298 138.384 65.4238 138.548 64.777C138.712 64.1302 138.829 63.2843 138.9 62.2371L139.24 57.1628H147.18V67.1409H148.492V72.0447H146.054V69.1616H138.817V72.0557H136.38L136.381 72.0579ZM140.125 67.142H144.742V59.255H141.526L141.339 62.2371C141.288 63.0302 141.204 63.7331 141.09 64.3469C140.974 64.9607 140.836 65.4964 140.674 65.9551C140.512 66.4138 140.33 66.8098 140.126 67.142H140.125Z" fill="white"/>
<path d="M161.06 63.1633C161.06 64.4723 160.813 65.5855 160.319 66.5029C159.825 67.4214 159.153 68.121 158.304 68.6039C157.455 69.0868 156.5 69.3277 155.442 69.3277C154.383 69.3277 153.419 69.0857 152.571 68.6017C151.723 68.1177 151.054 67.4159 150.561 66.4985C150.069 65.5811 149.823 64.469 149.823 63.1644C149.823 61.8598 150.069 60.7422 150.561 59.8248C151.053 58.9074 151.723 58.2067 152.571 57.7238C153.419 57.2409 154.376 57 155.442 57C156.508 57 157.455 57.2409 158.304 57.7238C159.153 58.2067 159.825 58.9063 160.319 59.8248C160.813 60.7433 161.06 61.8565 161.06 63.1644V63.1633ZM158.489 63.1633C158.489 62.3152 158.362 61.6013 158.11 61.0183C157.858 60.4364 157.504 59.9953 157.047 59.6939C156.589 59.3936 156.054 59.2429 155.441 59.2429C154.827 59.2429 154.292 59.3936 153.835 59.6939C153.378 59.9942 153.023 60.4364 152.771 61.0183C152.519 61.6002 152.392 62.3152 152.392 63.1633C152.392 64.0114 152.519 64.7253 152.771 65.3083C153.023 65.8902 153.377 66.3313 153.835 66.6327C154.292 66.933 154.827 67.0837 155.441 67.0837C156.054 67.0837 156.589 66.933 157.047 66.6327C157.503 66.3324 157.858 65.8902 158.11 65.3083C158.362 64.7264 158.489 64.0114 158.489 63.1633Z" fill="white"/>
<path d="M162.936 69.1637V57.1638H167.741C168.624 57.1638 169.36 57.2947 169.95 57.5565C170.539 57.8183 170.982 58.1802 171.279 58.6433C171.576 59.1064 171.725 59.6388 171.725 60.2405C171.725 60.7091 171.631 61.1205 171.443 61.4736C171.256 61.8267 170.999 62.116 170.673 62.3404C170.348 62.5648 169.975 62.7243 169.557 62.8178V62.9344C170.014 62.9542 170.442 63.0829 170.843 63.3216C171.243 63.5603 171.569 63.8925 171.818 64.3204C172.068 64.7483 172.194 65.2565 172.194 65.8472C172.194 66.4841 172.036 67.0517 171.722 67.5489C171.407 68.0472 170.943 68.441 170.33 68.7292C169.717 69.0185 168.961 69.1626 168.063 69.1626H162.936V69.1637ZM165.473 62.1853H167.354C167.701 62.1853 168.01 62.1237 168.282 62.0005C168.554 61.8773 168.768 61.7024 168.927 61.4758C169.085 61.2492 169.164 60.9775 169.164 60.6618C169.164 60.2284 169.011 59.8786 168.704 59.6135C168.397 59.3484 167.963 59.2153 167.401 59.2153H165.473V62.1864V62.1853ZM165.473 67.0891H167.541C168.248 67.0891 168.763 66.9538 169.087 66.6821C169.412 66.4104 169.573 66.0485 169.573 65.5953C169.573 65.2631 169.493 64.9705 169.334 64.7164C169.173 64.4623 168.945 64.2632 168.65 64.1191C168.356 63.975 168.005 63.9024 167.599 63.9024H165.471V67.0902L165.473 67.0891Z" fill="white"/>
<path d="M175.51 61.599H178.369C179.322 61.599 180.143 61.7519 180.833 62.0588C181.523 62.3657 182.055 62.798 182.43 63.3568C182.805 63.9156 182.991 64.5734 182.987 65.3313C182.991 66.0848 182.805 66.7503 182.43 67.3267C182.055 67.9031 181.523 68.353 180.833 68.6775C180.143 69.002 179.323 69.1637 178.369 69.1637H173.886V57.1638H176.418V67.1243H178.369C178.825 67.1243 179.21 67.0418 179.523 66.8757C179.835 66.7096 180.073 66.4885 180.235 66.2135C180.396 65.9385 180.475 65.636 180.472 65.3082C180.477 64.8319 180.297 64.4282 179.936 64.0982C179.575 63.7682 179.052 63.6032 178.369 63.6032H175.51V61.599V61.599ZM186.497 57.1638V69.1637H183.966V57.1638H186.497Z" fill="white"/>
<path d="M188.588 69.1637V57.1638H196.674V59.256H191.125V62.1149H196.257V64.2071H191.125V67.0726H196.697V69.1648H188.588V69.1637Z" fill="white"/>
<path d="M103.436 83.148H111.611V84.8343H103.436V83.148V83.148ZM103.436 83.148H105.23V87.6382H103.436V83.148V83.148ZM103.747 83.148H104.005C104.248 83.148 104.458 83.0501 104.633 82.8521C104.809 82.6552 104.943 82.367 105.035 81.9875C105.129 81.608 105.175 81.1493 105.175 80.6125V73.6836H106.958V80.9128C106.958 82.0876 106.722 82.9687 106.249 83.555C105.776 84.1424 105.099 84.4361 104.218 84.4361H103.745V83.1469L103.747 83.148ZM106.379 73.6836H110.096V75.3699H106.379V73.6836V73.6836ZM109.441 73.6836H111.246V84.8343H109.441V73.6836ZM111.009 83.148H112.803V87.6382H111.009V83.148V83.148Z" fill="white"/>
<path d="M115.3 84.5605C114.796 84.2701 114.408 83.8477 114.14 83.2933C113.872 82.7389 113.737 82.0701 113.737 81.2902V77.4127C113.737 76.5888 113.868 75.8837 114.129 75.2963C114.391 74.7089 114.768 74.2612 115.262 73.9532C115.756 73.6452 116.351 73.4912 117.045 73.4912C117.739 73.4912 118.357 73.6331 118.856 73.9158C119.354 74.1985 119.732 74.611 119.994 75.1511C120.256 75.6923 120.386 76.349 120.386 77.1223V79.9691H114.929V78.4115H118.635V77.1652C118.635 76.5206 118.497 76.0212 118.221 75.667C117.945 75.3128 117.553 75.1357 117.045 75.1357C116.537 75.1357 116.168 75.3238 115.896 75.7C115.623 76.0762 115.487 76.6075 115.487 77.295V81.3452C115.487 81.9678 115.63 82.454 115.918 82.8005C116.204 83.1481 116.608 83.3219 117.132 83.3219C117.619 83.3219 117.999 83.1877 118.27 82.9193C118.542 82.6509 118.675 82.2736 118.668 81.7863V81.7115L120.419 81.7225V81.7874C120.419 82.8115 120.133 83.6024 119.56 84.1612C118.987 84.72 118.178 84.9994 117.132 84.9994C116.416 84.9994 115.805 84.8542 115.3 84.5638V84.5605Z" fill="white"/>
<path d="M121.279 83.2767C121.595 83.2767 121.832 83.1766 121.993 82.9764C122.153 82.7762 122.235 82.4858 122.235 82.1063V73.6847H124.029V82.246C124.029 82.8334 123.934 83.3251 123.744 83.7233C123.554 84.1215 123.268 84.4218 122.885 84.6253C122.502 84.8288 122.038 84.9311 121.493 84.9311H121.279V83.2767V83.2767ZM123.599 73.6836H127.327V75.3699H123.599V73.6836ZM126.563 73.6836H128.357V84.8343H126.563V73.6836Z" fill="white"/>
<path d="M131.269 84.2162C130.796 83.697 130.56 82.9149 130.56 81.8688C130.56 80.6159 130.846 79.6787 131.419 79.0594C131.992 78.4401 132.851 78.1299 133.997 78.1299H135.715L135.866 79.6017H134.008C133.421 79.6017 132.981 79.7898 132.687 80.166C132.393 80.5422 132.247 81.1098 132.247 81.8688C132.247 82.4276 132.378 82.8412 132.639 83.1096C132.899 83.378 133.295 83.5122 133.826 83.5122C134.427 83.5122 134.876 83.3516 135.174 83.0293C135.472 82.707 135.62 82.2197 135.62 81.5685L135.845 82.5464C135.839 83.0909 135.743 83.5452 135.56 83.9104C135.378 84.2756 135.107 84.5484 134.75 84.7266C134.391 84.9059 133.94 84.995 133.397 84.995C132.452 84.995 131.742 84.7354 131.269 84.2162V84.2162ZM135.62 76.6702C135.62 76.1477 135.477 75.7429 135.19 75.4558C134.904 75.1698 134.499 75.0257 133.975 75.0257C133.516 75.0257 133.159 75.1687 132.9 75.4558C132.643 75.7418 132.518 76.151 132.524 76.6801L130.784 76.6691C130.784 75.6593 131.067 74.8772 131.632 74.3217C132.198 73.7673 132.996 73.489 134.028 73.489C134.722 73.489 135.317 73.6144 135.811 73.8652C136.305 74.116 136.681 74.4779 136.939 74.9498C137.196 75.4217 137.326 75.9959 137.326 76.668V84.8322H135.617V76.668L135.62 76.6702Z" fill="white"/>
<path d="M79.9288 60.8666C79.9244 60.2847 79.9156 59.7083 79.9398 59.1341C79.953 58.8195 80.2291 58.6369 80.5844 58.6314C81.1212 58.6237 81.658 58.6292 82.1959 58.6292C83.7964 58.6292 85.398 58.6292 86.9985 58.6292C87.6695 58.6292 87.8565 58.8195 87.8565 59.5026C87.8565 59.9569 87.8554 60.4123 87.8543 60.8666H89.1754C89.1776 60.3177 89.1831 59.7974 89.1721 59.2771C89.1479 58.1925 88.2943 57.3213 87.2119 57.3136C84.9987 57.2982 82.7866 57.2982 80.5734 57.3136C79.4756 57.3202 78.622 58.1947 78.6 59.2969C78.589 59.8205 78.5978 60.3441 78.5967 60.8677H79.9299L79.9288 60.8666Z" fill="white"/>
<path d="M99.7354 65.5207C99.28 63.588 98.1525 62.6959 96.1615 62.6959C93.9593 62.6959 91.756 62.6959 89.5538 62.6959H89.1743V62.6904H78.578C78.578 62.6904 78.578 62.6937 78.578 62.6959H78.1688C75.9556 62.6959 73.7435 62.6948 71.5303 62.6981C71.2729 62.6981 71.01 62.6981 70.7581 62.7421C69.1235 63.0292 68.0147 64.3371 68.0059 66.0069C67.9949 68.4412 68.0026 70.8766 68.0026 73.3109C68.0026 76.139 68.0048 78.9682 68.0004 81.7963C68.0004 82.431 68.1148 83.0349 68.4404 83.5816C69.1224 84.7256 70.1509 85.2349 71.4665 85.2338C79.7495 85.2294 88.0325 85.2316 96.3144 85.2316C96.4178 85.2316 96.5212 85.2283 96.6246 85.2239C97.9897 85.17 99.148 84.3054 99.5858 83.0074C99.6573 82.794 99.709 82.574 99.7695 82.3562V65.5713C99.7574 65.5548 99.7387 65.5394 99.7343 65.5218L99.7354 65.5207ZM98.4517 69.8514C98.4517 73.7993 98.4517 77.7461 98.4517 81.694C98.4517 83.0591 97.6069 83.9105 96.2539 83.9105C88.0127 83.9105 79.7704 83.9105 71.5292 83.9105C70.1718 83.9105 69.3215 83.0624 69.3215 81.7039C69.3215 77.8077 69.3215 73.9126 69.3215 70.0164V69.6567C69.4546 69.6963 69.558 69.7216 69.6581 69.7568C74.2 71.3408 78.743 72.9226 83.2816 74.5165C83.638 74.6419 83.9064 74.577 84.2474 74.4329C85.0537 74.0908 85.8974 73.8389 86.7257 73.5507C90.5372 72.2219 94.3487 70.8931 98.1602 69.5654C98.2372 69.539 98.3153 69.517 98.4517 69.4763V69.8514V69.8514ZM98.1448 68.2498C94.2321 69.6292 90.3216 71.0196 86.4122 72.4067C85.6532 72.6762 84.8975 72.9534 84.1341 73.2086C83.9911 73.2559 83.8041 73.2625 83.6644 73.213C78.9729 71.5586 74.2847 69.8943 69.5932 68.2388C69.3787 68.1629 69.3116 68.0573 69.3182 67.8373C69.3336 67.2675 69.3193 66.6977 69.3237 66.1279C69.3336 64.8904 70.2059 64.0192 71.439 64.0181C75.5849 64.0159 79.7308 64.0181 83.8767 64.0181C88.0226 64.0181 92.1267 64.0181 96.2517 64.0181C97.608 64.0181 98.4506 64.8651 98.4528 66.2291C98.4528 66.7571 98.4374 67.2862 98.4594 67.8142C98.4704 68.0705 98.378 68.1684 98.1448 68.2509V68.2498Z" fill="white"/>
</svg>
