<svg width="264" height="88" viewBox="0 0 264 88" fill="none" xmlns="http://www.w3.org/2000/svg">
<path d="M65.4231 57.166H67.9542V64.7131H68.0543L73.2397 57.166H75.4606V69.1659H72.924V61.6133H72.836L67.6209 69.1659H65.4231V57.166V57.166Z" fill="white"/>
<path d="M88.1403 61.367H85.574C85.5267 61.0348 85.431 60.7389 85.2869 60.4793C85.1428 60.2197 84.9569 59.9975 84.7303 59.8138C84.5037 59.6301 84.243 59.4893 83.9482 59.3914C83.6534 59.2935 83.3344 59.2451 82.9901 59.2451C82.3686 59.2451 81.8285 59.398 81.3676 59.7049C80.9067 60.0118 80.5492 60.4573 80.2951 61.0403C80.041 61.6244 79.9145 62.3328 79.9145 63.1644C79.9145 63.996 80.0421 64.7385 80.2984 65.3204C80.5547 65.9023 80.9122 66.3423 81.3731 66.6393C81.834 66.9363 82.3675 67.0848 82.9725 67.0848C83.3124 67.0848 83.6281 67.0397 83.9185 66.9495C84.2089 66.8593 84.4685 66.7273 84.6951 66.5535C84.9217 66.3797 85.1098 66.1674 85.2605 65.9177C85.4112 65.668 85.5157 65.3831 85.574 65.0619L88.1403 65.074C88.0743 65.6251 87.9093 66.1553 87.6453 66.6646C87.3813 67.1739 87.0282 67.6293 86.5849 68.0297C86.1416 68.4301 85.6136 68.7469 85.0031 68.979C84.3915 69.2111 83.7018 69.3277 82.9318 69.3277C81.8615 69.3277 80.9056 69.0857 80.0641 68.6017C79.2226 68.1177 78.5582 67.4159 78.072 66.4985C77.5858 65.5811 77.3427 64.469 77.3427 63.1644C77.3427 61.8598 77.5891 60.7422 78.0808 59.8248C78.5725 58.9074 79.2413 58.2067 80.085 57.7238C80.9287 57.2409 81.878 57 82.9329 57C83.6281 57 84.2738 57.0979 84.8689 57.2926C85.4651 57.4884 85.9931 57.7722 86.454 58.1451C86.9149 58.518 87.2911 58.9745 87.5815 59.5135C87.8719 60.0525 88.0589 60.6696 88.1414 61.3648L88.1403 61.367Z" fill="white"/>
<path d="M100.163 57.166V69.1659H97.6553V59.2285H92.8043V69.1659H90.2963V57.166H100.163V57.166Z" fill="white"/>
<path d="M113.611 63.1655C113.611 64.4745 113.363 65.5877 112.869 66.5051C112.375 67.4236 111.703 68.1232 110.854 68.6061C110.005 69.089 109.05 69.3299 107.992 69.3299C106.934 69.3299 105.968 69.0879 105.121 68.6039C104.273 68.1199 103.603 67.4181 103.111 66.5007C102.62 65.5833 102.373 64.4712 102.373 63.1666C102.373 61.862 102.62 60.7444 103.111 59.827C103.603 58.9096 104.273 58.2089 105.121 57.726C105.969 57.2431 106.926 57.0022 107.992 57.0022C109.058 57.0022 110.005 57.2431 110.854 57.726C111.703 58.2089 112.375 58.9085 112.869 59.827C113.363 60.7455 113.611 61.8587 113.611 63.1666V63.1655ZM111.039 63.1655C111.039 62.3174 110.912 61.6035 110.661 61.0205C110.409 60.4386 110.054 59.9975 109.597 59.6961C109.139 59.3958 108.605 59.2451 107.992 59.2451C107.379 59.2451 106.844 59.3958 106.386 59.6961C105.929 59.9964 105.574 60.4386 105.322 61.0205C105.07 61.6024 104.944 62.3174 104.944 63.1655C104.944 64.0136 105.07 64.7275 105.322 65.3105C105.574 65.8924 105.928 66.3335 106.386 66.6349C106.844 66.9352 107.378 67.0859 107.992 67.0859C108.606 67.0859 109.14 66.9352 109.597 66.6349C110.054 66.3346 110.409 65.8924 110.661 65.3105C110.912 64.7286 111.039 64.0136 111.039 63.1655Z" fill="white"/>
<path d="M114.835 69.166V67.1266L115.175 67.0969C115.613 67.0617 115.966 66.8945 116.235 66.5964C116.505 66.2972 116.707 65.8187 116.841 65.1609C116.977 64.5031 117.064 63.6165 117.102 62.5033L117.301 57.165H125.446V69.1649H122.979V59.1978H119.657L119.47 63.3756C119.408 64.7198 119.248 65.8165 118.993 66.669C118.737 67.5204 118.331 68.1496 117.774 68.5555C117.218 68.9614 116.456 69.1649 115.492 69.1649H114.835V69.166Z" fill="white"/>
<path d="M127.532 69.1659V57.166H130.069V62.1171H135.219V57.166H137.75V69.1659H135.219V64.2093H130.069V69.1659H127.532Z" fill="white"/>
<path d="M139.842 57.166H142.374V64.7131H142.474L147.659 57.166H149.88V69.1659H147.343V61.6133H147.255L142.04 69.1659H139.842V57.166V57.166Z" fill="white"/>
<path d="M151.515 59.2572V57.165H161.369V59.2572H157.695V69.1649H155.187V59.2572H151.513H151.515Z" fill="white"/>
<path d="M162.999 69.1659V57.166H171.085V59.2582H165.536V62.1171H170.669V64.2093H165.536V67.0748H171.109V69.167H163L162.999 69.1659Z" fill="white"/>
<path d="M172.456 69.166V67.1266L172.796 67.0969C173.234 67.0617 173.587 66.8945 173.857 66.5964C174.126 66.2972 174.329 65.8187 174.463 65.1609C174.598 64.5031 174.685 63.6165 174.723 62.5033L174.923 57.165H183.067V69.1649H180.601V59.1978H177.279L177.092 63.3756C177.029 64.7198 176.87 65.8165 176.614 66.669C176.358 67.5204 175.952 68.1496 175.396 68.5555C174.839 68.9614 174.078 69.1649 173.113 69.1649H172.456V69.166Z" fill="white"/>
<path d="M186.823 61.6012H189.682C190.635 61.6012 191.457 61.7541 192.146 62.061C192.836 62.3679 193.368 62.8002 193.744 63.359C194.119 63.9178 194.303 64.5756 194.3 65.3335C194.303 66.087 194.119 66.7525 193.744 67.3289C193.368 67.9053 192.836 68.3552 192.146 68.6797C191.457 69.0042 190.636 69.1659 189.682 69.1659H185.2V57.166H187.731V67.1265H189.682C190.139 67.1265 190.524 67.044 190.836 66.8779C191.149 66.7118 191.386 66.4907 191.548 66.2157C191.71 65.9407 191.789 65.6382 191.786 65.3104C191.789 64.8341 191.611 64.4304 191.25 64.1004C190.888 63.7704 190.365 63.6054 189.682 63.6054H186.823V61.6012V61.6012Z" fill="white"/>
<path d="M196.326 69.1659V57.166H198.863V62.1171H204.013V57.166H206.544V69.1659H204.013V64.2093H198.863V69.1659H196.326Z" fill="white"/>
<path d="M219.665 63.1655C219.665 64.4745 219.418 65.5877 218.924 66.5051C218.43 67.4236 217.758 68.1232 216.908 68.6061C216.059 69.089 215.104 69.3299 214.046 69.3299C212.988 69.3299 212.022 69.0879 211.175 68.6039C210.327 68.1199 209.657 67.4181 209.166 66.5007C208.674 65.5833 208.427 64.4712 208.427 63.1666C208.427 61.862 208.674 60.7444 209.166 59.827C209.657 58.9096 210.327 58.2089 211.175 57.726C212.023 57.2431 212.98 57.0022 214.046 57.0022C215.112 57.0022 216.059 57.2431 216.908 57.726C217.758 58.2089 218.43 58.9085 218.924 59.827C219.418 60.7455 219.665 61.8587 219.665 63.1666V63.1655ZM217.093 63.1655C217.093 62.3174 216.967 61.6035 216.715 61.0205C216.463 60.4386 216.109 59.9975 215.651 59.6961C215.194 59.3958 214.659 59.2451 214.046 59.2451C213.434 59.2451 212.898 59.3958 212.44 59.6961C211.984 59.9964 211.628 60.4386 211.377 61.0205C211.125 61.6024 210.998 62.3174 210.998 63.1655C210.998 64.0136 211.125 64.7275 211.377 65.3105C211.628 65.8924 211.983 66.3335 212.44 66.6349C212.898 66.9352 213.432 67.0859 214.046 67.0859C214.66 67.0859 215.195 66.9352 215.651 66.6349C216.109 66.3346 216.463 65.8924 216.715 65.3105C216.967 64.7286 217.093 64.0136 217.093 63.1655Z" fill="white"/>
<path d="M221.539 69.1659V57.166H229.626V59.2582H224.077V62.1171H229.21V64.2093H224.077V67.0748H229.65V69.167H221.541L221.539 69.1659Z" fill="white"/>
<path d="M65.6178 72.2556H67.1644V83.4063H65.6178V72.2556ZM66.8322 72.2556H71.1508V73.6955H66.8322V72.2556ZM70.4842 72.2556H72.0308V83.4063H70.4842V72.2556Z" fill="white"/>
<path d="M74.3947 72.2557H75.9413V87.9395H74.3947V72.2557V72.2557ZM76.7091 83.0566C76.2471 82.7167 75.9413 82.2492 75.7906 81.6552L75.9413 79.9689C75.9413 80.4485 76.0106 80.8566 76.1503 81.1932C76.29 81.5298 76.4957 81.7872 76.7685 81.9665C77.0402 82.1458 77.3669 82.2349 77.7464 82.2349C78.3338 82.2349 78.7903 82.0325 79.1159 81.6277C79.4415 81.2229 79.6043 80.6553 79.6043 79.9249V75.6492C79.6043 74.9331 79.4415 74.3776 79.1159 73.9838C78.7903 73.59 78.3338 73.3931 77.7464 73.3931C77.3669 73.3931 77.0413 73.4789 76.7685 73.6505C76.4968 73.8221 76.29 74.0751 76.1503 74.4073C76.0106 74.7395 75.9413 75.1399 75.9413 75.6052L75.7158 74.1015C75.938 73.4646 76.2977 72.9652 76.7949 72.6033C77.2921 72.2414 77.8355 72.061 78.4218 72.061C79.0081 72.061 79.4712 72.2007 79.8716 72.4801C80.2731 72.7595 80.5767 73.1654 80.7846 73.6989C80.9925 74.2324 81.0959 74.8792 81.0959 75.6382V79.9238C81.0959 80.6905 80.987 81.3472 80.7681 81.895C80.5492 82.4428 80.2324 82.8586 79.8177 83.1413C79.4019 83.424 78.9014 83.5659 78.314 83.5659C77.7266 83.5659 77.17 83.3954 76.708 83.0555L76.7091 83.0566Z" fill="white"/>
<path d="M84.5026 83.1864C84.023 82.9323 83.6578 82.5616 83.407 82.0743C83.1562 81.587 83.0308 81.004 83.0308 80.3231V75.2532C83.0308 74.58 83.1562 74.0058 83.407 73.5295C83.6578 73.0532 84.023 72.6902 84.5026 72.4394C84.9822 72.1886 85.5586 72.0632 86.2318 72.0632C86.905 72.0632 87.4814 72.1886 87.961 72.4394C88.4406 72.6902 88.8058 73.0532 89.0566 73.5295C89.3074 74.0058 89.4328 74.5811 89.4328 75.2532V80.3561C89.4328 81.0293 89.3074 81.6079 89.0566 82.0908C88.8058 82.5737 88.4406 82.9411 87.961 83.1919C87.4814 83.4427 86.905 83.5681 86.2318 83.5681C85.5586 83.5681 84.9822 83.4405 84.5026 83.1864V83.1864ZM87.4517 81.6662C87.7421 81.3582 87.8873 80.9215 87.8873 80.3561V75.2532C87.8873 74.7021 87.741 74.272 87.4473 73.964C87.1536 73.656 86.7455 73.502 86.223 73.502C85.7005 73.502 85.2957 73.656 85.0086 73.964C84.7226 74.272 84.5785 74.7021 84.5785 75.2532V80.3561C84.5785 80.9215 84.7215 81.3593 85.0086 81.6662C85.2946 81.9742 85.6994 82.1282 86.223 82.1282C86.7466 82.1282 87.1624 81.9742 87.4528 81.6662H87.4517Z" fill="white"/>
<path d="M96.5454 83.3953V74.8879L96.8028 75.1673L92.7856 83.3953H91.5822V72.2556H93.054V81.0534L92.7966 80.774L96.8358 72.2556H98.0172V83.3953H96.5454V83.3953Z" fill="white"/>
<path d="M101.036 83.224C100.577 82.9952 100.228 82.6619 99.9884 82.2252C99.7486 81.7885 99.6287 81.2616 99.6287 80.6456V80.1517H101.069V80.5389C101.069 81.0614 101.21 81.4662 101.493 81.7533C101.776 82.0393 102.175 82.1834 102.691 82.1834C103.207 82.1834 103.595 82.0459 103.878 81.7698C104.161 81.4937 104.303 81.1054 104.303 80.6038V79.3036C104.303 78.9384 104.168 78.6557 103.9 78.4555C103.632 78.2553 103.25 78.1552 102.756 78.1552H101.768V76.888H102.756C103.164 76.888 103.481 76.8055 103.706 76.6405C103.932 76.4755 104.045 76.2434 104.045 75.942V74.7606C104.045 74.3459 103.914 74.0236 103.654 73.7937C103.392 73.5649 103.025 73.4505 102.552 73.4505C102.079 73.4505 101.714 73.5649 101.457 73.7937C101.199 74.0225 101.07 74.3492 101.07 74.7716V75.2655H99.6298V74.7716C99.6298 73.9125 99.8839 73.2459 100.392 72.774C100.9 72.301 101.621 72.0645 102.551 72.0645C103.482 72.0645 104.204 72.301 104.716 72.774C105.228 73.247 105.484 73.9169 105.484 74.7826V75.8573C105.484 76.2082 105.405 76.5184 105.247 76.7868C105.09 77.0552 104.86 77.2862 104.56 77.4798C104.932 77.5733 105.222 77.779 105.43 78.098C105.638 78.417 105.741 78.8196 105.741 79.3069V80.617C105.741 81.5553 105.476 82.2824 104.946 82.7972C104.416 83.3131 103.665 83.5705 102.69 83.5705C102.045 83.5705 101.494 83.4561 101.036 83.2273V83.224Z" fill="white"/>
<path d="M107.62 72.2557H109.167V83.4064H107.62V72.2557ZM108.909 81.9665H111.756C112.014 81.9665 112.213 81.8862 112.352 81.7245C112.492 81.5628 112.561 81.3285 112.561 81.0205V79.4739C112.561 79.0867 112.45 78.7864 112.228 78.5719C112.006 78.3574 111.706 78.2496 111.326 78.2496H108.909V76.8097H111.326C111.655 76.8097 111.91 76.7184 112.088 76.5358C112.268 76.3532 112.357 76.0969 112.357 75.768V74.415C112.357 74.1928 112.287 74.0179 112.148 73.8881C112.008 73.7583 111.813 73.6945 111.563 73.6945H108.909V72.2546H111.681C112.391 72.2546 112.939 72.4284 113.325 72.776C113.712 73.1236 113.904 73.6153 113.904 74.2533V75.8428C113.904 76.3015 113.787 76.681 113.55 76.9813C113.314 77.2816 112.985 77.4719 112.562 77.5511C113.056 77.6369 113.438 77.8415 113.706 78.1638C113.975 78.4861 114.109 78.9085 114.109 79.431V81.1712C114.109 81.8807 113.904 82.4296 113.496 82.8201C113.088 83.2106 112.509 83.4053 111.756 83.4053H108.909V81.9654V81.9665Z" fill="white"/>
<path d="M117.299 83.1864C116.819 82.9323 116.454 82.5616 116.203 82.0743C115.953 81.587 115.827 81.004 115.827 80.3231V75.2532C115.827 74.58 115.953 74.0058 116.203 73.5295C116.454 73.0532 116.819 72.6902 117.299 72.4394C117.779 72.1886 118.355 72.0632 119.028 72.0632C119.701 72.0632 120.278 72.1886 120.757 72.4394C121.237 72.6902 121.602 73.0532 121.853 73.5295C122.104 74.0058 122.229 74.5811 122.229 75.2532V80.3561C122.229 81.0293 122.104 81.6079 121.853 82.0908C121.602 82.5737 121.237 82.9411 120.757 83.1919C120.278 83.4427 119.701 83.5681 119.028 83.5681C118.355 83.5681 117.779 83.4405 117.299 83.1864V83.1864ZM120.248 81.6662C120.539 81.3582 120.684 80.9215 120.684 80.3561V75.2532C120.684 74.7021 120.537 74.272 120.244 73.964C119.95 73.656 119.542 73.502 119.019 73.502C118.497 73.502 118.092 73.656 117.805 73.964C117.519 74.272 117.375 74.7021 117.375 75.2532V80.3561C117.375 80.9215 117.518 81.3593 117.805 81.6662C118.091 81.9742 118.496 82.1282 119.019 82.1282C119.543 82.1282 119.959 81.9742 120.249 81.6662H120.248Z" fill="white"/>
<path d="M123.036 81.9664H131.038V83.4063H123.036V81.9664ZM123.036 81.9664H124.582V86.2091H123.036V81.9664ZM123.336 81.9664H123.593C123.836 81.9664 124.046 81.8575 124.221 81.6386C124.396 81.4197 124.532 81.1029 124.624 80.6882C124.717 80.2735 124.764 79.7719 124.764 79.1845V72.2556H126.31V79.4848C126.31 80.7377 126.096 81.6804 125.666 82.3096C125.236 82.9399 124.616 83.2545 123.808 83.2545H123.335V81.9653L123.336 81.9664ZM125.806 72.2556H129.534V73.6955H125.806V72.2556ZM129.233 72.2556H130.78V83.4063H129.233V72.2556ZM130.683 81.9664H132.229V86.2091H130.683V81.9664V81.9664Z" fill="white"/>
<path d="M134.798 83.1753C134.296 82.9135 133.913 82.534 133.648 82.0368C133.383 81.5396 133.251 80.9357 133.251 80.2262V75.5644C133.251 74.8274 133.383 74.1971 133.648 73.6735C133.913 73.151 134.298 72.7517 134.803 72.4756C135.308 72.1995 135.915 72.062 136.624 72.062C137.332 72.062 137.953 72.1995 138.461 72.4756C138.969 72.7517 139.356 73.1521 139.621 73.679C139.886 74.2059 140.018 74.8406 140.018 75.5853V75.6711H138.547V75.5853C138.547 74.9264 138.382 74.4149 138.053 74.0497C137.723 73.6845 137.257 73.5019 136.656 73.5019C136.054 73.5019 135.612 73.6812 135.286 74.0387C134.961 74.3973 134.798 74.9055 134.798 75.5644V80.2262C134.798 80.8345 134.958 81.3042 135.281 81.6331C135.603 81.9631 136.062 82.127 136.656 82.127C137.25 82.127 137.723 81.9565 138.053 81.6166C138.382 81.2767 138.547 80.7982 138.547 80.1822V80.0964H140.039V80.1822C140.039 80.8983 139.905 81.5088 139.637 82.0137C139.368 82.5186 138.978 82.9036 138.466 83.1687C137.954 83.4338 137.34 83.5658 136.624 83.5658C135.908 83.5658 135.299 83.4349 134.798 83.1742V83.1753Z" fill="white"/>
<path d="M140.255 72.2556H146.292V73.6955H140.255V72.2556ZM142.554 72.2556H143.994V83.4063H142.554V72.2556Z" fill="white"/>
<path d="M148.011 72.2557H149.558V83.4064H148.011V72.2557ZM149.3 81.9665H152.147C152.404 81.9665 152.604 81.8862 152.743 81.7245C152.883 81.5628 152.952 81.3285 152.952 81.0205V79.4739C152.952 79.0867 152.841 78.7864 152.619 78.5719C152.397 78.3574 152.096 78.2496 151.717 78.2496H149.3V76.8097H151.717C152.046 76.8097 152.301 76.7184 152.479 76.5358C152.659 76.3532 152.748 76.0969 152.748 75.768V74.415C152.748 74.1928 152.678 74.0179 152.539 73.8881C152.399 73.7583 152.204 73.6945 151.953 73.6945H149.3V72.2546H152.072C152.782 72.2546 153.33 72.4284 153.716 72.776C154.103 73.1236 154.295 73.6153 154.295 74.2533V75.8428C154.295 76.3015 154.178 76.681 153.941 76.9813C153.705 77.2816 153.376 77.4719 152.953 77.5511C153.447 77.6369 153.829 77.8415 154.097 78.1638C154.366 78.4861 154.5 78.9085 154.5 79.431V81.1712C154.5 81.8807 154.295 82.4296 153.887 82.8201C153.479 83.2106 152.899 83.4053 152.147 83.4053H149.3V81.9654V81.9665Z" fill="white"/>
<path d="M157.69 83.1864C157.21 82.9323 156.845 82.5616 156.594 82.0743C156.344 81.587 156.218 81.004 156.218 80.3231V75.2532C156.218 74.58 156.344 74.0058 156.594 73.5295C156.845 73.0532 157.21 72.6902 157.69 72.4394C158.17 72.1886 158.746 72.0632 159.419 72.0632C160.092 72.0632 160.669 72.1886 161.148 72.4394C161.628 72.6902 161.993 73.0532 162.244 73.5295C162.495 74.0058 162.62 74.5811 162.62 75.2532V80.3561C162.62 81.0293 162.495 81.6079 162.244 82.0908C161.993 82.5737 161.628 82.9411 161.148 83.1919C160.669 83.4427 160.092 83.5681 159.419 83.5681C158.746 83.5681 158.17 83.4405 157.69 83.1864V83.1864ZM160.639 81.6662C160.929 81.3582 161.075 80.9215 161.075 80.3561V75.2532C161.075 74.7021 160.928 74.272 160.635 73.964C160.341 73.656 159.933 73.502 159.41 73.502C158.888 73.502 158.483 73.656 158.196 73.964C157.91 74.272 157.766 74.7021 157.766 75.2532V80.3561C157.766 80.9215 157.909 81.3593 158.196 81.6662C158.482 81.9742 158.887 82.1282 159.41 82.1282C159.934 82.1282 160.35 81.9742 160.64 81.6662H160.639Z" fill="white"/>
<path d="M47.3248 70.3154C47.0663 70.8126 46.8496 71.2152 46.6527 71.6266C46.6208 71.6937 46.6527 71.8268 46.7033 71.8928C46.8155 72.038 46.9629 72.1557 47.0872 72.2921C47.3204 72.5462 47.3303 72.8278 47.0927 73.0687C46.0708 74.1016 45.0434 75.1312 44.0127 76.1564C43.7586 76.4083 43.4803 76.3995 43.2218 76.141C41.1659 74.0851 39.1133 72.027 37.0607 69.9678C36.8 69.706 36.7967 69.4145 37.0552 69.1549C38.0661 68.1352 39.0803 67.1188 40.0978 66.1057C40.3618 65.8428 40.6357 65.8483 40.9107 66.1024C40.9239 66.1145 40.936 66.1266 40.9481 66.1398C41.2766 66.4596 41.6469 66.5201 42.0591 66.3213C44.0039 65.3764 45.4911 63.9497 46.5251 62.0478C46.5504 62.0016 46.5757 61.9554 46.5988 61.907C46.6065 61.8916 46.6065 61.8729 46.6263 61.7816C46.4855 61.6573 46.304 61.5165 46.1456 61.3537C45.8948 61.0963 45.897 60.8169 46.1511 60.5606C47.162 59.5409 48.1773 58.5245 49.1937 57.5103C49.4698 57.2353 49.7393 57.2386 50.0242 57.5191C50.5137 58.002 50.9966 58.4904 51.4817 58.9766C53.0129 60.5111 54.543 62.0445 56.0742 63.579C56.4658 63.9717 56.4647 64.2027 56.0676 64.6009C55.1161 65.5557 54.1635 66.5094 53.2109 67.4631C52.8501 67.8239 52.5685 67.8547 52.2572 67.4653C51.9283 67.0539 51.5972 66.9934 51.1605 67.2486C50.9647 67.363 50.7458 67.4378 50.5379 67.5346C50.4664 67.5676 50.3993 67.6105 50.3113 67.6589C50.3839 67.7359 50.4455 67.8041 50.5104 67.8701C53.4353 70.8016 56.3602 73.7309 59.284 76.6635C60.0485 77.4302 60.1728 78.4774 59.6074 79.309C58.8858 80.3705 57.4272 80.4992 56.4878 79.5697C55.3482 78.4422 54.2207 77.3015 53.0888 76.1663C51.2342 74.3084 49.3796 72.4494 47.5272 70.5904C47.4656 70.5288 47.4216 70.4485 47.3248 70.3154V70.3154ZM42.2692 67.3773C43.4561 68.5719 44.632 69.7555 45.8079 70.9391C46.9101 68.716 48.6294 67.1331 50.8822 66.2333C49.7096 65.0596 48.5326 63.8815 47.3578 62.7056C46.1786 64.7945 44.467 66.3708 42.2681 67.3784L42.2692 67.3773ZM47.9375 69.5168C48.0409 69.6268 48.1003 69.6917 48.1608 69.7522C50.3377 71.9346 52.5157 74.117 54.6937 76.2994C55.5462 77.1541 56.3965 78.0099 57.2523 78.8602C57.5592 79.1649 58.0058 79.232 58.3732 79.0516C58.7274 78.8778 58.9463 78.4939 58.9155 78.099C58.8924 77.8108 58.7439 77.5919 58.5437 77.3917C55.555 74.4008 52.5696 71.4077 49.5842 68.4124C49.5226 68.3508 49.4896 68.2617 49.4225 68.1528C48.8901 68.6423 48.4248 69.0691 47.9364 69.5157L47.9375 69.5168ZM55.0523 64.0872C53.2318 62.2634 51.4113 60.4385 49.6161 58.6389C48.845 59.4122 48.0596 60.2009 47.3017 60.9621C49.1046 62.7705 50.9284 64.5998 52.7346 66.4104C53.4991 65.6437 54.2812 64.8605 55.0523 64.0872V64.0872ZM45.952 72.7035C44.1348 70.8808 42.3088 69.0504 40.5081 67.2453C39.7469 68.0065 38.9593 68.7941 38.1959 69.5564C40.0043 71.3681 41.8292 73.1974 43.6398 75.0124C44.4032 74.249 45.1875 73.4669 45.9509 72.7035H45.952Z" fill="white"/>
<path d="M39.2079 83.3648C37.6943 83.3648 36.1807 83.3648 34.6671 83.3648C34.1754 83.3648 33.9983 83.1899 34.0027 82.6927C34.0082 81.9348 33.9763 81.1725 34.0456 80.4201C34.1611 79.176 35.2325 78.1915 36.4843 78.1739C38.3059 78.1486 40.1275 78.1475 41.9491 78.1739C43.2691 78.1937 44.3614 79.3223 44.3955 80.6489C44.4131 81.354 44.4032 82.0602 44.401 82.7653C44.3999 83.1767 44.2129 83.3626 43.8026 83.3626C42.2714 83.3648 40.7402 83.3626 39.209 83.3626L39.2079 83.3648ZM43.3505 81.31H35.0598V82.3022H43.3505V81.31ZM43.2361 80.2331C43.2361 80.1869 43.2394 80.1693 43.2361 80.1528C43.2295 80.1275 43.2196 80.1022 43.2075 80.0791C42.894 79.4829 42.3946 79.198 41.728 79.1969C40.0472 79.1958 38.3664 79.1958 36.6856 79.198C36.5547 79.198 36.4216 79.2112 36.2918 79.2343C35.7583 79.33 35.2732 79.7656 35.1764 80.232H43.2372L43.2361 80.2331Z" fill="white"/>
</svg>
