<svg width="264" height="89" viewBox="0 0 264 89" fill="none" xmlns="http://www.w3.org/2000/svg">
<g clip-path="url(#clip0_53_641)">
<path d="M101.539 60.1672V62.2752H96.1132V72.2574H93.5766V60.1672H101.539Z" fill="white"/>
<path d="M103.167 72.2574V60.1672H107.902C108.812 60.1672 109.587 60.3412 110.228 60.6892C110.869 61.0372 111.358 61.5193 111.696 62.1355C112.033 62.7517 112.203 63.461 112.203 64.2634C112.203 65.0658 112.031 65.7751 111.687 66.3891C111.344 67.003 110.847 67.4807 110.195 67.8232C109.545 68.1656 108.759 68.3363 107.837 68.3363H104.82V66.2882H107.427C107.915 66.2882 108.318 66.2029 108.637 66.0311C108.955 65.8604 109.193 65.6221 109.352 65.3163C109.51 65.0115 109.589 64.6602 109.589 64.2623C109.589 63.8644 109.51 63.5098 109.352 63.2083C109.193 62.9069 108.955 62.673 108.633 62.5057C108.313 62.3383 107.906 62.2552 107.415 62.2552H105.704V72.2551H103.167V72.2574Z" fill="white"/>
<path d="M114.535 72.2574H111.816L115.958 60.1672H119.228L123.365 72.2574H120.645L117.639 62.9302H117.546L114.534 72.2574H114.535ZM114.365 67.5051H120.787V69.5H114.365V67.5051Z" fill="white"/>
<path d="M124.238 72.2574L128 65.8815L124.396 60.1672H127.519L130.214 65.1434H135.283L137.908 60.1672H141.018L137.503 65.8637L141.194 72.2574H138.165L135.628 67.5051H129.845L127.243 72.2574H124.237H124.238ZM133.947 60.1672V72.2574H131.486V60.1672H133.947Z" fill="white"/>
<path d="M142.062 75.1734V70.2205H142.876C143.154 70.0199 143.408 69.7351 143.638 69.3671C143.868 68.9992 144.065 68.4894 144.229 67.8377C144.393 67.186 144.511 66.3338 144.581 65.2787L144.921 60.1663H152.861V70.2194H154.173V75.1601H151.736V72.2553H144.499V75.1711H142.061L142.062 75.1734ZM145.807 70.2205H150.423V62.2742H147.207L147.02 65.2787C146.97 66.0778 146.886 66.786 146.772 67.4044C146.656 68.0228 146.517 68.5625 146.356 69.0247C146.194 69.4868 146.011 69.8858 145.808 70.2205H145.807Z" fill="white"/>
<path d="M157.782 72.2574H155.063L159.206 60.1672H162.475L166.612 72.2574H163.893L160.887 62.9302H160.793L157.781 72.2574H157.782ZM157.613 67.5051H164.035V69.5H157.613V67.5051Z" fill="white"/>
<path d="M168.054 72.2574V60.1672H170.591V65.1556H175.741V60.1672H178.272V72.2574H175.741V67.2635H170.591V72.2574H168.054Z" fill="white"/>
<path d="M190.953 64.3998H188.387C188.339 64.0651 188.244 63.767 188.1 63.5055C187.955 63.2439 187.77 63.02 187.543 62.835C187.316 62.6499 187.056 62.508 186.761 62.4094C186.466 62.3107 186.147 62.262 185.803 62.262C185.181 62.262 184.641 62.416 184.18 62.7252C183.719 63.0344 183.362 63.4833 183.108 64.0707C182.854 64.6592 182.727 65.3729 182.727 66.2107C182.727 67.0486 182.855 67.7967 183.111 68.383C183.367 68.9692 183.725 69.4125 184.186 69.7118C184.647 70.011 185.18 70.1606 185.785 70.1606C186.125 70.1606 186.441 70.1152 186.731 70.0243C187.022 69.9334 187.281 69.8004 187.508 69.6253C187.734 69.4502 187.922 69.2363 188.073 68.9848C188.224 68.7332 188.328 68.4461 188.387 68.1225L190.953 68.1347C190.887 68.6899 190.722 69.2241 190.458 69.7373C190.194 70.2504 189.841 70.7092 189.398 71.1126C188.954 71.516 188.426 71.8352 187.816 72.0691C187.204 72.3029 186.514 72.4204 185.744 72.4204C184.674 72.4204 183.718 72.1766 182.877 71.6889C182.035 71.2013 181.371 70.4942 180.885 69.5699C180.398 68.6456 180.155 67.5252 180.155 66.2107C180.155 64.8963 180.402 63.7703 180.893 62.846C181.385 61.9217 182.054 61.2158 182.898 60.7292C183.741 60.2427 184.691 60 185.746 60C186.441 60 187.086 60.0986 187.682 60.2948C188.278 60.4921 188.806 60.778 189.267 61.1537C189.728 61.5294 190.104 61.9893 190.394 62.5324C190.685 63.0755 190.872 63.6972 190.954 64.3976L190.953 64.3998Z" fill="white"/>
<path d="M200.035 72.2574L196.179 67.1039H195.312V72.2574H192.776V60.1672H195.312V64.996H195.822L199.806 60.1672H202.964L198.282 65.7751L203.181 72.2574H200.035V72.2574Z" fill="white"/>
<path d="M204.452 60.1672H206.983V67.7711H207.083L212.269 60.1672H214.49V72.2574H211.953V64.648H211.865L206.65 72.2574H204.452V60.1672V60.1672Z" fill="white"/>
<path d="M216.581 72.2574V60.1672H224.667V62.2752H219.118V65.1556H224.251V67.2635H219.118V70.1505H224.691V72.2585H216.582L216.581 72.2574Z" fill="white"/>
<path d="M91.865 85.0436H99.8675V86.4943H91.865V85.0436ZM91.865 85.0436H93.4116V89.3182H91.865V85.0436ZM92.1653 85.0436H92.4227C92.6658 85.0436 92.8759 84.9339 93.0508 84.7133C93.2257 84.4928 93.361 84.1736 93.4534 83.7558C93.5469 83.338 93.5931 82.8326 93.5931 82.2408V75.2598H95.1397V82.5433C95.1397 83.8056 94.9252 84.7554 94.4951 85.3894C94.065 86.0244 93.4457 86.3414 92.6372 86.3414H92.1642V85.0425L92.1653 85.0436ZM94.6359 75.2598H98.3638V76.7105H94.6359V75.2598ZM98.0624 75.2598H99.609V86.4943H98.0624V75.2598ZM99.5122 85.0436H101.059V89.3182H99.5122V85.0436V85.0436Z" fill="white"/>
<path d="M103.644 86.2183C103.139 85.9258 102.752 85.5002 102.483 84.9416C102.215 84.383 102.081 83.7092 102.081 82.9234V79.0268C102.081 78.19 102.212 77.4752 102.472 76.8834C102.734 76.2916 103.111 75.8405 103.605 75.5302C104.099 75.2199 104.694 75.0647 105.388 75.0647C106.083 75.0647 106.701 75.2077 107.199 75.4925C107.696 75.7773 108.076 76.194 108.338 76.7426C108.599 77.2912 108.729 77.9517 108.729 78.7231V81.5159H103.024V80.0652H107.181V78.7663C107.181 78.0515 107.024 77.4985 106.708 77.105C106.393 76.7116 105.953 76.5154 105.387 76.5154C104.822 76.5154 104.395 76.7227 104.087 77.1383C103.779 77.5528 103.625 78.1435 103.625 78.9082V82.9667C103.625 83.6737 103.786 84.2234 104.108 84.6169C104.43 85.0103 104.885 85.2065 105.472 85.2065C106.023 85.2065 106.451 85.0513 106.756 84.741C107.06 84.4307 107.212 83.9907 107.212 83.4211V83.3557H108.759V83.4211C108.759 84.4529 108.473 85.2497 107.9 85.8127C107.327 86.3757 106.517 86.6572 105.472 86.6572C104.756 86.6572 104.145 86.5109 103.641 86.2183H103.644Z" fill="white"/>
<path d="M109.622 85.1411C109.93 85.1411 110.167 85.038 110.332 84.833C110.497 84.6269 110.579 84.3365 110.579 83.9619V75.2598H112.126V84.0484C112.126 84.5825 112.037 85.0403 111.857 85.4226C111.678 85.805 111.417 86.0953 111.073 86.2937C110.73 86.4921 110.317 86.5918 109.838 86.5918H109.623V85.1411H109.622ZM111.942 75.2598H115.67V76.7105H111.942V75.2598ZM115.154 75.2598H116.701V86.4943H115.154V75.2598Z" fill="white"/>
<path d="M119.633 85.8714C119.146 85.3483 118.903 84.5604 118.903 83.5064C118.903 82.2441 119.188 81.2998 119.757 80.6759C120.326 80.0519 121.187 79.7394 122.34 79.7394H124.328L124.479 80.8654H122.351C121.671 80.8654 121.162 81.0859 120.826 81.5259C120.489 81.9659 120.321 82.6264 120.321 83.5064C120.321 84.1769 120.475 84.6789 120.783 85.0103C121.091 85.3428 121.553 85.5079 122.169 85.5079C122.856 85.5079 123.372 85.3262 123.715 84.9616C124.059 84.5969 124.231 84.0472 124.231 83.3113L124.457 84.2423C124.449 84.7765 124.348 85.2231 124.151 85.5844C123.954 85.9457 123.663 86.2139 123.275 86.3912C122.888 86.5685 122.405 86.6561 121.826 86.6561C120.852 86.6561 120.121 86.3945 119.634 85.8714H119.633ZM124.231 78.2687C124.231 77.6625 124.065 77.1937 123.732 76.8612C123.399 76.5298 122.928 76.3636 122.32 76.3636C121.783 76.3636 121.365 76.5298 121.068 76.8612C120.771 77.1937 120.622 77.6625 120.622 78.2687H119.13C119.13 77.2513 119.412 76.4633 119.978 75.9037C120.543 75.3451 121.342 75.0647 122.373 75.0647C123.068 75.0647 123.663 75.191 124.157 75.4437C124.65 75.6964 125.027 76.061 125.284 76.5365C125.541 77.0119 125.671 77.5904 125.671 78.2676V86.4932H124.231V78.2676V78.2687Z" fill="white"/>
<path d="M77.3846 86.3369H75.3595C75.2781 82.8436 73.9339 79.961 71.2708 77.7467C69.1225 75.9613 66.6178 75.1411 63.8392 75.2741C60.9253 75.4138 58.4393 76.5675 56.4186 78.6909C54.3979 80.8144 53.4046 83.3734 53.3474 86.3214H51.3168C51.3465 83.5319 52.122 80.9972 53.728 78.7342C55.3318 76.4744 57.4449 74.8807 60.0673 73.9276C59.9925 73.8633 59.9463 73.819 59.8946 73.7802C57.3558 71.8728 56.2349 68.7409 57.1039 65.6621C57.9036 62.8294 59.7912 61.0462 62.6182 60.2903C63.0164 60.1839 63.4333 60.1462 63.8414 60.0764C64.1813 60.0764 64.5201 60.0764 64.86 60.0764C65.2681 60.1462 65.685 60.1839 66.0832 60.2903C68.9102 61.0462 70.8209 62.8238 71.592 65.6643C72.3983 68.6356 71.5777 71.2112 69.3579 73.328C69.1401 73.5364 68.8948 73.7148 68.644 73.922C68.7188 73.9564 68.7694 73.983 68.8233 74.0029C70.5866 74.6502 72.1376 75.6399 73.4719 76.9654C75.4497 78.9314 76.6993 81.2898 77.18 84.0527C77.2669 84.5548 77.3164 85.0635 77.3835 85.5689V86.338L77.3846 86.3369ZM64.3507 62.1278C61.3323 62.1278 58.865 64.6092 58.854 67.6548C58.843 70.7003 61.3257 73.2061 64.3529 73.205C67.3713 73.205 69.8386 70.7236 69.8496 67.678C69.8606 64.6325 67.3779 62.1267 64.3507 62.1278Z" fill="white"/>
<path d="M53.7291 78.7341C53.9722 78.3916 54.2285 78.0658 54.4958 77.7533C54.0976 77.5316 53.684 77.3354 53.2528 77.1703C53.3639 77.0817 53.4695 76.9963 53.5707 76.8999C55.2944 75.2574 55.8631 73.3024 55.2625 71.0892C54.6872 68.9713 53.2825 67.6004 51.0869 67.013C50.8768 66.9565 50.6612 66.9255 50.4533 66.8955C50.3587 66.8822 50.2641 66.8678 50.1706 66.8523L49.3929 66.8501L49.3654 66.8523C49.2719 66.8678 49.1773 66.8822 49.0827 66.8955C48.8748 66.9255 48.6592 66.9565 48.4502 67.013C46.2755 67.5949 44.8697 68.9647 44.2713 71.0859C43.6267 73.3712 44.3978 75.6897 46.2865 77.1681C44.4495 77.8918 42.9436 79.0677 41.8095 80.6669C40.6325 82.3249 40.0242 84.2378 40.0022 86.3523L40 86.5197H41.8238L41.8271 86.3568C41.8689 84.2023 42.6147 82.3482 44.0436 80.8464C45.5066 79.3104 47.3084 78.4803 49.3995 78.3805C50.846 78.3107 52.1814 78.6011 53.3892 79.2417C53.4992 79.071 53.6114 78.9025 53.7302 78.7352L53.7291 78.7341ZM49.7691 76.5242H49.768C48.7329 76.5242 47.7572 76.1141 47.0191 75.3683C46.2821 74.6235 45.8784 73.6416 45.8828 72.6009C45.8905 70.4475 47.6329 68.6943 49.768 68.6943H49.7691C50.8042 68.6943 51.7799 69.1043 52.518 69.8502C53.255 70.5949 53.6587 71.5769 53.6543 72.6175C53.6466 74.7709 51.9042 76.5242 49.7691 76.5242Z" fill="white"/>
<path d="M74.7776 78.5813C74.5345 78.2388 74.2782 77.913 74.0109 77.6004C74.4091 77.3788 74.8227 77.1826 75.2539 77.0175C75.1428 76.9288 75.0372 76.8435 74.936 76.7471C73.2123 75.1046 72.6436 73.1496 73.2442 70.9364C73.8195 68.8185 75.2242 67.4476 77.4198 66.8602C77.6299 66.8037 77.8455 66.7726 78.0534 66.7427C78.148 66.7294 78.2426 66.715 78.3361 66.6995L79.1138 66.6973L79.1413 66.6995C79.2348 66.715 79.3294 66.7294 79.424 66.7427C79.6319 66.7726 79.8475 66.8037 80.0565 66.8602C82.2312 67.442 83.637 68.8118 84.2354 70.9331C84.88 73.2183 84.1089 75.5368 82.2202 77.0153C84.0572 77.739 85.5631 78.9148 86.6972 80.5141C87.8742 82.1721 88.4825 84.0849 88.5045 86.1995L88.5067 86.3669H86.6829L86.6796 86.2039C86.6378 84.0495 85.892 82.1953 84.4631 80.6936C83.0001 79.1576 81.1983 78.3275 79.1072 78.2277C77.6607 78.1579 76.3253 78.4483 75.1175 79.0888C75.0075 78.9182 74.8953 78.7497 74.7765 78.5824L74.7776 78.5813ZM78.7376 76.3714H78.7387C79.7738 76.3714 80.7495 75.9613 81.4876 75.2154C82.2246 74.4707 82.6283 73.4888 82.6239 72.4481C82.6162 70.2947 80.8738 68.5414 78.7387 68.5414H78.7376C77.7025 68.5414 76.7268 68.9515 75.9887 69.6974C75.2517 70.4421 74.848 71.424 74.8524 72.4647C74.8601 74.6181 76.6025 76.3714 78.7376 76.3714V76.3714Z" fill="white"/>
</g>
<defs>
<clipPath id="clip0_53_641">
<rect width="264" height="88.6617" fill="white"/>
</clipPath>
</defs>
</svg>
