<svg width="264" height="89" viewBox="0 0 264 89" fill="none" xmlns="http://www.w3.org/2000/svg">
<g clip-path="url(#clip0_53_664)">
<path d="M93.4249 70.2816L97.1869 63.9216L93.5833 58.2217H96.7062L99.4012 63.1854H104.47L107.095 58.2217H110.205L106.69 63.9039L110.381 70.2816H107.352L104.815 65.5412H99.0316L96.4301 70.2816H93.4238H93.4249ZM103.134 58.2217V70.2816H100.673V58.2217H103.134Z" fill="white"/>
<path d="M111.899 58.2217H114.431V65.8065H114.531L119.716 58.2217H121.937V70.2816H119.4V62.6912H119.312L114.097 70.2816H111.899V58.2217V58.2217Z" fill="white"/>
<path d="M123.378 70.2815V68.2319L123.718 68.202C124.156 68.1666 124.509 67.9986 124.778 67.699C125.048 67.3983 125.25 66.9174 125.384 66.2563C125.52 65.5952 125.607 64.7042 125.645 63.5855L125.844 58.2205H133.989V70.2804H131.522V60.2634H128.2L128.013 64.4621C127.951 65.813 127.791 66.9152 127.536 67.772C127.28 68.6276 126.874 69.26 126.317 69.6679C125.761 70.0758 124.999 70.2804 124.035 70.2804H123.378V70.2815Z" fill="white"/>
<path d="M136.075 58.2217H138.606V65.8065H138.706L143.892 58.2217H146.113V70.2816H143.576V62.6912H143.488L138.273 70.2816H136.075V58.2217V58.2217Z" fill="white"/>
<path d="M148.685 58.2217H151.163V68.232H154.608V58.2217H157.075V68.232H160.48V58.2217H162.946V70.2816H148.685V58.2217ZM164.241 68.3094L164.077 73.1205H161.775V70.2827H160.796V68.3105H164.241V68.3094Z" fill="white"/>
<path d="M165.782 70.2816V58.2217H168.318V63.1975H173.469V58.2217H176V70.2816H173.469V65.3002H168.318V70.2816H165.782Z" fill="white"/>
<path d="M179.763 62.6791H182.622C183.574 62.6791 184.396 62.8327 185.086 63.1412C185.775 63.4496 186.308 63.884 186.683 64.4456C187.058 65.0072 187.243 65.6683 187.24 66.43C187.243 67.1873 187.058 67.8561 186.683 68.4354C186.308 69.0147 185.775 69.4668 185.086 69.7929C184.396 70.1191 183.575 70.2816 182.622 70.2816H178.139V58.2217H180.67V68.232H182.622C183.078 68.232 183.463 68.1491 183.776 67.9821C184.088 67.8152 184.326 67.593 184.487 67.3166C184.649 67.0403 184.728 66.7362 184.725 66.4068C184.728 65.9281 184.55 65.5224 184.189 65.1908C183.827 64.8591 183.305 64.6933 182.622 64.6933H179.763V62.6791V62.6791ZM190.75 58.2217V70.2816H188.219V58.2217H190.75Z" fill="white"/>
<path d="M192.841 70.2816V58.2217H200.927V60.3243H195.378V63.1975H200.511V65.3002H195.378V68.18H200.951V70.2827H192.842L192.841 70.2816Z" fill="white"/>
<path d="M93.3787 83.92H101.381V85.3671H93.3787V83.92ZM93.3787 83.92H94.9253V88.1839H93.3787V83.92ZM93.679 83.92H93.9364C94.1795 83.92 94.3896 83.8106 94.5645 83.5906C94.7394 83.3706 94.8747 83.0522 94.9671 82.6354C95.0606 82.2186 95.1068 81.7145 95.1068 81.1242V74.1606H96.6534V81.426C96.6534 82.6852 96.4389 83.6326 96.0088 84.2649C95.5787 84.8984 94.9594 85.2145 94.1509 85.2145H93.6779V83.9189L93.679 83.92ZM96.1496 74.1606H99.8775V75.6077H96.1496V74.1606ZM99.5761 74.1606H101.123V85.3671H99.5761V74.1606ZM101.026 83.92H102.573V88.1839H101.026V83.92V83.92Z" fill="white"/>
<path d="M105.158 85.0918C104.653 84.8 104.265 84.3755 103.997 83.8183C103.729 83.2611 103.594 82.589 103.594 81.8052V77.9182C103.594 77.0836 103.725 76.3705 103.986 75.7802C104.248 75.1899 104.625 74.7399 105.119 74.4304C105.613 74.1208 106.208 73.9661 106.902 73.9661C107.596 73.9661 108.214 74.1087 108.713 74.3928C109.21 74.6769 109.589 75.0926 109.851 75.6398C110.113 76.187 110.243 76.8459 110.243 77.6153V80.4012H104.538V78.9541H108.695V77.6584C108.695 76.9454 108.538 76.3937 108.222 76.0013C107.906 75.6088 107.466 75.4132 106.901 75.4132C106.336 75.4132 105.909 75.6199 105.601 76.0345C105.293 76.4479 105.139 77.0371 105.139 77.7999V81.8483C105.139 82.5536 105.299 83.1019 105.622 83.4944C105.944 83.8868 106.398 84.0825 106.986 84.0825C107.537 84.0825 107.965 83.9277 108.269 83.6182C108.574 83.3086 108.726 82.8698 108.726 82.3015V82.2363H110.273V82.3015C110.273 83.3308 109.987 84.1256 109.413 84.6872C108.84 85.2488 108.031 85.5296 106.986 85.5296C106.27 85.5296 105.659 85.3837 105.154 85.0918H105.158Z" fill="white"/>
<path d="M111.136 84.0173C111.444 84.0173 111.681 83.9145 111.846 83.71C112.011 83.5043 112.093 83.2147 112.093 82.841V74.1606H113.64V82.9273C113.64 83.4601 113.551 83.9167 113.371 84.2981C113.192 84.6795 112.931 84.9691 112.587 85.167C112.244 85.3649 111.831 85.4644 111.352 85.4644H111.137V84.0173H111.136ZM113.456 74.1606H117.184V75.6077H113.456V74.1606ZM116.668 74.1606H118.215V85.3671H116.668V74.1606Z" fill="white"/>
<path d="M121.148 84.7458C120.661 84.224 120.418 83.438 120.418 82.3867C120.418 81.1275 120.703 80.1856 121.271 79.5632C121.841 78.9408 122.701 78.6291 123.855 78.6291H125.843L125.994 79.7523H123.866C123.185 79.7523 122.677 79.9722 122.341 80.4111C122.004 80.85 121.836 81.5089 121.836 82.3867C121.836 83.0555 121.99 83.5563 122.298 83.8868C122.606 84.2185 123.068 84.3832 123.684 84.3832C124.371 84.3832 124.887 84.2019 125.23 83.8382C125.574 83.4745 125.746 82.9261 125.746 82.1921L125.972 83.1207C125.964 83.6536 125.863 84.0991 125.666 84.4595C125.469 84.8199 125.178 85.0874 124.79 85.2643C124.403 85.4412 123.92 85.5285 123.341 85.5285C122.367 85.5285 121.636 85.2676 121.149 84.7458H121.148ZM125.746 77.1621C125.746 76.5574 125.58 76.0897 125.247 75.7581C124.914 75.4275 124.443 75.2617 123.834 75.2617C123.298 75.2617 122.88 75.4275 122.583 75.7581C122.286 76.0897 122.137 76.5574 122.137 77.1621H120.644C120.644 76.1472 120.927 75.3612 121.493 74.8029C122.058 74.2458 122.857 73.9661 123.888 73.9661C124.582 73.9661 125.178 74.0921 125.671 74.3441C126.165 74.5962 126.542 74.9599 126.799 75.4342C127.056 75.9084 127.186 76.4855 127.186 77.161V85.366H125.746V77.161V77.1621Z" fill="white"/>
<path d="M70.5988 85.3251C72.0376 85.3251 73.4764 85.3251 74.9152 85.3251H76.9007H78.7971C80.2656 85.3251 81.7341 85.3251 83.2026 85.3251C85.9196 85.3229 88.1328 83.113 88.1361 80.399C88.1383 78.4445 88.1372 76.4911 88.1361 74.6482H86.5697C86.5686 75.8786 86.5686 77.109 86.5686 78.3395V80.3161C86.5686 81.2524 86.2155 82.1203 85.5753 82.7604C84.9362 83.3982 84.0705 83.7498 83.1388 83.7498H83.1366C79.0556 83.7476 74.858 83.7476 70.6626 83.7498H70.6604C69.7287 83.7498 68.863 83.3982 68.225 82.7592C67.5848 82.1192 67.2328 81.2513 67.2317 80.315C67.2317 79.8142 67.2317 79.3134 67.2317 78.8126C67.2328 77.4473 67.2339 76.0389 67.2229 74.6482H65.6642C65.662 76.6425 65.662 78.6523 65.6642 80.368C65.6664 83.0997 67.8796 85.324 70.5988 85.3262V85.3251Z" fill="white"/>
<path d="M76.2957 58.3807C71.8638 62.8337 67.4319 67.2866 63 71.7396L64.1143 72.8594C66.5442 70.4119 68.9763 67.9665 71.4084 65.52C73.1145 63.8043 76.904 59.851 76.904 59.851L77.245 60.1772C77.3055 60.2346 77.3473 60.2733 77.3869 60.3142C80.2645 63.2073 83.1432 66.1015 86.0208 68.9957L86.9976 69.9774C87.8743 70.8585 88.7785 71.7672 89.6695 72.6671L90.7827 71.5483C86.4146 67.1562 82.0443 62.7662 77.674 58.3752C77.1746 57.8733 76.8006 57.8744 76.2968 58.3818L76.2957 58.3807Z" fill="white"/>
</g>
<defs>
<clipPath id="clip0_53_664">
<rect width="264" height="88.44" fill="white"/>
</clipPath>
</defs>
</svg>
