<svg width="35" height="35" viewBox="0 0 35 35" fill="none" xmlns="http://www.w3.org/2000/svg">
<path d="M31.1716 24.0139C31.1033 24.2771 31.0479 24.5464 30.9604 24.8035C30.3862 26.4974 28.9096 27.5659 27.0571 27.5693C20.6837 27.5802 14.3108 27.5802 7.93834 27.5693C5.91696 27.5652 4.34538 26.2875 3.92155 24.3625C3.86197 24.0842 3.83195 23.8003 3.832 23.5156C3.82562 20.1154 3.82448 16.7154 3.82858 13.3157C3.82858 13.2637 3.83336 13.2118 3.83747 13.1222C3.94889 13.1865 4.03844 13.2357 4.12594 13.289C8.24756 15.8055 12.3676 18.3237 16.486 20.8434C17.1696 21.2625 17.7971 21.2631 18.48 20.8434C22.6213 18.3077 26.7684 15.7807 30.9214 13.2624C31.0042 13.2118 31.0903 13.166 31.1751 13.1174L31.1716 24.0139Z" fill="white"/>
<path d="M17.522 7.42304C20.672 7.42304 23.8222 7.42304 26.9726 7.42304C28.6064 7.42304 29.8437 8.12304 30.6531 9.55175C30.7898 9.78895 30.8582 10.0603 30.9696 10.3119C31.0564 10.5108 31.0017 10.6202 30.811 10.7364C28.022 12.4304 25.2365 14.1302 22.4548 15.836C20.877 16.8003 19.2995 17.7651 17.7222 18.7304C17.5746 18.8213 17.4727 18.8295 17.3182 18.7351C12.9405 16.0614 8.55981 13.3922 4.17616 10.7275C3.99569 10.6182 3.96766 10.5177 4.0244 10.3222C4.52957 8.57216 6.095 7.42577 8.01727 7.42372C11.185 7.42053 14.3533 7.4203 17.522 7.42304Z" fill="white"/>
</svg>
