<svg width="36" height="36" viewBox="0 0 36 36" fill="none" xmlns="http://www.w3.org/2000/svg">
<path d="M6 10.5711C6.03901 10.3845 6.07046 10.1967 6.11646 10.0123C6.23905 9.50397 6.49651 9.03798 6.86178 8.66331C7.5349 7.98473 8.20802 7.30615 8.89337 6.63919C9.46168 6.08562 10.1237 5.81466 10.9034 6.14086C11.1801 6.25976 11.4326 6.42848 11.6482 6.63861C12.6672 7.63526 13.6716 8.64703 14.6725 9.66229C15.1192 10.1147 15.4056 10.6421 15.3055 11.309C15.231 11.8062 14.9462 12.1853 14.6067 12.5301C14.0384 13.1 13.4661 13.6658 12.8966 14.235C12.6054 14.5287 12.5979 14.606 12.7673 14.9863C13.4154 16.44 14.4094 17.6489 15.4743 18.8043C16.5393 19.9597 17.7039 20.9854 19.0321 21.8198C19.4845 22.1042 19.9725 22.3315 20.4441 22.5862C20.6625 22.7025 20.8255 22.6112 20.9793 22.4559C21.5697 21.8611 22.152 21.2569 22.7593 20.679C22.9956 20.4425 23.269 20.2461 23.5687 20.0975C24.176 19.8195 24.7629 19.9463 25.2946 20.333C25.4289 20.4334 25.5554 20.5438 25.6731 20.6633C26.6356 21.6215 27.6028 22.5752 28.5513 23.5474C28.7893 23.7828 28.9861 24.0564 29.1336 24.3568C29.4247 24.9964 29.3129 25.6331 28.8547 26.1379C28.1122 26.9566 27.3256 27.7375 26.5319 28.5074C26.0952 28.9307 25.5339 29.1424 24.9336 29.2412C24.8608 29.2534 24.7892 29.2761 24.7169 29.2941H23.7597C23.7044 29.2796 23.6496 29.2621 23.5931 29.2505C22.874 29.0999 22.1374 29.0104 21.4387 28.79C19.3687 28.1341 17.496 27.0717 15.7323 25.8244C12.5367 23.5625 9.97758 20.7133 8.04091 17.3099C7.31014 16.0248 6.71621 14.6764 6.32608 13.2471C6.18633 12.7331 6.1083 12.2004 6.00233 11.6771L6 10.5711Z" fill="white"/>
</svg>
