<svg width="12" height="12" viewBox="0 0 12 12" fill="none" xmlns="http://www.w3.org/2000/svg">
<g opacity="0.7">
<path d="M5.77427 1.5C5.92638 1.5 6.07825 1.5 6.23036 1.5C6.28192 1.5068 6.33349 1.51359 6.38505 1.52062C7.44958 1.66523 8.28255 2.18344 8.85747 3.09328C9.28146 3.76406 9.44247 4.50188 9.33935 5.29266C9.27021 5.82352 9.08646 6.31828 8.8556 6.79688C8.49935 7.53539 8.04208 8.20969 7.53607 8.85211C7.0781 9.43359 6.58942 9.98766 6.05481 10.5H5.94958C5.91817 10.4705 5.88606 10.4416 5.8556 10.4112C5.21153 9.77039 4.6195 9.08508 4.08841 8.3475C3.63278 7.71469 3.22919 7.05188 2.94161 6.3232C2.65825 5.60555 2.52724 4.86867 2.72528 4.10812C3.06536 2.80266 3.89247 1.9657 5.19021 1.60406C5.37981 1.55133 5.57927 1.53375 5.77427 1.5ZM7.54614 4.87453C7.54286 4.01789 6.85005 3.32508 5.99974 3.32859C5.14146 3.33211 4.45614 4.02586 4.45872 4.88859C4.4613 5.73727 5.16231 6.42633 6.01802 6.42164C6.85849 6.41695 7.54919 5.71781 7.54614 4.87453Z" fill="white"/>
</g>
</svg>
