<svg width="10" height="10" viewBox="0 0 10 10" fill="none" xmlns="http://www.w3.org/2000/svg">
<path d="M0.3125 2.14766C0.328203 2.07242 0.340859 1.99672 0.359375 1.92242C0.408721 1.71752 0.512352 1.52969 0.659375 1.37867C0.930313 1.10516 1.20125 0.831642 1.47711 0.562813C1.70586 0.339688 1.97234 0.23047 2.28617 0.361954C2.39755 0.409875 2.49917 0.477882 2.58594 0.562579C2.99609 0.964298 3.40039 1.37211 3.80328 1.78133C3.98305 1.96367 4.09836 2.17625 4.05805 2.44508C4.02805 2.64547 3.91344 2.79828 3.7768 2.93727C3.54805 3.16695 3.31766 3.395 3.08844 3.62445C2.97125 3.74281 2.9682 3.77399 3.03641 3.92727C3.29727 4.5132 3.69734 5.00047 4.12602 5.46617C4.55469 5.93188 5.02344 6.34531 5.55805 6.68164C5.74016 6.79625 5.93656 6.88789 6.12641 6.99055C6.2143 7.03742 6.27992 7.00063 6.3418 6.93805C6.57945 6.69828 6.81383 6.45477 7.05828 6.2218C7.15341 6.12648 7.26345 6.04731 7.38406 5.98742C7.62852 5.87539 7.86477 5.92649 8.07875 6.08234C8.1328 6.12283 8.18373 6.16733 8.23109 6.21547C8.61852 6.60172 9.00781 6.98609 9.38961 7.37797C9.48541 7.47287 9.56463 7.58314 9.62399 7.70422C9.74117 7.96203 9.69617 8.21867 9.51172 8.42211C9.21289 8.75211 8.89625 9.06688 8.5768 9.37719C8.40102 9.54781 8.17508 9.63313 7.93344 9.67297C7.90414 9.67789 7.87531 9.68703 7.84625 9.6943H7.46094C7.43867 9.68844 7.41664 9.68141 7.39391 9.67672C7.10445 9.61602 6.80797 9.57992 6.52672 9.49109C5.69352 9.22672 4.93977 8.79852 4.22984 8.29578C2.94359 7.38406 1.91352 6.23563 1.13398 4.86383C0.839844 4.34586 0.600781 3.80234 0.44375 3.22625C0.3875 3.01906 0.356094 2.80438 0.313438 2.59344L0.3125 2.14766Z" fill="white"/>
</svg>
