<svg width="10" height="8" viewBox="0 0 10 8" fill="none" xmlns="http://www.w3.org/2000/svg">
<path d="M0.3125 3.65038C0.391719 3.48843 0.535859 3.40288 0.694062 3.34147C1.32187 3.09772 1.95055 2.85608 2.58008 2.61655C4.73445 1.79155 6.88891 0.966942 9.04344 0.142723C9.09429 0.122008 9.14727 0.106918 9.20141 0.097723C9.49016 0.0569417 9.69547 0.229207 9.68726 0.535301C9.68187 0.734285 9.63734 0.933739 9.59562 1.12991C9.15297 3.21507 8.70805 5.29905 8.26086 7.38186C8.2385 7.48914 8.20209 7.59301 8.15258 7.69077C8.05672 7.8771 7.89125 7.94694 7.69109 7.88671C7.59216 7.85803 7.49859 7.81338 7.41406 7.75452C6.74164 7.26772 6.0732 6.77577 5.40336 6.28546C5.37664 6.26577 5.34945 6.24679 5.31641 6.22311C5.28969 6.24655 5.26461 6.26718 5.24094 6.28968C4.89875 6.6164 4.55664 6.94335 4.21461 7.27054C4.16605 7.32029 4.10769 7.35942 4.04322 7.38545C3.97874 7.41147 3.90957 7.42382 3.84008 7.42171C3.84898 7.28952 3.85742 7.15991 3.86656 7.03054C3.90734 6.45819 3.94719 5.88585 3.99148 5.31374C3.99709 5.26735 4.01863 5.22436 4.05242 5.1921C5.3493 4.02319 6.64805 2.85577 7.94867 1.68983C7.95758 1.68186 7.97 1.67554 7.97562 1.66639C8.00023 1.62116 8.0225 1.57499 8.04594 1.52905C7.99016 1.51804 7.93156 1.49108 7.8793 1.50046C7.81602 1.51171 7.75461 1.54733 7.69836 1.58343C6.08164 2.59358 4.46492 3.60389 2.8482 4.61436C2.80892 4.63855 2.76193 4.64692 2.71672 4.6378C2.02883 4.42686 1.34234 4.21311 0.655625 3.99936C0.516406 3.9553 0.390078 3.89296 0.3125 3.76054V3.65038Z" fill="white"/>
</svg>
