<svg width="10" height="12" viewBox="0 0 10 12" fill="none" xmlns="http://www.w3.org/2000/svg">
<path d="M5.00234 0.816113C5.44766 0.816113 5.89297 0.788926 6.335 0.821035C7.07459 0.876607 7.77904 1.15898 8.35225 1.62964C8.92546 2.10029 9.33953 2.73632 9.53797 3.45096C9.62445 3.76549 9.66242 4.09971 9.67437 4.42666C9.695 5.00182 9.68797 5.57838 9.67555 6.15377C9.64062 7.81619 8.32531 9.32299 6.68141 9.58572C6.41562 9.62791 6.14234 9.63775 5.87281 9.64244C5.37336 9.65111 4.87367 9.64947 4.37422 9.64244C4.25234 9.64057 4.17078 9.68018 4.08781 9.76432C3.63922 10.2198 3.18695 10.6716 2.73102 11.1197C2.68297 11.1666 2.59859 11.2076 2.53555 11.202C2.42563 11.1919 2.39914 11.0965 2.39938 10.9924C2.40125 10.4717 2.3975 9.95088 2.40266 9.4301C2.40266 9.33119 2.37102 9.28432 2.28547 9.23627C1.03156 8.53689 0.366875 7.47166 0.322813 6.03494C0.305469 5.46822 0.312735 4.90033 0.322813 4.33314C0.355157 2.65127 1.625 1.17166 3.27969 0.866973C3.76766 0.777207 4.2582 0.808613 4.74828 0.799941C4.83289 0.798535 4.91773 0.799941 5.00234 0.799941V0.816113ZM6.29938 8.34682C6.51031 8.35127 6.70555 8.30627 6.86187 8.15932C7.04375 7.98846 7.22469 7.81596 7.39742 7.63572C7.60578 7.41846 7.59734 7.11494 7.38711 6.89721C7.14922 6.65064 6.91156 6.40338 6.67203 6.15822C6.36969 5.84861 5.96562 5.9201 5.78867 6.31268C5.66797 6.58033 5.38672 6.71768 5.11672 6.60564C4.49375 6.34783 4.0468 5.90088 3.80422 5.26971C3.68117 4.94861 3.8075 4.71096 4.12789 4.58275C4.46844 4.44635 4.57484 4.04135 4.32875 3.76971C4.07914 3.49361 3.81945 3.22572 3.55297 2.9658C3.32445 2.74291 3.00828 2.75627 2.78094 2.98057C2.63047 3.12939 2.48328 3.2815 2.33141 3.42893C2.18903 3.56492 2.10501 3.75087 2.09703 3.9476C2.07031 4.37229 2.20344 4.76018 2.39422 5.12627C3.02703 6.3401 3.95 7.279 5.12703 7.969C5.48961 8.17947 5.87352 8.33252 6.29938 8.34682ZM7.90227 4.73744C7.89125 4.04393 7.6932 3.50463 7.28516 3.05393C6.75969 2.47408 6.10297 2.19518 5.31523 2.24439C5.20109 2.25166 5.12211 2.3283 5.13172 2.42721C5.14203 2.53502 5.21586 2.57674 5.31617 2.58025C5.37523 2.58236 5.43453 2.58025 5.49383 2.5826C6.82602 2.62291 7.76937 3.81025 7.50523 5.11385C7.47828 5.24744 7.51836 5.32877 7.62242 5.35291C7.72648 5.37705 7.82141 5.31166 7.8425 5.18135C7.87133 5.00604 7.89008 4.82955 7.90227 4.73697V4.73744ZM5.43781 3.2733C6.11539 3.2733 6.67203 3.7076 6.81195 4.34814C6.84289 4.48877 6.83141 4.64088 6.83281 4.7876C6.83398 4.90057 6.89258 4.98682 6.98937 5.00041C7.08617 5.014 7.1682 4.94229 7.18602 4.82908C7.19289 4.78314 7.19673 4.73678 7.1975 4.69033C7.20369 4.33292 7.09978 3.98225 6.89987 3.6859C6.69996 3.38956 6.41372 3.16188 6.08 3.03377C5.8301 2.93884 5.56137 2.90408 5.29555 2.93229C5.18094 2.94377 5.11133 3.02791 5.12117 3.12658C5.13102 3.22525 5.21492 3.29064 5.32883 3.28338C5.37078 3.28104 5.41297 3.27564 5.43781 3.2733ZM5.555 3.6401C5.40781 3.63588 5.32672 3.68697 5.31453 3.78869C5.30352 3.88244 5.375 3.96002 5.48211 3.97338C5.91594 4.02705 6.11492 4.22627 6.17094 4.66268C6.18383 4.76463 6.23891 4.82674 6.34297 4.83189C6.43836 4.83588 6.50375 4.75596 6.50703 4.64439C6.51641 4.13088 6.06617 3.65604 5.5543 3.6401H5.555Z" fill="white"/>
</svg>
