<svg width="12" height="9" viewBox="0 0 12 9" fill="none" xmlns="http://www.w3.org/2000/svg">
<path d="M0 8.59091V5.86364C0 5.12121 0.151515 4.375 0.454545 3.625C0.757576 2.875 1.14015 2.18182 1.60227 1.54545C2.06439 0.909091 2.5303 0.39394 3 0L5.59091 1.31818C5.19697 1.97727 4.89015 2.66667 4.67045 3.38636C4.45833 4.10606 4.35606 4.93182 4.36364 5.86364V8.59091H0ZM5.68182 8.59091V5.86364C5.68182 5.12121 5.83333 4.375 6.13636 3.625C6.43939 2.875 6.82197 2.18182 7.28409 1.54545C7.74621 0.909091 8.21212 0.39394 8.68182 0L11.2727 1.31818C10.8788 1.97727 10.572 2.66667 10.3523 3.38636C10.1402 4.10606 10.0379 4.93182 10.0455 5.86364V8.59091H5.68182Z" fill="white"/>
</svg>
