<svg width="12" height="9" viewBox="0 0 12 9" fill="none" xmlns="http://www.w3.org/2000/svg">
<path d="M5.59091 0V2.72727C5.59091 3.4697 5.43939 4.21212 5.13636 4.95455C4.84091 5.68939 4.46212 6.375 4 7.01136C3.54545 7.64015 3.07576 8.16667 2.59091 8.59091L0 7.27273C0.318182 6.72727 0.602273 6.0947 0.852273 5.375C1.10227 4.6553 1.22727 3.77273 1.22727 2.72727V0H5.59091ZM11.2273 0V2.72727C11.2273 3.4697 11.0758 4.21212 10.7727 4.95455C10.4773 5.68939 10.0985 6.375 9.63636 7.01136C9.18182 7.64015 8.71212 8.16667 8.22727 8.59091L5.63636 7.27273C5.95455 6.72727 6.23864 6.0947 6.48864 5.375C6.73864 4.6553 6.86364 3.77273 6.86364 2.72727V0H11.2273Z" fill="white"/>
</svg>
