<svg width="337" height="377" viewBox="0 0 337 377" fill="none" xmlns="http://www.w3.org/2000/svg">
<g opacity="0.15">
<path d="M316.13 11.396C308.471 5.4315 299.679 2.31899 290.467 0H46.2579C45.3033 0.310303 44.3724 0.73431 43.3941 0.914333C14.138 6.33872 -5.59115 36.6134 1.42028 65.3627C7.34211 89.654 26.8012 105.868 51.5497 107.133C61.5718 107.645 71.1722 105.271 79.5291 100.628V301.878L101.371 291.726V376.924H120.15V282.904L101.392 291.707V200.7H101.374V125.796L120.15 117.048V200.7H120.169V282.904L136.379 275.365L136.011 215.682H136V109.658L154.758 100.91V200.7H154.786V266.818L170.614 259.288L170.635 215.576H170.593V93.5222L189.417 84.746V215.573H189.414V250.562L205.157 243.321L205.176 210.381H205.157V176.07H205.162C205.162 140.231 205.548 77.2277 205.548 77.2277L223.929 68.4728V176.072H223.934V200.702H223.955L223.934 234.568L245.819 224.243V92.0607C254.941 100.778 267.187 106.489 280.286 107.09C303.303 108.147 325.067 94.3465 333.175 72.5921C341.402 50.5226 334.355 25.587 316.127 11.396H316.13ZM53.6815 73.1914C42.9465 73.1629 34.1585 64.4792 34.0187 53.7583C33.879 43.0824 43.117 33.8136 53.8473 33.8634C64.5445 33.9131 73.2615 42.6798 73.3491 53.4788C73.4415 64.5076 64.7459 73.2221 53.6815 73.1937V73.1914ZM283.114 73.1914C272.029 73.2435 263.331 64.5905 263.369 53.5522C263.406 42.7627 272.088 33.9676 282.802 33.8657C293.534 33.7639 302.768 42.9593 302.704 53.6849C302.637 64.382 293.842 73.1416 283.114 73.1914Z" fill="white"/>
<path d="M135.99 376.919H154.77V266.813L135.99 275.571V376.919Z" fill="white"/>
<path d="M170.616 376.919H189.395V250.559L170.616 259.423V376.919Z" fill="white"/>
<path d="M205.157 377.284H223.934V234.561L205.157 243.681V377.284Z" fill="white"/>
<path d="M60.75 376.919H79.5293V301.873L60.75 310.365V376.919Z" fill="white"/>
</g>
</svg>
