<svg width="264" height="88" viewBox="0 0 264 88" fill="none" xmlns="http://www.w3.org/2000/svg">
<g clip-path="url(#clip0_53_977)">
<path d="M65.2237 71.2826V59.2827H67.7603V64.2338H72.9105V59.2827H75.4416V71.2826H72.9105V66.326H67.7603V71.2826H65.2237Z" fill="white"/>
<path d="M79.6029 71.2826H76.8837L81.0263 59.2827H84.2955L88.4326 71.2826H85.7134L82.7071 62.025H82.6136L79.6018 71.2826H79.6029ZM79.4335 66.5658H85.8553V68.5458H79.4335V66.5658Z" fill="white"/>
<path d="M99.9001 63.4837H97.3338C97.2865 63.1515 97.1908 62.8556 97.0467 62.596C96.9026 62.3364 96.7167 62.1142 96.4901 61.9305C96.2635 61.7468 96.0028 61.606 95.708 61.5081C95.4132 61.4102 95.0942 61.3618 94.7499 61.3618C94.1284 61.3618 93.5883 61.5147 93.1274 61.8216C92.6665 62.1285 92.309 62.574 92.0549 63.157C91.8008 63.7411 91.6743 64.4495 91.6743 65.2811C91.6743 66.1127 91.8019 66.8552 92.0582 67.4371C92.3145 68.019 92.672 68.459 93.1329 68.756C93.5938 69.053 94.1273 69.2015 94.7323 69.2015C95.0722 69.2015 95.3879 69.1564 95.6783 69.0662C95.9687 68.976 96.2283 68.844 96.4549 68.6702C96.6815 68.4964 96.8696 68.2841 97.0203 68.0344C97.171 67.7847 97.2755 67.4998 97.3338 67.1786L99.9001 67.1907C99.8341 67.7418 99.6691 68.272 99.4051 68.7813C99.1411 69.2906 98.788 69.746 98.3447 70.1464C97.9014 70.5468 97.3734 70.8636 96.7629 71.0957C96.1513 71.3278 95.4616 71.4444 94.6916 71.4444C93.6213 71.4444 92.6654 71.2024 91.8239 70.7184C90.9824 70.2344 90.318 69.5326 89.8318 68.6152C89.3456 67.6978 89.1025 66.5857 89.1025 65.2811C89.1025 63.9765 89.3489 62.8589 89.8406 61.9415C90.3323 61.0241 91.0011 60.3234 91.8448 59.8405C92.6885 59.3576 93.6378 59.1167 94.6927 59.1167C95.3879 59.1167 96.0336 59.2146 96.6287 59.4093C97.2249 59.6051 97.7529 59.8889 98.2138 60.2618C98.6747 60.6347 99.0509 61.0912 99.3413 61.6302C99.6317 62.1692 99.8187 62.7863 99.9012 63.4815L99.9001 63.4837Z" fill="white"/>
<path d="M101.072 71.2827V69.2433L101.411 69.2136C101.849 69.1784 102.202 69.0112 102.472 68.7131C102.741 68.4139 102.944 67.9354 103.078 67.2776C103.213 66.6198 103.3 65.7332 103.339 64.62L103.538 59.2817H111.682V71.2816H109.216V61.3145H105.894L105.707 65.4923C105.644 66.8365 105.485 67.9332 105.23 68.7857C104.973 69.6371 104.567 70.2663 104.011 70.6722C103.454 71.0781 102.693 71.2816 101.728 71.2816H101.072V71.2827Z" fill="white"/>
<path d="M113.769 71.2826V59.2827H121.855V61.3749H116.307V64.2338H121.439V66.326H116.307V69.1915H121.879V71.2837H113.77L113.769 71.2826Z" fill="white"/>
<path d="M123.226 74.1768V69.2609H124.04C124.317 69.0618 124.571 68.7791 124.801 68.4139C125.031 68.0487 125.229 67.5427 125.393 66.8959C125.556 66.2491 125.674 65.4032 125.745 64.356L126.084 59.2817H134.024V69.2598H135.337V74.1636H132.899V71.2805H125.662V74.1746H123.224L123.226 74.1768ZM126.97 69.2609H131.587V61.3739H128.37L128.183 64.356C128.133 65.1491 128.049 65.852 127.935 66.4658C127.819 67.0796 127.681 67.6153 127.519 68.074C127.357 68.5327 127.175 68.9287 126.971 69.2609H126.97Z" fill="white"/>
<path d="M147.466 63.4837H144.9C144.853 63.1515 144.757 62.8556 144.613 62.596C144.469 62.3364 144.283 62.1142 144.056 61.9305C143.83 61.7468 143.569 61.606 143.274 61.5081C142.979 61.4102 142.66 61.3618 142.316 61.3618C141.695 61.3618 141.154 61.5147 140.694 61.8216C140.233 62.1285 139.875 62.574 139.621 63.157C139.367 63.7411 139.241 64.4495 139.241 65.2811C139.241 66.1127 139.368 66.8552 139.624 67.4371C139.881 68.019 140.238 68.459 140.699 68.756C141.16 69.053 141.693 69.2015 142.298 69.2015C142.638 69.2015 142.954 69.1564 143.245 69.0662C143.535 68.976 143.794 68.844 144.021 68.6702C144.248 68.4964 144.436 68.2841 144.586 68.0344C144.737 67.7847 144.842 67.4998 144.9 67.1786L147.466 67.1907C147.4 67.7418 147.235 68.272 146.971 68.7813C146.707 69.2906 146.354 69.746 145.911 70.1464C145.468 70.5468 144.94 70.8636 144.329 71.0957C143.718 71.3278 143.028 71.4444 142.258 71.4444C141.187 71.4444 140.232 71.2024 139.39 70.7184C138.549 70.2344 137.884 69.5326 137.398 68.6152C136.912 67.6978 136.669 66.5857 136.669 65.2811C136.669 63.9765 136.915 62.8589 137.407 61.9415C137.898 61.0241 138.567 60.3234 139.411 59.8405C140.255 59.3576 141.204 59.1167 142.259 59.1167C142.954 59.1167 143.6 59.2146 144.195 59.4093C144.791 59.6051 145.319 59.8889 145.78 60.2618C146.241 60.6347 146.617 61.0912 146.907 61.6302C147.198 62.1692 147.385 62.7863 147.467 63.4815L147.466 63.4837Z" fill="white"/>
<path d="M149.288 71.2826V59.2827H154.093C154.976 59.2827 155.712 59.4136 156.302 59.6754C156.891 59.9372 157.334 60.2991 157.631 60.7622C157.928 61.2253 158.077 61.7577 158.077 62.3594C158.077 62.828 157.983 63.2394 157.795 63.5925C157.608 63.9456 157.351 64.2349 157.025 64.4593C156.7 64.6837 156.327 64.8432 155.909 64.9367V65.0533C156.366 65.0731 156.794 65.2018 157.195 65.4405C157.595 65.6792 157.921 66.0114 158.17 66.4393C158.42 66.8672 158.546 67.3754 158.546 67.9661C158.546 68.603 158.388 69.1706 158.074 69.6678C157.759 70.1661 157.295 70.5599 156.682 70.8481C156.068 71.1374 155.313 71.2815 154.415 71.2815H149.288V71.2826ZM151.825 64.3042H153.706C154.053 64.3042 154.362 64.2426 154.634 64.1194C154.906 63.9962 155.12 63.8213 155.278 63.5947C155.437 63.3681 155.516 63.0964 155.516 62.7807C155.516 62.3473 155.363 61.9975 155.056 61.7324C154.749 61.4673 154.315 61.3342 153.753 61.3342H151.825V64.3053V64.3042ZM151.825 69.208H153.893C154.6 69.208 155.115 69.0727 155.439 68.801C155.764 68.5293 155.925 68.1674 155.925 67.7142C155.925 67.382 155.845 67.0894 155.686 66.8353C155.525 66.5812 155.297 66.3821 155.002 66.238C154.708 66.0939 154.357 66.0213 153.951 66.0213H151.823V69.2091L151.825 69.208Z" fill="white"/>
<path d="M160.192 71.2826V59.2827H168.278V61.3749H162.73V64.2338H167.862V66.326H162.73V69.1915H168.302V71.2837H160.193L160.192 71.2826Z" fill="white"/>
<path d="M169.842 61.3739V59.2817H179.697V61.3739H176.023V71.2816H173.515V61.3739H169.841H169.842Z" fill="white"/>
<path d="M181.326 71.2826V59.2827H183.863V64.2338H189.013V59.2827H191.544V71.2826H189.013V66.326H183.863V71.2826H181.326Z" fill="white"/>
<path d="M193.638 71.2826V59.2827H196.174V64.2338H201.324V59.2827H203.856V71.2826H201.324V66.326H196.174V71.2826H193.638Z" fill="white"/>
<path d="M207.618 63.7179H210.477C211.429 63.7179 212.251 63.8708 212.941 64.1777C213.63 64.4846 214.163 64.9169 214.538 65.4757C214.913 66.0345 215.098 66.6923 215.094 67.4502C215.098 68.2037 214.913 68.8692 214.538 69.4456C214.163 70.022 213.63 70.4719 212.941 70.7964C212.251 71.1209 211.43 71.2826 210.477 71.2826H205.994V59.2827H208.525V69.2432H210.477C210.933 69.2432 211.318 69.1607 211.63 68.9946C211.943 68.8285 212.18 68.6074 212.342 68.3324C212.504 68.0574 212.583 67.7549 212.58 67.4271C212.583 66.9508 212.405 66.5471 212.044 66.2171C211.682 65.8871 211.16 65.7221 210.477 65.7221H207.618V63.7179V63.7179ZM218.604 59.2827V71.2826H216.073V59.2827H218.604V59.2827Z" fill="white"/>
<path d="M220.695 71.2826V59.2827H228.782V61.3749H223.233V64.2338H228.366V66.326H223.233V69.1915H228.806V71.2837H220.697L220.695 71.2826Z" fill="white"/>
<path d="M64.6286 81.4733H70.6313V82.5524H64.6286V81.4733ZM64.6286 81.4733H65.7891V84.6556H64.6286V81.4733ZM64.8541 81.4733H65.0477C65.2303 81.4733 65.3876 81.3919 65.5185 81.228C65.6505 81.0641 65.7506 80.8265 65.821 80.5152C65.8903 80.2039 65.9255 79.8277 65.9255 79.3877V74.1913H67.086V79.6132C67.086 80.5537 66.9254 81.2599 66.6031 81.7318C66.2808 82.2048 65.8166 82.4413 65.2094 82.4413H64.8552V81.4744L64.8541 81.4733ZM66.7076 74.1902H69.5038V75.2693H66.7076V74.1902ZM69.2772 74.1902H70.4377V82.5535H69.2772V74.1902ZM70.3651 81.4733H71.5256V84.6556H70.3651V81.4733Z" fill="white"/>
<path d="M73.4627 82.3477C73.0843 82.1299 72.7939 81.8131 72.5926 81.3973C72.3913 80.9815 72.2901 80.4799 72.2901 79.8947V76.994C72.2901 76.3714 72.388 75.839 72.5838 75.399C72.7796 74.959 73.0634 74.6224 73.4341 74.3914C73.8048 74.1604 74.2503 74.0449 74.7717 74.0449C75.2931 74.0449 75.7562 74.1505 76.1291 74.3628C76.502 74.5751 76.7869 74.8853 76.9827 75.2934C77.1785 75.7015 77.2764 76.1932 77.2764 76.7674V78.8464H72.9985V77.7673H76.1159V76.8004C76.1159 76.2691 75.9982 75.8566 75.7617 75.564C75.5252 75.2714 75.1952 75.1251 74.7706 75.1251C74.346 75.1251 74.027 75.2791 73.796 75.5882C73.565 75.8973 73.4495 76.3362 73.4495 76.906V79.9277C73.4495 80.4546 73.5705 80.8638 73.8125 81.1564C74.0545 81.449 74.3955 81.5953 74.8355 81.5953C75.2491 81.5953 75.5703 81.4798 75.798 81.2488C76.0268 81.0178 76.1401 80.69 76.1401 80.2654V80.217H77.3006V80.2654C77.3006 81.0332 77.0861 81.6272 76.656 82.0463C76.2259 82.4654 75.6198 82.6744 74.8355 82.6744C74.2987 82.6744 73.8411 82.5655 73.4616 82.3477H73.4627Z" fill="white"/>
<path d="M77.9463 81.5458C78.1773 81.5458 78.3544 81.4688 78.4776 81.3159C78.6008 81.163 78.6624 80.9463 78.6624 80.6669V74.189H79.8229V80.7307C79.8229 81.1278 79.7558 81.4688 79.6216 81.7537C79.4874 82.0386 79.2916 82.2542 79.0331 82.4027C78.7757 82.5501 78.4666 82.6238 78.1069 82.6238H77.9463V81.5447V81.5458ZM79.6865 74.1901H82.4827V75.2692H79.6865V74.1901ZM82.0955 74.1901H83.256V82.5534H82.0955V74.1901V74.1901Z" fill="white"/>
<path d="M85.456 82.0892C85.0908 81.6998 84.9082 81.1135 84.9082 80.3292C84.9082 79.3898 85.1216 78.6869 85.5484 78.2227C85.9752 77.7585 86.6209 77.5253 87.4855 77.5253H88.976L89.0893 78.3635H87.4943C86.9839 78.3635 86.6022 78.5274 86.3503 78.8552C86.0973 79.183 85.9719 79.6747 85.9719 80.3292C85.9719 80.8286 86.0874 81.2026 86.3184 81.449C86.5494 81.6965 86.8959 81.8197 87.3579 81.8197C87.8738 81.8197 88.2599 81.6844 88.5184 81.4127C88.7758 81.1421 88.9056 80.7318 88.9056 80.184L89.075 80.877C89.0695 81.2741 88.9925 81.6074 88.8451 81.8758C88.6977 82.1442 88.4788 82.3444 88.1884 82.4764C87.898 82.6084 87.5361 82.6733 87.1005 82.6733C86.3701 82.6733 85.8223 82.4786 85.4571 82.0892H85.456ZM88.9045 76.4297C88.9045 75.9787 88.7791 75.63 88.5294 75.3825C88.2797 75.135 87.9266 75.0118 87.4701 75.0118C87.0675 75.0118 86.754 75.135 86.5318 75.3825C86.3085 75.63 86.1974 75.9787 86.1974 76.4297H85.0776C85.0776 75.6729 85.2899 75.0855 85.7145 74.6697C86.1391 74.2539 86.7375 74.0449 87.5108 74.0449C88.0322 74.0449 88.4777 74.1384 88.8484 74.3265C89.2191 74.5146 89.5007 74.7852 89.6943 75.1405C89.8879 75.4958 89.9847 75.9248 89.9847 76.4297V82.5523H88.9056V76.4297H88.9045Z" fill="white"/>
<path d="M57.9406 82.8107C57.9406 75.1415 57.9406 67.4723 57.9406 59.8031C57.9406 59.7371 57.9373 59.6711 57.9406 59.6051C57.9505 59.3895 57.8779 59.2179 57.6821 59.1101H36.3718C36.1155 59.241 36.1122 59.4742 36.1122 59.7184C36.1133 67.4448 36.1133 75.1701 36.1133 82.8965C36.1133 83.4256 36.1936 83.507 36.7194 83.507C38.9007 83.507 41.0831 83.507 43.2644 83.507H43.6263V83.8414C43.6263 85.0789 43.6186 86.3164 43.6351 87.5528C43.6373 87.7288 43.7143 87.9521 43.8375 88.0654C44.0124 88.2249 44.206 88.0599 44.3677 87.9455C45.1938 87.3647 46.0221 86.7861 46.8427 86.1976C46.9824 86.0975 47.0748 86.1019 47.2101 86.1998C48.0395 86.7927 48.8755 87.3757 49.7093 87.9631C49.8666 88.0742 50.0492 88.2227 50.2153 88.0665C50.333 87.9565 50.4144 87.7475 50.4166 87.5803C50.4331 86.334 50.4254 85.0866 50.4254 83.8403V83.5059H50.7873C52.9411 83.5059 55.0938 83.5059 57.2476 83.5059C57.3235 83.5059 57.3983 83.5081 57.4742 83.5059C57.8174 83.4927 57.9241 83.3838 57.9384 83.0384C57.9417 82.9625 57.9384 82.8877 57.9384 82.8118L57.9406 82.8107ZM46.6634 85.2824C46.6634 85.3561 46.6271 85.4595 46.571 85.4991C45.8538 86.0139 45.1311 86.521 44.3754 87.0534V81.1189C44.5745 81.1024 44.7527 81.0848 44.9298 81.0738C45.2125 81.0562 45.4501 81.1574 45.6272 81.3752C45.8802 81.6865 46.1519 81.9659 46.5523 82.0891C46.6051 82.1056 46.6612 82.2156 46.6612 82.2827C46.6678 83.2826 46.6678 84.2825 46.6612 85.2824H46.6634ZM49.6818 87.0501C49.409 86.8609 49.1648 86.6915 48.9217 86.521C48.4663 86.2009 48.0065 85.8874 47.5621 85.5552C47.4741 85.4892 47.396 85.3462 47.3949 85.2373C47.3817 84.266 47.3894 83.2947 47.385 82.3223C47.385 82.1793 47.4312 82.1155 47.5665 82.0528C47.7766 81.956 48.0263 81.8526 48.1506 81.6766C48.5334 81.131 49.0174 80.9495 49.6829 81.1508V87.0501H49.6818ZM49.4255 80.361C48.6995 80.284 48.144 80.5117 47.7007 81.0969C47.3421 81.5699 46.7206 81.5589 46.34 81.0837C45.933 80.5755 45.4457 80.284 44.7758 80.3808C44.5888 80.3665 44.393 80.3841 44.217 80.3335C43.7913 80.2114 43.5713 79.8055 43.6428 79.2951C43.7319 78.6571 43.5163 78.1511 43.0202 77.7496C42.4086 77.2557 42.4141 76.6914 43.029 76.2008C43.5185 75.8092 43.7297 75.3087 43.645 74.6806C43.5449 73.9392 43.986 73.5069 44.7318 73.6015C45.3423 73.6785 45.8461 73.4794 46.2355 73.0009C46.7591 72.3552 47.3003 72.353 47.8206 72.9965C48.2166 73.486 48.7281 73.6829 49.3496 73.5982C50.0514 73.5036 50.5101 73.9436 50.4155 74.6465C50.3264 75.3087 50.5464 75.8246 51.0678 76.2327C51.6354 76.6771 51.6332 77.2733 51.0634 77.7265C50.5464 78.1379 50.3253 78.6538 50.4155 79.3171C50.5068 79.9892 50.0987 80.4314 49.4277 80.361H49.4255ZM57.197 82.7645H50.4265V81.5941C50.4265 81.5094 50.4331 81.4236 50.4254 81.3389C50.4001 81.0474 50.4551 80.823 50.7037 80.6019C51.0711 80.2741 51.213 79.8132 51.1327 79.3138C51.0612 78.8672 51.2141 78.5372 51.5573 78.2479C52.4384 77.5065 52.4351 76.445 51.5463 75.7003C51.1976 75.4077 51.0777 75.0744 51.1316 74.63C51.2559 73.6092 50.4485 72.7798 49.4178 72.8766C48.9338 72.9217 48.5741 72.7941 48.2551 72.4058C47.5863 71.5918 46.4687 71.5874 45.8032 72.3992C45.4776 72.7963 45.1091 72.9239 44.6152 72.8755C43.6098 72.7765 42.7958 73.6169 42.9201 74.6212C42.9762 75.0777 42.8486 75.4154 42.4922 75.7135C41.621 76.4406 41.621 77.5164 42.4889 78.2424C42.8431 78.5394 42.9861 78.876 42.9201 79.3336C42.8387 79.9001 43.0554 80.3643 43.4767 80.7438C43.5449 80.8054 43.6175 80.9066 43.6197 80.9902C43.6318 81.5754 43.6263 82.1606 43.6263 82.7755H36.8591V59.8658H57.1959V82.7645H57.197Z" fill="white"/>
<path d="M50.0613 88.2446C49.9161 88.2446 49.7786 88.1467 49.6763 88.073L49.6466 88.0521C49.3771 87.8618 49.1076 87.6726 48.8381 87.4834C48.2826 87.0929 47.7095 86.6903 47.1474 86.2888C47.0462 86.2162 47.0055 86.2162 46.9076 86.2866C46.2432 86.7629 45.5623 87.2414 44.9034 87.7034L44.3886 88.0653C44.2291 88.1797 43.9893 88.3524 43.7627 88.1467C43.6021 88.0004 43.5262 87.7375 43.524 87.5549C43.5108 86.6166 43.513 85.6629 43.5141 84.74C43.5141 84.4408 43.5141 84.1405 43.5141 83.8413V83.6169H41.5396C39.9325 83.6169 38.3243 83.6169 36.7172 83.6169C36.1287 83.6169 36.0011 83.4893 36.0011 82.8964V76.9784C36.0011 71.2254 36.0011 65.4713 36 59.7183C36 59.4763 36 59.176 36.3201 59.0121L36.3432 59H57.7085L57.7327 59.0132C57.9549 59.1353 58.0616 59.3355 58.0484 59.6094C58.0462 59.6512 58.0473 59.6941 58.0484 59.7359V59.8019V82.8095V82.8755C58.0484 82.9305 58.0495 82.9855 58.0484 83.0405C58.0319 83.4431 57.8779 83.5982 57.4786 83.6136C57.4236 83.6158 57.3675 83.6158 57.3125 83.6147H57.2476H50.5354V83.8391C50.5354 84.1361 50.5354 84.4331 50.5354 84.7301C50.5365 85.664 50.5376 86.6298 50.5255 87.5802C50.5233 87.7848 50.4254 88.0169 50.289 88.1445C50.2131 88.216 50.135 88.2424 50.0591 88.2424L50.0613 88.2446ZM47.0253 86.0138C47.1056 86.0138 47.1859 86.0457 47.2761 86.1095C47.8371 86.5099 48.4102 86.9136 48.9657 87.303C49.2352 87.4922 49.5058 87.6825 49.7753 87.8728L49.8061 87.8948C49.9887 88.0246 50.0668 88.0576 50.1427 87.9872C50.234 87.9014 50.3077 87.7232 50.3088 87.5802C50.3209 86.632 50.3198 85.6662 50.3187 84.7334C50.3187 84.4364 50.3187 84.1394 50.3187 83.8413V83.3969H57.318C57.3697 83.3969 57.4214 83.398 57.4742 83.3969C57.7602 83.3859 57.8207 83.3243 57.8328 83.035C57.835 82.9833 57.8339 82.9316 57.8339 82.8799V82.8128V59.8052V59.7425C57.8328 59.6952 57.8317 59.649 57.8339 59.6017C57.8427 59.4246 57.7855 59.3025 57.6557 59.2222H36.4026C36.2332 59.3201 36.2244 59.4774 36.2244 59.7205C36.2255 65.4735 36.2255 71.2276 36.2255 76.9806V82.8986C36.2255 83.3661 36.2585 83.3991 36.7216 83.3991C38.3287 83.3991 39.9369 83.3991 41.544 83.3991H43.7385V83.8435C43.7385 84.1427 43.7385 84.443 43.7385 84.7422C43.7374 85.664 43.7352 86.6166 43.7484 87.5538C43.7506 87.7133 43.8243 87.9036 43.9156 87.9861C43.9959 88.0587 44.0762 88.0235 44.2643 87.8893L44.7813 87.5263C45.4391 87.0643 46.1189 86.5869 46.7833 86.1106C46.8702 86.0479 46.9494 86.0171 47.0286 86.0171L47.0253 86.0138ZM44.2654 87.2645V81.0176L44.5492 80.9934C44.6779 80.9824 44.8011 80.9714 44.9232 80.9637C45.2411 80.9428 45.515 81.0616 45.713 81.3058C45.9803 81.6336 46.23 81.8745 46.5853 81.9845C46.6986 82.0197 46.7712 82.1836 46.7723 82.2826C46.7789 83.2407 46.7789 84.2505 46.7723 85.2834C46.7723 85.3868 46.7239 85.5243 46.6348 85.5892C46.065 85.9984 45.4996 86.3966 44.9012 86.8179L44.2643 87.2667L44.2654 87.2645ZM44.4854 81.2189V86.8399L44.7758 86.6353C45.3742 86.214 45.9385 85.8169 46.5072 85.4088C46.5248 85.3967 46.5534 85.3329 46.5534 85.2812C46.56 84.2494 46.5589 83.2407 46.5534 82.2826C46.5534 82.2584 46.5292 82.2078 46.5127 82.1913C46.0859 82.056 45.7944 81.7524 45.5436 81.4444C45.3896 81.2552 45.1861 81.1672 44.9386 81.1837C44.8176 81.1914 44.6977 81.2024 44.5701 81.2134L44.4865 81.22L44.4854 81.2189ZM49.7918 87.2601L49.3617 86.9609C49.1879 86.8399 49.0229 86.7255 48.859 86.61C48.7523 86.5352 48.6456 86.4615 48.5389 86.3867C48.1946 86.1469 47.8382 85.8983 47.4961 85.642C47.3795 85.5551 47.286 85.3769 47.2849 85.2383C47.2772 84.6377 47.2772 84.0272 47.2772 83.4376C47.2772 83.0658 47.2772 82.694 47.275 82.3233C47.275 82.1396 47.3432 82.0362 47.5203 81.9537L47.5775 81.9273C47.759 81.8448 47.9647 81.7502 48.0604 81.6138C48.4762 81.0209 49.0174 80.835 49.7148 81.0462L49.7929 81.0693V87.2612L49.7918 87.2601ZM49.1868 81.1793C48.8062 81.1793 48.5037 81.3608 48.2386 81.7392C48.1088 81.9251 47.8734 82.0318 47.6666 82.1264L47.6105 82.1517C47.506 82.2001 47.4917 82.2298 47.4928 82.32C47.495 82.6918 47.495 83.0636 47.495 83.4354C47.495 84.025 47.495 84.6344 47.5027 85.2328C47.5027 85.3043 47.5632 85.4165 47.6259 85.4638C47.9658 85.7179 48.32 85.9654 48.6632 86.2041C48.7699 86.2789 48.8766 86.3526 48.9833 86.4285C49.1472 86.544 49.3122 86.6573 49.4849 86.7783L49.5696 86.8377V81.2321C49.4332 81.1958 49.3045 81.1782 49.1846 81.1782L49.1868 81.1793ZM43.7363 82.8854H36.7491V59.7557H57.3059V82.8744H50.3154V81.594C50.3154 81.5665 50.3154 81.539 50.3165 81.5115C50.3176 81.4543 50.3187 81.4004 50.3143 81.3487C50.2835 80.9923 50.377 80.7448 50.6289 80.5204C50.9589 80.2256 51.0986 79.8032 51.0227 79.3313C50.9479 78.8638 51.0942 78.492 51.4858 78.1631C51.8851 77.8265 52.1051 77.4063 52.1051 76.9784C52.1051 76.5472 51.8807 76.1237 51.4759 75.7838C51.1074 75.4747 50.9633 75.104 51.0227 74.6167C51.0777 74.1635 50.9347 73.7246 50.6311 73.4122C50.3253 73.0987 49.8875 72.9425 49.4288 72.9854C48.8909 73.036 48.5026 72.8787 48.1704 72.475C47.8668 72.1054 47.4598 71.9019 47.0242 71.9019C46.5919 71.9019 46.1882 72.1032 45.889 72.4684C45.5524 72.8798 45.1553 73.0382 44.6053 72.9843C44.1609 72.9414 43.7308 73.0954 43.4261 73.4078C43.1192 73.7224 42.9751 74.1591 43.0301 74.6057C43.0917 75.1073 42.9476 75.4747 42.5626 75.7959C42.1666 76.1259 41.9488 76.545 41.9488 76.9762C41.9488 77.4063 42.1655 77.8254 42.5593 78.1554C42.9498 78.4821 43.0994 78.8605 43.029 79.3467C42.9575 79.8494 43.128 80.2795 43.5504 80.659C43.6351 80.7349 43.7264 80.8614 43.7297 80.9857C43.7385 81.4279 43.7385 81.8646 43.7374 82.3255V82.8843L43.7363 82.8854ZM36.9691 82.6654H43.5163V82.3266C43.5174 81.8668 43.5185 81.4323 43.5097 80.9923C43.5097 80.9516 43.4613 80.8768 43.4041 80.8251C42.9289 80.3983 42.7298 79.8912 42.8112 79.3181C42.8695 78.9089 42.7485 78.6031 42.4174 78.3259C41.9719 77.953 41.7277 77.4745 41.7277 76.9773C41.7277 76.4801 41.9741 76.0005 42.4207 75.6276C42.7463 75.3559 42.8629 75.0589 42.8101 74.6332C42.7463 74.1195 42.9135 73.6168 43.2666 73.2549C43.6186 72.8941 44.1136 72.7148 44.6251 72.7654C45.1014 72.8116 45.4281 72.6818 45.7174 72.3287C46.0595 71.9118 46.5226 71.6819 47.022 71.6819C47.5247 71.6819 47.9922 71.914 48.3387 72.3353C48.6225 72.6818 48.9426 72.8105 49.4068 72.7665C49.9315 72.717 50.4353 72.8963 50.7873 73.2582C51.1382 73.619 51.3032 74.1228 51.2394 74.642C51.1888 75.06 51.301 75.3504 51.6156 75.6144C52.0721 75.9972 52.3229 76.4812 52.324 76.9773C52.324 77.4712 52.0765 77.9519 51.6266 78.3303C51.2966 78.6086 51.1767 78.9056 51.2394 79.295C51.3274 79.8439 51.1624 80.3367 50.7752 80.6832C50.5739 80.8636 50.5079 81.0385 50.5332 81.3278C50.5387 81.3916 50.5376 81.4543 50.5365 81.5148C50.5365 81.5412 50.5354 81.5665 50.5354 81.5929V82.6533H57.0859V59.9746H36.9691V82.6643V82.6654ZM47.0363 81.5555C46.7426 81.5555 46.4577 81.4092 46.252 81.1518C45.8241 80.6172 45.3588 80.406 44.789 80.4896L44.7769 80.4918H44.7648C44.7087 80.4863 44.6504 80.4852 44.5932 80.4841C44.4579 80.4808 44.3182 80.4775 44.1829 80.439C43.7077 80.3026 43.4514 79.8472 43.5306 79.2796C43.6131 78.6911 43.4217 78.2181 42.9476 77.8353C42.6176 77.5691 42.4504 77.2798 42.4515 76.9773C42.4515 76.677 42.6275 76.3789 42.9564 76.1149C43.4228 75.7431 43.6109 75.2778 43.5317 74.6959C43.4778 74.301 43.5658 73.9754 43.7836 73.7554C44.0047 73.5321 44.3358 73.4419 44.7406 73.4925C45.3192 73.5662 45.779 73.3825 46.1442 72.9315C46.428 72.5828 46.7239 72.4057 47.0253 72.4057C47.3256 72.4057 47.6193 72.5817 47.8998 72.9282C48.2705 73.3869 48.738 73.5706 49.3287 73.4903C49.7082 73.4386 50.0382 73.5321 50.2593 73.7521C50.476 73.9688 50.5684 74.2922 50.5189 74.6618C50.4364 75.2745 50.6366 75.7607 51.1305 76.1468C51.4341 76.3855 51.5958 76.6704 51.5969 76.9718C51.598 77.2765 51.4352 77.568 51.1272 77.8144C50.6355 78.206 50.4364 78.6933 50.5189 79.3038C50.5684 79.669 50.4815 79.9891 50.2725 80.2047C50.069 80.4148 49.7632 80.5094 49.4112 80.472C48.716 80.3983 48.199 80.6183 47.7854 81.165C47.5962 81.4147 47.3344 81.5533 47.0473 81.5577C47.0429 81.5577 47.0396 81.5577 47.0352 81.5577L47.0363 81.5555ZM45.0211 80.252C45.5535 80.252 46.0144 80.5028 46.4236 81.0143C46.5897 81.2211 46.8174 81.341 47.0451 81.3355C47.2629 81.3322 47.4642 81.2244 47.6105 81.0297C48.0692 80.4236 48.6654 80.1695 49.4354 80.2509C49.7225 80.2817 49.9579 80.2113 50.1163 80.0496C50.2769 79.8846 50.3429 79.6294 50.3022 79.3324C50.2076 78.6394 50.4331 78.0861 50.9908 77.6417C51.2449 77.4393 51.3791 77.2072 51.378 76.9729C51.378 76.7408 51.2449 76.5153 50.9952 76.3206C50.4353 75.8817 50.2076 75.3295 50.3022 74.6332C50.3429 74.3329 50.2725 74.0755 50.1053 73.9083C49.9337 73.7378 49.6697 73.6663 49.3595 73.7081C48.6951 73.7983 48.1473 73.5816 47.7304 73.0657C47.4939 72.7731 47.2574 72.6257 47.0275 72.6257C46.7954 72.6257 46.5567 72.7753 46.3169 73.0701C45.9055 73.5783 45.3654 73.7928 44.7142 73.7114C44.3798 73.6685 44.1125 73.7378 43.9409 73.9105C43.7726 74.0799 43.7066 74.3417 43.7506 74.6662C43.8397 75.3229 43.6186 75.8685 43.095 76.2865C42.8156 76.5098 42.6726 76.743 42.6726 76.9773C42.6726 77.2105 42.8112 77.4415 43.0873 77.6637C43.6197 78.0938 43.8419 78.6471 43.7495 79.3104C43.6857 79.7702 43.8749 80.1222 44.2445 80.2278C44.3523 80.2586 44.4722 80.2619 44.5987 80.2641C44.6559 80.2652 44.7131 80.2663 44.7692 80.2707C44.855 80.2586 44.9386 80.2531 45.02 80.2531L45.0211 80.252Z" fill="white"/>
<path d="M53.6286 65.6416C53.5549 65.6295 53.4779 65.6339 53.402 65.6339C49.1516 65.6339 44.9012 65.6339 40.6508 65.6339C40.5474 65.6339 40.4154 65.6141 40.3494 65.668C40.2383 65.7582 40.0964 65.9056 40.1041 66.02C40.1118 66.1366 40.2702 66.262 40.3879 66.3467C40.4517 66.3918 40.5716 66.3632 40.6651 66.3632C42.7804 66.3632 44.8968 66.3632 47.0121 66.3632C49.1274 66.3632 51.2438 66.3632 53.3591 66.3632C53.4438 66.3632 53.5296 66.3665 53.6143 66.3599C53.8211 66.3423 53.9542 66.2279 53.9663 66.0211C53.9795 65.7967 53.842 65.6746 53.6286 65.6405V65.6416Z" fill="white"/>
<path d="M40.4968 66.4832C40.4363 66.4832 40.3758 66.4744 40.3241 66.437C40.1668 66.3248 40.004 66.1884 39.9941 66.0278C39.9831 65.8529 40.169 65.6747 40.2801 65.5834C40.3648 65.5141 40.4836 65.5185 40.5881 65.5229C40.6101 65.5229 40.6332 65.5229 40.6508 65.524C44.9012 65.5229 49.1516 65.5229 53.402 65.524H53.4493C53.5131 65.5229 53.578 65.5218 53.6462 65.5328C53.9311 65.579 54.0917 65.7638 54.0763 66.0278C54.062 66.2819 53.8926 66.4469 53.6242 66.47C53.556 66.4755 53.4878 66.4755 53.4229 66.4744H53.3602H46.1057C44.2918 66.4744 42.479 66.4744 40.6651 66.4744C40.642 66.4744 40.6167 66.4766 40.5914 66.4788C40.5606 66.481 40.5287 66.4843 40.4968 66.4843V66.4832ZM40.5144 65.7418C40.4737 65.7418 40.4308 65.744 40.4176 65.755C40.2724 65.8738 40.2097 65.9783 40.2119 66.0146C40.213 66.0377 40.2394 66.1081 40.4506 66.2588C40.4671 66.2676 40.5364 66.2632 40.5727 66.2588C40.6046 66.2566 40.6354 66.2544 40.664 66.2544C42.4779 66.2544 44.2907 66.2544 46.1046 66.2544H53.424C53.4867 66.2544 53.5472 66.2555 53.6055 66.2511C53.7661 66.2379 53.8486 66.1609 53.8563 66.0157C53.8618 65.92 53.842 65.7869 53.611 65.7495C53.5626 65.7418 53.5087 65.7429 53.4515 65.7429H53.402C49.1516 65.7429 44.9012 65.7429 40.6508 65.744C40.631 65.744 40.6046 65.744 40.5804 65.7418C40.5639 65.7418 40.5397 65.7407 40.5155 65.7407L40.5144 65.7418Z" fill="white"/>
<path d="M53.6638 68.5854C53.5901 68.537 53.4614 68.5689 53.358 68.5689C51.2515 68.5689 49.1461 68.5689 47.0396 68.5689C44.9331 68.5689 42.809 68.5689 40.6926 68.5689C40.598 68.5689 40.5034 68.5656 40.4099 68.5744C40.2119 68.5942 40.0975 68.7152 40.0865 68.9055C40.0755 69.0969 40.1723 69.2322 40.3703 69.2685C40.4627 69.285 40.5573 69.2905 40.6519 69.2905C44.9023 69.2905 49.1516 69.2916 53.402 69.2905C53.5054 69.2905 53.6374 69.3092 53.7045 69.2553C53.8156 69.1662 53.9575 69.0188 53.9498 68.9055C53.9421 68.79 53.7848 68.6624 53.6649 68.5843L53.6638 68.5854Z" fill="white"/>
<path d="M53.5373 69.4048C53.512 69.4048 53.4867 69.4048 53.4625 69.4026C53.4416 69.4026 53.4207 69.4015 53.4009 69.4015C49.1505 69.4026 44.9012 69.4026 40.6508 69.4015C40.5364 69.4015 40.4385 69.3938 40.3494 69.3773C40.1008 69.3311 39.9611 69.1529 39.9754 68.8999C39.9897 68.6524 40.1481 68.4907 40.3978 68.4654C40.4781 68.4577 40.5573 68.4577 40.6343 68.4588H40.6926H48.0109C49.7929 68.4588 51.5749 68.4588 53.3569 68.4588C53.3811 68.4555 53.4119 68.4566 53.4405 68.4544C53.5329 68.4467 53.6385 68.4379 53.7232 68.4929C53.8706 68.5886 54.0477 68.7371 54.0587 68.8999C54.0697 69.0748 53.8849 69.2519 53.7727 69.3421C53.7067 69.3949 53.6209 69.4048 53.5373 69.4048V69.4048ZM53.402 69.1815C53.424 69.1815 53.4471 69.1815 53.4713 69.1826C53.5208 69.1848 53.6143 69.1881 53.6352 69.1705C53.7804 69.0528 53.842 68.9494 53.8398 68.9131C53.8376 68.8779 53.7727 68.7866 53.6044 68.6766C53.5824 68.6623 53.5087 68.6689 53.4603 68.6722C53.4262 68.6755 53.391 68.6777 53.3591 68.6777C51.5771 68.6777 49.7951 68.6777 48.0131 68.6777H40.6354C40.5617 68.6777 40.4913 68.6766 40.4231 68.6832C40.2801 68.6975 40.2064 68.7723 40.1976 68.912C40.1888 69.0539 40.2526 69.1353 40.3923 69.1606C40.4671 69.1749 40.5529 69.1815 40.653 69.1815C44.9034 69.1826 49.1527 69.1826 53.4031 69.1815H53.402Z" fill="white"/>
<path d="M40.708 63.4374C42.8145 63.4374 44.9199 63.4374 47.0264 63.4374C49.1329 63.4374 51.2196 63.4374 53.3162 63.4374C53.4108 63.4374 53.5054 63.4374 53.5989 63.433C53.8211 63.4231 53.9619 63.3065 53.9652 63.0843C53.9685 62.8632 53.8365 62.7378 53.6121 62.7235C53.5274 62.718 53.4427 62.718 53.3569 62.718C49.1351 62.718 44.9133 62.718 40.6915 62.718C40.2449 62.718 40.0744 62.8214 40.0799 63.0854C40.0854 63.3428 40.2526 63.4374 40.7069 63.4374H40.708Z" fill="white"/>
<path d="M45.2213 63.5473H40.708C40.3307 63.5473 39.9809 63.4912 39.971 63.0875C39.9677 62.9522 40.004 62.8488 40.0799 62.7707C40.1899 62.6574 40.3791 62.6079 40.6926 62.6079C44.9144 62.6079 49.1362 62.6079 53.358 62.6079C53.4449 62.6079 53.5329 62.6079 53.6198 62.6134C53.9091 62.6321 54.0796 62.8081 54.0763 63.0853C54.0719 63.3581 53.8959 63.5286 53.6055 63.5429C53.5186 63.5473 53.4317 63.5473 53.3448 63.5473H45.2224H45.2213ZM40.708 63.3273H48.0747H53.3437C53.4273 63.3273 53.5109 63.3273 53.5945 63.324C53.8519 63.3119 53.8552 63.1403 53.8563 63.0831C53.8585 62.9269 53.7771 62.8455 53.6066 62.8345C53.5263 62.829 53.4427 62.829 53.3613 62.829C49.1373 62.829 44.9155 62.829 40.6937 62.829C40.4517 62.829 40.3021 62.8609 40.2383 62.9258C40.2174 62.9467 40.1899 62.9874 40.1921 63.0831C40.1943 63.1975 40.1976 63.3273 40.7091 63.3273H40.708Z" fill="white"/>
<path d="M49.2605 75.7784C48.9635 75.6915 48.6533 75.6431 48.3464 75.598C48.1242 75.5661 47.9735 75.4792 47.8745 75.2636C47.737 74.9644 47.5665 74.6806 47.4015 74.3946C47.1793 74.0085 46.8735 74.0085 46.6513 74.3946C46.4676 74.7136 46.3037 75.0436 46.1123 75.356C46.0573 75.4462 45.944 75.5298 45.8417 75.5551C45.4941 75.6409 45.1355 75.6816 44.7912 75.7773C44.6361 75.8202 44.426 75.9291 44.3875 76.0534C44.3479 76.181 44.4546 76.3889 44.5547 76.5176C44.7582 76.7761 44.9914 77.0137 45.229 77.2425C45.3676 77.3756 45.4028 77.5164 45.3764 77.6968C45.3225 78.0609 45.2807 78.4261 45.2323 78.7902C45.2103 79.1389 45.4567 79.3281 45.7801 79.1917C46.1365 79.0421 46.4764 78.8562 46.835 78.7121C46.9472 78.667 47.1078 78.6692 47.22 78.7143C47.561 78.8507 47.8866 79.0234 48.2221 79.1719C48.6071 79.3424 48.859 79.1521 48.8084 78.733C48.7666 78.3865 48.7259 78.04 48.6742 77.6946C48.6478 77.5131 48.683 77.3734 48.8216 77.2403C49.0592 77.0115 49.2935 76.775 49.4959 76.5154C49.596 76.3878 49.7027 76.1788 49.6631 76.0512C49.6246 75.9269 49.4145 75.8213 49.2594 75.7762L49.2605 75.7784ZM47.957 77.2139C47.858 77.5109 47.9702 77.8783 47.9955 78.3205C47.3399 77.7815 46.714 77.7771 46.0353 78.3392C46.0716 78.0004 46.0859 77.7705 46.1233 77.5461C46.1662 77.2909 46.1002 77.0874 45.9099 76.9103C45.7471 76.7596 45.6041 76.588 45.372 76.3405C46.2564 76.401 46.7635 76.0193 46.9857 75.2009C47.2123 75.5584 47.3377 75.9269 47.594 76.1139C47.8536 76.3031 48.2441 76.313 48.5884 76.4043C48.3662 76.676 48.0582 76.9114 47.957 77.215V77.2139Z" fill="white"/>
<path d="M45.5788 79.3467C45.4831 79.3467 45.3951 79.3203 45.3203 79.2664C45.1828 79.1685 45.1113 78.9925 45.1234 78.7835C45.1388 78.6636 45.1531 78.5514 45.1674 78.4392C45.1982 78.1906 45.2312 77.9332 45.2686 77.6802C45.2917 77.5229 45.2598 77.4228 45.1542 77.3205C44.9375 77.1126 44.6878 76.8618 44.4689 76.5846C44.4425 76.5505 44.2115 76.248 44.283 76.0203C44.3413 75.8344 44.6119 75.7134 44.7626 75.6716C44.9562 75.6177 45.1553 75.5803 45.3478 75.5451C45.5029 75.5165 45.6624 75.4868 45.8164 75.4483C45.8901 75.4296 45.9792 75.3647 46.0199 75.2987C46.1321 75.115 46.2377 74.9203 46.34 74.7333C46.4115 74.6013 46.483 74.4704 46.5578 74.3406C46.7217 74.0557 46.9032 73.9963 47.0275 73.9963C47.1518 73.9963 47.3333 74.0557 47.4972 74.3406L47.5665 74.4605C47.7084 74.7047 47.8536 74.9566 47.9746 75.2184C48.0516 75.3845 48.1594 75.4604 48.3629 75.4901C48.6819 75.5363 48.9932 75.5858 49.2924 75.6727C49.3342 75.6848 49.7016 75.7981 49.7709 76.0214C49.8424 76.2491 49.6114 76.5516 49.585 76.5857C49.3683 76.8618 49.1175 77.1126 48.8997 77.3216C48.7941 77.4239 48.7611 77.524 48.7842 77.6813C48.8315 77.9992 48.87 78.3237 48.9085 78.6361L48.9184 78.7219C48.9481 78.9672 48.8854 79.1597 48.7435 79.2653C48.6016 79.3698 48.4014 79.3731 48.1781 79.2741C48.0439 79.2147 47.9108 79.1509 47.7788 79.0882C47.5841 78.9947 47.3817 78.899 47.1793 78.8176C47.0913 78.7824 46.9604 78.7813 46.8757 78.8154C46.6876 78.8913 46.4984 78.9804 46.3169 79.0673C46.1563 79.1443 45.9902 79.2224 45.823 79.2939C45.7383 79.3291 45.6558 79.3467 45.5788 79.3467V79.3467ZM47.0264 74.2152C46.9329 74.2152 46.8339 74.2988 46.747 74.4495C46.6733 74.5782 46.6029 74.708 46.5325 74.8378C46.4291 75.0281 46.3224 75.225 46.2069 75.4142C46.1365 75.5286 45.9979 75.6298 45.8692 75.6628C45.7097 75.7024 45.5458 75.7332 45.3885 75.7618C45.2004 75.797 45.0068 75.8333 44.822 75.8839C44.6669 75.9268 44.514 76.0214 44.4942 76.0863C44.4733 76.1534 44.5415 76.3195 44.6438 76.4493C44.8539 76.7166 45.097 76.9597 45.3082 77.1621C45.4666 77.3139 45.5216 77.4844 45.4875 77.7121C45.4501 77.9629 45.4182 78.2192 45.3874 78.4667C45.3731 78.5789 45.3588 78.6922 45.3445 78.8044C45.3368 78.9287 45.3753 79.0343 45.449 79.0871C45.5205 79.1377 45.6239 79.1388 45.7394 79.0904C45.9022 79.0222 46.0661 78.9441 46.2245 78.8682C46.4093 78.7802 46.6007 78.6889 46.7965 78.6108C46.9318 78.5558 47.1243 78.5569 47.264 78.613C47.473 78.6966 47.6776 78.7945 47.8767 78.8891C48.0076 78.9518 48.1385 79.0145 48.2705 79.0728C48.4179 79.1377 48.54 79.1432 48.6159 79.0882C48.6907 79.0332 48.7226 78.9089 48.7039 78.7472L48.694 78.6614C48.6566 78.3501 48.617 78.0267 48.5708 77.7121C48.5367 77.4844 48.5928 77.3139 48.7512 77.1621C48.9624 76.9586 49.2066 76.7155 49.4156 76.4493C49.5168 76.3195 49.585 76.1534 49.5641 76.0863C49.5465 76.0302 49.4101 75.9356 49.2341 75.8839C48.9481 75.8003 48.6456 75.753 48.3343 75.7068C48.0582 75.6661 47.8866 75.544 47.7788 75.3097C47.6622 75.0578 47.5192 74.8103 47.3806 74.5705L47.3102 74.4495C47.2233 74.2988 47.1243 74.2152 47.0308 74.2152H47.0264ZM45.8978 78.5965L45.9264 78.327C45.9385 78.2148 45.9484 78.1147 45.9572 78.0234C45.9748 77.8397 45.9902 77.6813 46.0155 77.5273C46.0529 77.3062 45.9968 77.1401 45.8351 76.9905C45.7229 76.8871 45.6239 76.7771 45.4974 76.6385C45.4358 76.5714 45.3687 76.4977 45.2917 76.4152L45.1003 76.2106L45.3797 76.2293C46.1915 76.2854 46.6689 75.9488 46.8801 75.17L46.945 74.9291L47.0792 75.1403C47.154 75.258 47.2156 75.3735 47.2761 75.4857C47.3982 75.7134 47.5049 75.9103 47.6589 76.0225C47.8184 76.1391 48.045 76.1809 48.2837 76.2249C48.3937 76.2447 48.507 76.2667 48.617 76.2953L48.782 76.3393L48.6742 76.4713C48.6038 76.5582 48.5246 76.6396 48.4487 76.7199C48.2815 76.8948 48.1242 77.0598 48.0615 77.2468C48.0021 77.425 48.0307 77.645 48.0637 77.9002C48.0802 78.0311 48.0978 78.1653 48.1066 78.3116L48.1209 78.5624L47.9262 78.4029C47.3025 77.8892 46.7415 77.8947 46.1068 78.4216L45.8978 78.5943V78.5965ZM45.6272 76.4537C45.6382 76.4658 45.6492 76.4779 45.6591 76.4889C45.7823 76.6242 45.8791 76.7309 45.9847 76.8277C46.2003 77.0279 46.2806 77.2677 46.2322 77.5625C46.208 77.7088 46.1937 77.8573 46.1761 78.0432C46.1739 78.0608 46.1728 78.0795 46.1706 78.0982C46.7415 77.7121 47.2992 77.7066 47.8646 78.0828C47.858 78.03 47.8514 77.9783 47.8459 77.9277C47.8096 77.6461 47.7788 77.4019 47.8536 77.1764C47.9317 76.9421 48.1143 76.7507 48.2903 76.567C48.3222 76.534 48.3541 76.501 48.3849 76.4669C48.3387 76.4581 48.2914 76.4493 48.2452 76.4405C47.9922 76.3943 47.7315 76.3459 47.5302 76.1996C47.3344 76.0577 47.2123 75.83 47.0825 75.5891C47.0605 75.5484 47.0385 75.5066 47.0154 75.4659C46.7723 76.105 46.3147 76.4306 45.6283 76.4537H45.6272Z" fill="white"/>
</g>
<defs>
<clipPath id="clip0_53_977">
<rect width="264" height="88" fill="white"/>
</clipPath>
</defs>
</svg>
