<svg width="264" height="89" viewBox="0 0 264 89" fill="none" xmlns="http://www.w3.org/2000/svg">
<path d="M60.6507 67.7118H57.9315L62.0741 55.6519H65.3433L69.4804 67.7118H66.7612L63.7549 58.4079H63.6614L60.6496 67.7118H60.6507ZM60.4813 62.9714H66.9031V64.9613H60.4813V62.9714Z" fill="white"/>
<path d="M70.2713 70.6202V65.6797H71.0853C71.3625 65.4796 71.6166 65.1955 71.8465 64.8285C72.0764 64.4615 72.2744 63.9529 72.4383 63.3029C72.6022 62.6529 72.7199 61.8027 72.7903 60.7503L73.1302 55.6506H81.07V65.6786H82.3823V70.6069H79.9447V67.7094H72.7078V70.618H70.2702L70.2713 70.6202ZM74.0157 65.6797H78.6324V57.7533H75.416L75.229 60.7503C75.1784 61.5474 75.0948 62.2538 74.9804 62.8707C74.8649 63.4875 74.7263 64.0259 74.5646 64.4869C74.4029 64.9479 74.2203 65.3459 74.0168 65.6797H74.0157Z" fill="white"/>
<path d="M83.9234 55.6519H87.0518L90.3562 63.7552H90.497L93.8014 55.6519H96.9298V67.7118H94.4691V59.8627H94.369L91.2637 67.6532H89.5884L86.4831 59.8329H86.383V67.7118H83.9223V55.6519H83.9234Z" fill="white"/>
<path d="M99.0176 55.6519H101.549V63.2367H101.649L106.834 55.6519H109.055V67.7118H106.518V60.1214H106.43L101.215 67.7118H99.0176V55.6519Z" fill="white"/>
<path d="M111.146 67.7118V55.6519H113.683V60.6277H118.833V55.6519H121.364V67.7118H118.833V62.7304H113.683V67.7118H111.146Z" fill="white"/>
<path d="M123.456 55.6519H125.987V63.2367H126.087L131.273 55.6519H133.494V67.7118H130.957V60.1214H130.869L125.654 67.7118H123.456V55.6519Z" fill="white"/>
<path d="M146.173 59.8737H143.607C143.56 59.5398 143.464 59.2425 143.32 58.9816C143.176 58.7207 142.99 58.4974 142.763 58.3127C142.537 58.1281 142.276 57.9866 141.981 57.8882C141.687 57.7898 141.368 57.7412 141.023 57.7412C140.402 57.7412 139.862 57.8949 139.401 58.2033C138.94 58.5117 138.582 58.9595 138.328 59.5454C138.074 60.1324 137.948 60.8443 137.948 61.6801C137.948 62.5158 138.075 63.2621 138.332 63.8469C138.588 64.4317 138.945 64.8739 139.406 65.1724C139.867 65.4708 140.401 65.6201 141.006 65.6201C141.346 65.6201 141.661 65.5748 141.952 65.4841C142.242 65.3935 142.502 65.2608 142.728 65.0861C142.955 64.9115 143.143 64.6981 143.294 64.4472C143.444 64.1962 143.549 63.9099 143.607 63.5871L146.173 63.5992C146.107 64.1531 145.942 64.6859 145.678 65.1978C145.414 65.7096 145.061 66.1673 144.618 66.5697C144.175 66.9721 143.647 67.2905 143.036 67.5238C142.425 67.757 141.735 67.8742 140.965 67.8742C139.895 67.8742 138.939 67.631 138.097 67.1446C137.256 66.6582 136.591 65.9528 136.105 65.0309C135.619 64.1089 135.376 62.9912 135.376 61.6801C135.376 60.369 135.622 59.2458 136.114 58.3238C136.606 57.4018 137.274 56.6976 138.118 56.2123C138.962 55.727 139.911 55.4849 140.966 55.4849C141.661 55.4849 142.307 55.5833 142.902 55.7789C143.498 55.9757 144.026 56.2609 144.487 56.6357C144.948 57.0105 145.324 57.4692 145.615 58.0109C145.905 58.5526 146.092 59.1728 146.175 59.8715L146.173 59.8737Z" fill="white"/>
<path d="M147.539 57.7533V55.6506H157.394V57.7533H153.72V67.7105H151.212V57.7533H147.538H147.539Z" fill="white"/>
<path d="M159.023 67.7118V55.6519H163.757C164.667 55.6519 165.442 55.8254 166.083 56.1725C166.724 56.5197 167.213 57.0006 167.551 57.6152C167.889 58.2299 168.058 58.9374 168.058 59.7378C168.058 60.5382 167.886 61.2457 167.542 61.8581C167.199 62.4706 166.702 62.947 166.05 63.2886C165.4 63.6302 164.614 63.8005 163.692 63.8005H160.675V61.7575H163.282C163.77 61.7575 164.173 61.6724 164.492 61.5011C164.81 61.3308 165.048 61.0931 165.207 60.788C165.365 60.484 165.444 60.1336 165.444 59.7367C165.444 59.3398 165.365 58.986 165.207 58.6853C165.048 58.3847 164.81 58.1514 164.488 57.9845C164.168 57.8175 163.761 57.7346 163.27 57.7346H161.559V67.7095H159.023V67.7118Z" fill="white"/>
<path d="M170.39 67.7118H167.671L171.813 55.6519H175.083L179.22 67.7118H176.5L173.494 58.4079H173.401L170.389 67.7118H170.39ZM170.221 62.9714H176.642V64.9613H170.221V62.9714Z" fill="white"/>
<path d="M178.728 57.7533V55.6506H188.583V57.7533H184.909V67.7105H182.401V57.7533H178.727H178.728Z" fill="white"/>
<path d="M190.212 55.6519H192.743V63.2367H192.843L198.029 55.6519H200.249V67.7118H197.713V60.1214H197.625L192.41 67.7118H190.212V55.6519Z" fill="white"/>
<path d="M202.342 67.7118V55.6519H207.146C208.03 55.6519 208.766 55.7834 209.355 56.0465C209.945 56.3096 210.388 56.6733 210.685 57.1388C210.982 57.6042 211.131 58.1392 211.131 58.7439C211.131 59.2149 211.037 59.6283 210.849 59.9832C210.662 60.3381 210.405 60.6288 210.079 60.8543C209.753 61.0799 209.381 61.2402 208.963 61.3341V61.4513C209.42 61.4712 209.848 61.6005 210.248 61.8404C210.649 62.0803 210.974 62.4142 211.224 62.8442C211.474 63.2743 211.599 63.785 211.599 64.3787C211.599 65.0188 211.442 65.5892 211.127 66.0889C210.813 66.5897 210.349 66.9854 209.736 67.2751C209.122 67.5658 208.366 67.7106 207.469 67.7106H202.342V67.7118ZM204.878 60.6985H206.759C207.107 60.6985 207.416 60.6366 207.688 60.5127C207.959 60.3889 208.174 60.2131 208.332 59.9854C208.491 59.7577 208.57 59.4846 208.57 59.1673C208.57 58.7318 208.417 58.3802 208.11 58.1138C207.803 57.8474 207.369 57.7136 206.807 57.7136H204.878V60.6996V60.6985ZM204.878 65.6268H206.946C207.654 65.6268 208.168 65.4908 208.493 65.2177C208.817 64.9447 208.979 64.581 208.979 64.1255C208.979 63.7917 208.899 63.4976 208.739 63.2422C208.579 62.9868 208.351 62.7867 208.056 62.6419C207.761 62.4971 207.41 62.4241 207.005 62.4241H204.877V65.6279L204.878 65.6268Z" fill="white"/>
<path d="M213.245 67.7118V55.6519H215.781V60.6277H220.932V55.6519H223.463V67.7118H220.932V62.7304H215.781V67.7118H213.245Z" fill="white"/>
<path d="M227.226 60.1092H230.085C231.037 60.1092 231.859 60.2629 232.549 60.5713C233.238 60.8798 233.771 61.3142 234.146 61.8758C234.521 62.4374 234.706 63.0985 234.703 63.8602C234.706 64.6175 234.521 65.2863 234.146 65.8656C233.771 66.4448 233.238 66.897 232.549 67.2231C231.859 67.5492 231.038 67.7118 230.085 67.7118H225.602V55.6519H228.133V65.6622H230.085C230.541 65.6622 230.926 65.5792 231.239 65.4123C231.551 65.2454 231.789 65.0232 231.95 64.7468C232.112 64.4704 232.191 64.1664 232.188 63.837C232.191 63.3583 232.013 62.9526 231.652 62.6209C231.29 62.2893 230.768 62.1235 230.085 62.1235H227.226V60.1092ZM238.213 55.6519V67.7118H235.682V55.6519H238.213Z" fill="white"/>
<path d="M240.304 67.7118V55.6519H248.39V57.7545H242.841V60.6277H247.974V62.7304H242.841V65.6102H248.414V67.7129H240.305L240.304 67.7118Z" fill="white"/>
<path d="M58.0217 83.3135H66.1969V85.0082H58.0217V83.3135ZM58.0217 83.3135H59.8158V87.8261H58.0217V83.3135ZM58.333 83.3135H58.5904C58.8335 83.3135 59.0436 83.2151 59.2185 83.0161C59.3934 82.8182 59.5287 82.5286 59.6211 82.1472C59.7146 81.7658 59.7608 81.3048 59.7608 80.7653V73.8018H61.5439V81.0671C61.5439 82.2478 61.3074 83.1333 60.8344 83.7225C60.3614 84.3129 59.6849 84.608 58.8038 84.608H58.3308V83.3124L58.333 83.3135ZM60.9653 73.8018H64.6822V75.4965H60.9653V73.8018ZM64.0266 73.8018H65.8317V85.0082H64.0266V73.8018ZM65.5952 83.3135H67.3893V87.8261H65.5952V83.3135Z" fill="white"/>
<path d="M69.8863 84.733C69.3814 84.4412 68.9942 84.0167 68.7258 83.4595C68.4574 82.9023 68.3232 82.2302 68.3232 81.4464V77.5495C68.3232 76.7215 68.4541 76.0129 68.7148 75.4225C68.9766 74.8322 69.3539 74.3822 69.8478 74.0727C70.3417 73.7632 70.9368 73.6084 71.6309 73.6084C72.325 73.6084 72.9432 73.751 73.4415 74.0351C73.9387 74.3192 74.3182 74.7338 74.58 75.2766C74.8418 75.8205 74.9716 76.4805 74.9716 77.2577V80.1187H69.5145V78.5533H73.2204V77.3008C73.2204 76.6529 73.0829 76.151 72.8068 75.7951C72.5307 75.4391 72.1391 75.2611 71.6309 75.2611C71.1227 75.2611 70.7531 75.4502 70.4814 75.8282C70.2097 76.2063 70.0733 76.7403 70.0733 77.4312V81.5017C70.0733 82.1274 70.2163 82.616 70.5034 82.9642C70.7894 83.3136 71.1942 83.4883 71.7178 83.4883C72.2051 83.4883 72.5846 83.3534 72.8563 83.0836C73.128 82.8139 73.2611 82.4347 73.2534 81.945V81.8698L75.0046 81.8809V81.9461C75.0046 82.9753 74.7186 83.7702 74.1455 84.3317C73.5724 84.8933 72.7628 85.1741 71.7178 85.1741C71.0017 85.1741 70.3912 85.0282 69.8863 84.7364V84.733Z" fill="white"/>
<path d="M75.8648 83.4428C76.1794 83.4428 76.4181 83.3422 76.5787 83.141C76.7393 82.9398 76.8207 82.648 76.8207 82.2666V73.8029H78.6148V82.407C78.6148 82.9973 78.5202 83.4915 78.3299 83.8917C78.1396 84.2907 77.8536 84.5937 77.4708 84.7982C77.088 85.0038 76.6238 85.1055 76.0793 85.1055H75.8648V83.4428ZM78.1847 73.8018H81.9126V75.4965H78.1847V73.8018ZM81.1492 73.8018H82.9433V85.0082H81.1492V73.8018Z" fill="white"/>
<path d="M85.855 84.387C85.382 83.8652 85.1455 83.0792 85.1455 82.0279C85.1455 80.7687 85.4315 79.8268 86.0046 79.2045C86.5777 78.5821 87.4368 78.2703 88.583 78.2703H90.3012L90.4519 79.7495H88.594C88.0066 79.7495 87.5666 79.9385 87.2729 80.3166C86.9792 80.6947 86.8329 81.2651 86.8329 82.0279C86.8329 82.5895 86.9638 83.0052 87.2245 83.2749C87.4863 83.5446 87.8812 83.6795 88.4114 83.6795C89.0131 83.6795 89.4619 83.5181 89.76 83.1942C90.057 82.8703 90.2055 82.3806 90.2055 81.7261L90.431 82.7089C90.4233 83.2561 90.3287 83.7127 90.1461 84.0797C89.9635 84.4467 89.6929 84.7209 89.3354 84.9C88.9768 85.0802 88.5258 85.1697 87.9824 85.1697C87.0375 85.1697 86.328 84.9088 85.855 84.387ZM90.2055 76.8033C90.2055 76.2782 90.0625 75.8714 89.7754 75.5828C89.4894 75.2954 89.0846 75.1506 88.561 75.1506C88.1023 75.1506 87.7448 75.2943 87.4863 75.5828C87.2289 75.8703 87.1035 76.2815 87.1101 76.8133L85.3699 76.8022C85.3699 75.7874 85.6526 75.0013 86.218 74.4431C86.7834 73.8859 87.582 73.6062 88.6138 73.6062C89.3079 73.6062 89.903 73.7322 90.3969 73.9843C90.8908 74.2363 91.267 74.6 91.5244 75.0743C91.7818 75.5486 91.9116 76.1256 91.9116 76.8011V85.0061H90.2033V76.8011L90.2055 76.8033Z" fill="white"/>
<path d="M24.1131 84.8469H30.7527C37.8642 84.8469 44.9768 84.8469 52.0883 84.8525C52.3281 84.8525 52.5096 84.7673 52.69 84.5694V81.0528C52.4964 80.8406 52.2478 80.7555 51.8914 80.7787C51.6252 80.7964 51.3645 80.792 51.0884 80.7875C50.9663 80.7853 50.842 80.7842 50.7133 80.7842H50.5065V80.3398C50.5065 80.206 50.5065 80.0778 50.5065 79.9496C50.512 79.0397 50.1204 78.3963 49.3086 77.9829C49.1623 77.9077 49.038 77.7065 49.0369 77.5429C49.0292 74.6432 49.0292 71.6727 49.0369 68.7122C49.0369 68.5607 49.1436 68.3451 49.3009 68.2655C50.1292 67.8454 50.5241 67.1855 50.5076 66.248C50.5054 66.1242 50.5054 66.0004 50.5076 65.8644V65.4498H50.7155C50.8508 65.4498 50.9839 65.4487 51.1148 65.4465C51.4173 65.4432 51.7011 65.4399 51.9915 65.4554C52.3116 65.473 52.5294 65.3857 52.6933 65.1757V62.4384C52.6449 62.4042 52.5976 62.3688 52.5492 62.3334C52.3897 62.2162 52.2401 62.1057 52.0795 62.0294C48.4748 60.3059 44.8206 58.567 41.2874 56.8855L38.5594 55.5866C38.4769 55.5468 38.3944 55.5059 38.313 55.4649L38.2393 55.4285H37.9291C37.7014 55.539 37.4726 55.6507 37.2449 55.7623L37.1679 55.7999C36.6058 56.0752 36.025 56.3593 35.4508 56.6335C31.1399 58.6897 27.5231 60.4121 23.8876 62.1366C23.5796 62.2826 23.4564 62.4782 23.4641 62.811C23.474 63.2366 23.4718 63.6667 23.4696 64.0834C23.4696 64.3244 23.4674 64.5599 23.4685 64.7954C23.4707 65.2696 23.6445 65.4476 24.1109 65.4509C24.3496 65.4531 24.5894 65.4531 24.8281 65.4542C25.014 65.4542 25.1999 65.4554 25.3858 65.4565C25.4342 65.4565 25.4716 65.4708 25.5013 65.483C25.5156 65.4885 25.5288 65.494 25.5464 65.4996L25.6861 65.5482V65.8887C25.685 66.038 25.6839 66.1872 25.6861 66.3353C25.7037 67.2253 26.1063 67.8676 26.8796 68.2445C27.0292 68.3175 27.181 68.4291 27.181 68.7111C27.1799 69.7967 27.1788 70.8823 27.1788 71.969V72.0043C27.1788 73.8494 27.1766 75.6945 27.1722 77.5396C27.1722 77.7043 27.0468 77.9055 26.8983 77.9796C26.0832 78.3897 25.6872 79.0419 25.6861 79.9706V80.3697V80.7853H24.6708C24.508 80.7853 24.3474 80.7853 24.1857 80.7853C23.6368 80.7864 23.4685 80.9578 23.4685 81.5172V81.8422C23.4685 82.6271 23.4663 83.412 23.4685 84.1969C23.4696 84.6535 23.6632 84.8491 24.1153 84.8491L24.1131 84.8469ZM49.4395 79.8169C49.4494 79.9827 49.4472 80.143 49.445 80.3144C49.4439 80.3907 49.4428 80.4691 49.4428 80.5498V80.7577H44.5764V80.5498C44.5764 80.468 44.5753 80.3884 44.5742 80.3088C44.5709 80.1231 44.5687 79.9496 44.5797 79.7694C44.6127 79.2686 44.9911 78.9004 45.4795 78.8938C46.5014 78.8805 47.5255 78.8794 48.5221 78.8938C49.0391 78.9004 49.4076 79.2719 49.4395 79.818V79.8169ZM43.4973 80.331L43.3873 80.3354H43.4973C43.4973 80.4083 43.4984 80.4824 43.4984 80.5587V80.7665H41.6075V80.3575C41.6086 80.2149 41.6097 80.0723 41.6075 79.9308C41.5932 79.0243 41.2016 78.3875 40.4096 77.9851C40.2545 77.9055 40.1225 77.6954 40.1225 77.5252C40.1137 74.7603 40.1137 71.8728 40.1203 68.6989C40.1203 68.5508 40.2226 68.344 40.3744 68.2711C41.2214 67.8609 41.6251 67.1788 41.6086 66.185C41.6064 66.0601 41.6097 65.9351 41.613 65.8157L41.6152 65.7395C41.6163 65.6853 41.635 65.6455 41.6471 65.619C41.6504 65.6123 41.6537 65.6057 41.6559 65.598L41.7076 65.4664H43.4984V65.8699C43.4984 66.0081 43.4984 66.1441 43.4984 66.2789C43.5039 67.2142 43.9131 67.8775 44.7172 68.2501C44.9944 68.3794 44.99 68.6071 44.9867 68.7287V68.7696C44.9867 70.5407 44.9867 72.3128 44.9867 74.0849V75.8216C44.9856 76.3733 44.9845 76.9437 44.99 77.5031C44.9911 77.6767 44.957 77.8723 44.6886 78.0017C43.9252 78.3709 43.5248 79.0044 43.5006 79.8843C43.4962 80.0303 43.4973 80.1751 43.4984 80.3299L43.4973 80.331ZM40.5284 80.248C40.5284 80.3133 40.5284 80.3785 40.5284 80.4504V80.7643H35.6807V80.5565C35.6807 80.4658 35.6785 80.3785 35.6763 80.2912C35.6708 80.0889 35.6664 79.8976 35.6873 79.7008C35.739 79.2332 36.0921 78.9027 36.5486 78.8971C37.6123 78.8828 38.6562 78.8828 39.6539 78.8971C40.1126 78.9038 40.4767 79.2575 40.5196 79.7373C40.5306 79.8633 40.5295 79.986 40.5284 80.1054C40.5284 80.1563 40.5284 80.2027 40.5284 80.248ZM34.5994 80.3453V80.7632H32.6744V80.5554C32.6744 80.4371 32.6788 80.321 32.6832 80.206C32.692 79.9728 32.6997 79.7528 32.6689 79.5449C32.5633 78.8374 32.186 78.3245 31.548 78.0205C31.3126 77.9077 31.2114 77.7474 31.2125 77.4821C31.218 74.2927 31.2169 71.1376 31.2147 68.7442C31.2147 68.5673 31.2488 68.3694 31.5095 68.2412C32.3004 67.8488 32.6986 67.1976 32.6942 66.3044C32.6942 66.1385 32.6964 65.9727 32.6986 65.8058V65.7461C32.7008 65.693 32.7173 65.6543 32.7294 65.6278C32.7327 65.619 32.736 65.6123 32.7393 65.6046L32.7888 65.4686H34.6005V65.8998C34.5994 66.0578 34.5983 66.2137 34.6005 66.3696C34.6115 67.2208 35.0053 67.8488 35.7687 68.2335C35.9865 68.3429 36.08 68.4899 36.0789 68.7243C36.0767 69.8442 36.0767 70.9641 36.0756 72.0839C36.0756 73.866 36.0734 75.7089 36.0679 77.5219C36.0679 77.6943 35.9392 77.9066 35.7874 77.9851C34.9844 78.4008 34.595 79.0364 34.5983 79.9286C34.5983 80.0656 34.5983 80.2027 34.5983 80.3453H34.5994ZM40.524 65.9396C40.5284 66.1463 40.5328 66.3409 40.5141 66.5432C40.4701 67.0097 40.0807 67.3524 39.589 67.3579C39.0709 67.3645 38.5627 67.3679 38.0787 67.3679C37.5947 67.3679 37.0898 67.3645 36.6036 67.3579C36.0954 67.3502 35.7225 66.9964 35.6774 66.4768C35.6609 66.2889 35.6653 66.101 35.6686 65.9186C35.6708 65.8345 35.6719 65.7538 35.6719 65.6731V65.4653H40.5196V65.6731C40.5196 65.7638 40.5218 65.8522 40.524 65.9396ZM39.0522 77.7905H37.1657V68.4336H37.6871C38.0149 68.4314 38.3526 68.4303 38.6914 68.4402C38.8575 68.4446 38.9686 68.6049 39.0214 68.6989C39.0687 68.7862 39.061 68.8758 39.0555 68.9355C39.0544 68.9498 39.0533 68.9609 39.0533 68.9719V77.7905H39.0522ZM46.0856 77.796V68.449H47.9336V77.796H46.0856ZM49.4593 65.6831C49.4527 65.7826 49.4494 65.8832 49.445 65.9827C49.4373 66.2226 49.4285 66.4691 49.3713 66.7112C49.2778 67.1059 48.9401 67.3546 48.4913 67.359C47.9193 67.3645 47.4056 67.3679 46.9194 67.3679C46.4332 67.3679 45.9811 67.3645 45.5323 67.359C44.9724 67.3513 44.5874 66.9544 44.5731 66.3696C44.5698 66.217 44.5698 66.0645 44.5709 65.9031C44.5709 65.8257 44.5709 65.7472 44.5709 65.6665V65.4587H49.4736L49.4582 65.682L49.4593 65.6831ZM25.1306 64.3808C24.7192 64.3808 24.5828 64.3443 24.5311 63.9065L24.5201 63.8148C24.4398 63.1835 24.7401 62.905 25.2153 62.6817C29.2402 60.7879 33.3212 58.8367 37.268 56.9507L37.7146 56.7374C37.9863 56.6069 38.2151 56.6058 38.4802 56.733C42.3247 58.5703 46.5234 60.5701 51.3183 62.8453C51.5757 62.9669 51.6857 63.1515 51.6659 63.4234C51.6549 63.5793 51.6571 63.7429 51.6593 63.9165C51.6604 64.0038 51.6615 64.0878 51.6615 64.1741V64.3819H25.1306V64.3808ZM26.7652 66.3928C26.7608 66.2314 26.7619 66.0733 26.763 65.9053C26.763 65.8246 26.763 65.7505 26.763 65.6742V65.4664H31.6206V65.6742C31.6206 65.7594 31.6228 65.8423 31.6239 65.9241C31.6283 66.1098 31.6316 66.2856 31.6151 66.4669C31.5689 67.0019 31.196 67.3513 30.6658 67.3579C30.151 67.3645 29.6472 67.3679 29.1687 67.3679C28.6902 67.3679 28.193 67.3645 27.7101 67.3579C27.1601 67.3502 26.7806 66.9621 26.7641 66.3917L26.7652 66.3928ZM28.2326 68.9852C28.2326 68.8426 28.248 68.6624 28.3745 68.5419C28.4999 68.4236 28.6737 68.4181 28.8101 68.4269C29.0554 68.4424 29.3029 68.4391 29.5636 68.4358C29.6824 68.4336 29.7968 68.4325 29.9134 68.4325H30.1202V77.7905H28.2381V75.3783C28.2392 73.2823 28.2403 71.1155 28.2315 68.9841L28.2326 68.9852ZM26.7729 79.7384C26.8048 79.2752 27.1733 78.9071 27.6122 78.9004C28.6297 78.885 29.6945 78.885 30.7758 78.9004C31.2015 78.9071 31.548 79.2321 31.5986 79.6743C31.6228 79.8788 31.6173 80.0767 31.6107 80.2856C31.6085 80.3774 31.6063 80.4658 31.6063 80.5554V80.7632H26.7696V80.5554C26.7696 80.468 26.7685 80.384 26.7674 80.3C26.7641 80.1076 26.7608 79.9263 26.774 79.7395L26.7729 79.7384ZM24.5476 81.8886H51.6472V83.7503H24.5465V81.8886H24.5476Z" fill="white"/>
</svg>
