<svg width="264" height="89" viewBox="0 0 264 89" fill="none" xmlns="http://www.w3.org/2000/svg">
<path d="M115.796 61.0569H113.23C113.182 60.724 113.087 60.4276 112.942 60.1675C112.798 59.9075 112.612 59.6849 112.386 59.5008C112.159 59.3168 111.899 59.1757 111.604 59.0777C111.309 58.9796 110.99 58.9311 110.646 58.9311C110.024 58.9311 109.484 59.0843 109.023 59.3917C108.562 59.6992 108.205 60.1455 107.951 60.7296C107.697 61.3147 107.57 62.0244 107.57 62.8575C107.57 63.6907 107.698 64.4345 107.954 65.0175C108.21 65.6004 108.568 66.0412 109.029 66.3388C109.49 66.6363 110.023 66.7851 110.628 66.7851C110.968 66.7851 111.284 66.7399 111.574 66.6495C111.864 66.5592 112.124 66.4269 112.351 66.2528C112.577 66.0787 112.765 65.866 112.916 65.6159C113.067 65.3657 113.171 65.0803 113.23 64.7585L115.796 64.7706C115.73 65.3227 115.565 65.8539 115.301 66.3641C115.037 66.8744 114.684 67.3306 114.24 67.7317C113.797 68.1328 113.269 68.4502 112.659 68.6827C112.047 68.9153 111.357 69.0321 110.587 69.0321C109.517 69.0321 108.561 68.7896 107.72 68.3048C106.878 67.8199 106.214 67.1168 105.728 66.1977C105.241 65.2786 104.998 64.1645 104.998 62.8575C104.998 61.5506 105.245 60.4309 105.736 59.5118C106.228 58.5928 106.897 57.8908 107.741 57.407C108.584 56.9232 109.534 56.6819 110.588 56.6819C111.284 56.6819 111.929 56.78 112.524 56.975C113.121 57.1712 113.649 57.4555 114.11 57.8291C114.57 58.2027 114.947 58.66 115.237 59.2C115.527 59.74 115.714 60.3582 115.797 61.0547L115.796 61.0569Z" fill="white"/>
<path d="M117.617 68.8699V56.8481H125.704V58.9442H120.155V61.8083H125.288V63.9043H120.155V66.775H125.728V68.871H117.619L117.617 68.8699Z" fill="white"/>
<path d="M127.724 56.8481H130.853L134.157 64.9259H134.298L137.602 56.8481H140.731V68.8699H138.27V61.0457H138.17L135.065 68.8115H133.389L130.284 61.0159H130.184V68.8699H127.723V56.8481H127.724Z" fill="white"/>
<path d="M142.818 68.8699V56.8481H150.905V58.9442H145.356V61.8083H150.489V63.9043H145.356V66.775H150.929V68.871H142.82L142.818 68.8699Z" fill="white"/>
<path d="M152.925 56.8483H155.456V64.4091H155.556L160.742 56.8483H162.963V68.8701H160.426V61.3037H160.338L155.123 68.8701H152.925V56.8483ZM159.113 53.702H160.853C160.849 54.4139 160.587 54.9881 160.065 55.4223C159.544 55.8565 158.84 56.0735 157.953 56.0735C157.067 56.0735 156.357 55.8565 155.838 55.4223C155.319 54.9881 155.059 54.415 155.059 53.702H156.787C156.783 53.972 156.87 54.2145 157.048 54.4294C157.226 54.6442 157.528 54.7522 157.953 54.7522C158.379 54.7522 158.664 54.6465 158.844 54.4349C159.024 54.2233 159.114 53.9786 159.114 53.7009L159.113 53.702Z" fill="white"/>
<path d="M165.055 68.8699V56.8481H167.592V61.8083H172.742V56.8481H175.273V68.8699H172.742V63.9043H167.592V68.8699H165.055Z" fill="white"/>
<path d="M179.035 61.2914H181.894C182.846 61.2914 183.668 61.4446 184.358 61.7521C185.047 62.0595 185.58 62.4926 185.955 63.0524C186.33 63.6123 186.515 64.2713 186.512 65.0305C186.515 65.7854 186.33 66.4521 185.955 67.0296C185.58 67.607 185.047 68.0578 184.358 68.3829C183.668 68.7079 182.847 68.8699 181.894 68.8699H177.411V56.8481H179.942V66.8268H181.894C182.35 66.8268 182.735 66.7442 183.048 66.5778C183.36 66.4114 183.598 66.1899 183.759 65.9144C183.921 65.6389 184 65.3358 183.997 65.0074C184 64.5302 183.822 64.1258 183.461 63.7952C183.099 63.4646 182.577 63.2993 181.894 63.2993H179.035V61.2914ZM190.022 56.8481V68.8699H187.491V56.8481H190.022Z" fill="white"/>
<path d="M192.113 68.8699V56.8481H200.199V58.9442H194.651V61.8083H199.783V63.9043H194.651V66.775H200.223V68.871H192.114L192.113 68.8699Z" fill="white"/>
<path d="M104.758 83.1267H112.761V84.5692H104.758V83.1267ZM104.758 83.1267H106.305V87.3772H104.758V83.1267ZM105.059 83.1267H105.316C105.559 83.1267 105.769 83.0176 105.944 82.7983C106.119 82.579 106.254 82.2616 106.347 81.8462C106.44 81.4307 106.487 80.9282 106.487 80.3397V73.3982H108.033V80.6406C108.033 81.8958 107.819 82.8402 107.389 83.4705C106.958 84.102 106.339 84.4172 105.531 84.4172H105.058V83.1256L105.059 83.1267ZM107.529 73.3982H111.257V74.8407H107.529V73.3982ZM110.956 73.3982H112.502V84.5692H110.956V73.3982ZM112.406 83.1267H113.952V87.3772H112.406V83.1267Z" fill="white"/>
<path d="M116.537 84.2949C116.032 84.004 115.645 83.5808 115.377 83.0254C115.108 82.47 114.974 81.8 114.974 81.0187V77.144C114.974 76.312 115.105 75.6012 115.366 75.0127C115.628 74.4243 116.005 73.9757 116.499 73.6672C116.993 73.3586 117.588 73.2043 118.282 73.2043C118.976 73.2043 119.594 73.3465 120.092 73.6297C120.59 73.9129 120.969 74.3273 121.231 74.8728C121.493 75.4183 121.623 76.0751 121.623 76.8421V79.6191H115.918V78.1766H120.075V76.885C120.075 76.1743 119.918 75.6244 119.602 75.2331C119.286 74.8419 118.846 74.6469 118.281 74.6469C117.715 74.6469 117.289 74.8529 116.981 75.2662C116.673 75.6784 116.519 76.2657 116.519 77.0261V81.0617C116.519 81.7647 116.679 82.3113 117.001 82.7025C117.324 83.0938 117.778 83.2888 118.365 83.2888C118.917 83.2888 119.344 83.1345 119.649 82.826C119.954 82.5174 120.106 82.0799 120.106 81.5135V81.4485H121.652V81.5135C121.652 82.5394 121.366 83.3318 120.793 83.8916C120.22 84.4514 119.41 84.7313 118.365 84.7313C117.649 84.7313 117.039 84.5859 116.534 84.2949H116.537Z" fill="white"/>
<path d="M122.516 83.2237C122.824 83.2237 123.06 83.1212 123.225 82.9173C123.39 82.7124 123.473 82.4236 123.473 82.0512V73.3982H125.019V82.1371C125.019 82.6683 124.93 83.1234 124.751 83.5036C124.572 83.8838 124.311 84.1725 123.967 84.3698C123.623 84.567 123.211 84.6662 122.731 84.6662H122.517V83.2237H122.516ZM124.836 73.3982H128.564V74.8407H124.836V73.3982ZM128.048 73.3982H129.594V84.5692H128.048V73.3982Z" fill="white"/>
<path d="M132.527 83.95C132.04 83.4299 131.796 82.6463 131.796 81.5983C131.796 80.3431 132.081 79.4042 132.65 78.7838C133.22 78.1634 134.08 77.8526 135.234 77.8526H137.222L137.372 78.9723H135.245C134.564 78.9723 134.056 79.1916 133.719 79.629C133.383 80.0665 133.214 80.7233 133.214 81.5983C133.214 82.265 133.368 82.7643 133.676 83.0938C133.984 83.4244 134.446 83.5886 135.062 83.5886C135.75 83.5886 136.266 83.4078 136.609 83.0453C136.952 82.6827 137.125 82.1361 137.125 81.4044L137.35 82.3301C137.343 82.8612 137.241 83.3053 137.045 83.6646C136.848 84.0239 136.556 84.2905 136.169 84.4669C135.782 84.6432 135.299 84.7302 134.719 84.7302C133.746 84.7302 133.014 84.4702 132.528 83.95H132.527ZM137.125 76.3902C137.125 75.7874 136.959 75.3213 136.625 74.9907C136.292 74.6612 135.821 74.4959 135.213 74.4959C134.676 74.4959 134.258 74.6612 133.961 74.9907C133.664 75.3213 133.516 75.7874 133.516 76.3902H132.023C132.023 75.3786 132.306 74.5951 132.871 74.0386C133.437 73.4832 134.235 73.2043 135.267 73.2043C135.961 73.2043 136.556 73.33 137.05 73.5812C137.544 73.8325 137.92 74.1951 138.178 74.6678C138.435 75.1406 138.565 75.7158 138.565 76.3891V84.5682H137.125V76.3891V76.3902Z" fill="white"/>
<path d="M90.7577 84.069V84.048C90.7478 83.9841 90.7401 83.9202 90.7324 83.8563L90.7291 83.8342C90.7115 83.6855 90.6906 83.518 90.662 83.3549C90.4387 82.0776 89.8513 80.9613 88.9174 80.0378C88.3586 79.4857 87.7107 79.0537 86.9902 78.7529C87.0089 78.7364 87.0265 78.7198 87.0452 78.7033C88.1397 77.6652 88.5016 76.4288 88.1199 75.0292C87.7547 73.6892 86.8615 72.8219 85.4656 72.4505C85.3292 72.4141 85.1939 72.3943 85.0619 72.3756C85.0047 72.3668 84.9475 72.359 84.8903 72.3491L84.3832 72.3469L84.3568 72.3491C84.2996 72.359 84.2424 72.3668 84.1852 72.3756C84.0543 72.3943 83.9179 72.4141 83.7815 72.4505C82.3999 72.8175 81.5056 73.6848 81.125 75.0259C80.7334 76.4045 81.1668 77.8162 82.258 78.7529C81.1844 79.2091 80.2989 79.9188 79.6235 80.8654C78.8843 81.9013 78.5026 83.0959 78.4883 84.415L78.4861 84.6321H79.8347L79.8391 84.4216C79.8644 83.1301 80.3132 82.0192 81.1745 81.1189C82.0556 80.1987 83.1413 79.7017 84.4008 79.6411C85.6152 79.5827 86.7031 79.9431 87.6304 80.709C88.7755 81.6556 89.375 82.9064 89.4102 84.4282L89.4146 84.6376H90.7577V84.0679V84.069ZM86.9066 75.9957C86.9022 77.2542 85.8781 78.2779 84.623 78.279C84.0147 78.279 83.4416 78.0388 83.0082 77.6035C82.5759 77.1682 82.3383 76.5941 82.3405 75.9869C82.3449 74.7284 83.369 73.7046 84.6241 73.7035C85.2324 73.7035 85.8055 73.9437 86.2389 74.379C86.6712 74.8143 86.9088 75.3885 86.9066 75.9957Z" fill="white"/>
<path d="M101.742 73.4874C101.729 73.385 101.716 73.2836 101.704 73.1811C101.677 72.9607 101.649 72.7315 101.609 72.5078C101.297 70.7225 100.477 69.1643 99.1716 67.8738C98.3279 67.0407 97.3412 66.4037 96.2368 65.9817C96.3325 65.9056 96.4238 65.8318 96.5107 65.7491C98.0232 64.3154 98.5226 62.6095 97.9957 60.6777C97.4908 58.8296 96.2588 57.6329 94.3316 57.1204C94.1468 57.0708 93.9587 57.0444 93.775 57.0179C93.6925 57.0058 93.6089 56.9937 93.5275 56.9805L92.8444 56.9783L92.8202 56.9805C92.7377 56.9948 92.6552 57.0058 92.5727 57.0179C92.3901 57.0444 92.2009 57.0719 92.0172 57.1204C90.1087 57.6285 88.8745 58.8241 88.3487 60.6755C87.7833 62.6679 88.4587 64.6901 90.112 65.9795C88.5027 66.6109 87.1838 67.6369 86.1894 69.0298C85.4139 70.1153 84.92 71.3264 84.7143 72.6433C84.7077 72.5981 84.7011 72.5529 84.6934 72.5078C84.381 70.7236 83.5615 69.1643 82.2558 67.8738C81.4121 67.0407 80.4254 66.4037 79.321 65.9817C79.4167 65.9056 79.5069 65.8318 79.5949 65.7491C81.1074 64.3154 81.6068 62.6095 81.0799 60.6777C80.575 58.8296 79.343 57.6329 77.4158 57.1204C77.231 57.0708 77.0429 57.0444 76.8592 57.0179C76.7767 57.0058 76.6931 56.9937 76.6117 56.9805L75.9286 56.9783L75.9044 56.9805C75.8219 56.9948 75.7394 57.0058 75.6569 57.0179C75.4743 57.0444 75.2851 57.0719 75.1014 57.1204C73.1929 57.6285 71.9587 58.8241 71.4329 60.6755C70.8675 62.6679 71.5429 64.6901 73.1962 65.9795C71.5869 66.6109 70.268 67.6369 69.2736 69.0298C68.2407 70.4768 67.7072 72.1463 67.6874 73.99V74.1398H69.2923L69.2956 73.9944C69.3319 72.1165 69.9853 70.4999 71.2393 69.1907C72.5219 67.8518 74.1015 67.1278 75.9341 67.0407C77.704 66.9569 79.2858 67.4793 80.6355 68.5956C82.2239 69.9081 83.0885 71.6251 83.2095 73.7001C83.622 73.4169 84.1214 73.2505 84.6593 73.2505C85.2478 73.2505 85.789 73.4489 86.2213 73.7828C86.3016 71.9942 86.9506 70.4503 88.1562 69.1907C89.4388 67.8518 91.0184 67.1278 92.851 67.0407C94.6209 66.9558 96.2027 67.4793 97.5524 68.5956C99.2178 69.972 100.089 71.7915 100.141 74.0043L100.144 74.1486H101.744V73.4863L101.742 73.4874ZM76.2553 65.4152H76.2542C75.3478 65.4152 74.492 65.0571 73.8463 64.408C73.2006 63.7589 72.8475 62.9038 72.8508 61.9968C72.8574 60.1201 74.3842 58.5938 76.2542 58.5927H76.2553C77.1617 58.5927 78.0175 58.9509 78.6632 59.5999C79.3089 60.2479 79.662 61.1042 79.6587 62.0111C79.6521 63.8879 78.1253 65.4141 76.2553 65.4152ZM93.1733 65.4152H93.1722C92.2658 65.4152 91.41 65.0571 90.7643 64.408C90.1186 63.7589 89.7655 62.9038 89.7688 61.9968C89.7754 60.1201 91.3022 58.5938 93.1722 58.5927H93.1733C94.0797 58.5927 94.9355 58.9509 95.5812 59.5999C96.2269 60.2479 96.58 61.1042 96.5767 62.0111C96.5701 63.8879 95.0433 65.4141 93.1733 65.4152Z" fill="white"/>
</svg>
