<svg width="264" height="89" viewBox="0 0 264 89" fill="none" xmlns="http://www.w3.org/2000/svg">
<path d="M90.5399 68.6515H87.8207L91.9633 56.5916H95.2325L99.3696 68.6515H96.6504L93.6441 59.3476H93.5506L90.5388 68.6515H90.5399ZM90.3705 63.9111H96.7923V65.901H90.3705V63.9111Z" fill="white"/>
<path d="M100.811 68.6515V56.5916H105.545C106.455 56.5916 107.23 56.7651 107.872 57.1122C108.512 57.4594 109.001 57.9403 109.339 58.5549C109.677 59.1696 109.846 59.8771 109.846 60.6775C109.846 61.4779 109.674 62.1854 109.33 62.7978C108.987 63.4103 108.49 63.8867 107.838 64.2283C107.188 64.5699 106.402 64.7402 105.48 64.7402H102.463V62.6972H105.07C105.558 62.6972 105.961 62.6121 106.28 62.4408C106.598 62.2705 106.836 62.0328 106.995 61.7277C107.153 61.4237 107.232 61.0732 107.232 60.6764C107.232 60.2795 107.153 59.9257 106.995 59.625C106.836 59.3243 106.598 59.0911 106.277 58.9242C105.956 58.7572 105.549 58.6743 105.058 58.6743H103.347V68.6492H100.811V68.6515Z" fill="white"/>
<path d="M111.498 68.6515V56.5916H119.461V58.6942H114.035V61.05H115.986C116.936 61.05 117.755 61.2037 118.445 61.5121C119.134 61.8206 119.667 62.255 120.041 62.8166C120.416 63.3782 120.603 64.0393 120.603 64.801C120.603 65.5627 120.415 66.2271 120.041 66.8064C119.666 67.3857 119.133 67.8378 118.445 68.1639C117.755 68.49 116.936 68.6526 115.986 68.6526H111.498V68.6515ZM114.035 66.6019H115.986C116.439 66.6019 116.822 66.5189 117.135 66.352C117.447 66.1851 117.685 65.9629 117.846 65.6865C118.008 65.4101 118.089 65.1061 118.089 64.7767C118.089 64.298 117.909 63.8923 117.547 63.5606C117.185 63.229 116.665 63.0632 115.985 63.0632H114.034V66.6019H114.035Z" fill="white"/>
<path d="M122.244 56.5916H124.775V64.1764H124.875L130.061 56.5916H132.282V68.6515H129.745V61.0611H129.657L124.442 68.6515H122.244V56.5916Z" fill="white"/>
<path d="M133.916 58.693V56.5903H143.771V58.693H140.097V68.6502H137.589V58.693H133.915H133.916Z" fill="white"/>
<path d="M145.4 68.6515V56.5916H150.135C151.044 56.5916 151.82 56.7651 152.461 57.1122C153.101 57.4594 153.591 57.9403 153.928 58.5549C154.266 59.1696 154.436 59.8771 154.436 60.6775C154.436 61.4779 154.264 62.1854 153.92 62.7978C153.577 63.4103 153.079 63.8867 152.428 64.2283C151.778 64.5699 150.992 64.7402 150.07 64.7402H147.052V62.6972H149.659C150.148 62.6972 150.55 62.6121 150.869 62.4408C151.187 62.2705 151.426 62.0328 151.584 61.7277C151.743 61.4237 151.822 61.0732 151.822 60.6764C151.822 60.2795 151.743 59.9257 151.584 59.625C151.426 59.3243 151.187 59.0911 150.866 58.9242C150.546 58.7572 150.139 58.6743 149.647 58.6743H147.937V68.6492H145.4V68.6515Z" fill="white"/>
<path d="M156.768 68.6515H154.048L158.191 56.5916H161.46L165.597 68.6515H162.878L159.872 59.3476H159.778L156.767 68.6515H156.768ZM156.598 63.9111H163.02V65.901H156.598V63.9111Z" fill="white"/>
<path d="M166.471 68.6515L170.233 62.2915L166.629 56.5916H169.752L172.447 61.5552H177.516L180.14 56.5916H183.251L179.736 62.2738L183.427 68.6515H180.398L177.861 63.9111H172.077L169.476 68.6515H166.47H166.471ZM176.179 56.5916V68.6515H173.719V56.5916H176.179Z" fill="white"/>
<path d="M184.945 68.6515V56.5916H187.482V61.5674H192.632V56.5916H195.163V68.6515H192.632V63.6701H187.482V68.6515H184.945Z" fill="white"/>
<path d="M198.926 61.0489H201.785C202.738 61.0489 203.559 61.2026 204.249 61.511C204.939 61.8195 205.471 62.2539 205.846 62.8155C206.221 63.3771 206.406 64.0382 206.403 64.7999C206.406 65.5572 206.221 66.226 205.846 66.8053C205.471 67.3845 204.939 67.8367 204.249 68.1628C203.559 68.4889 202.739 68.6515 201.785 68.6515H197.303V56.5916H199.834V66.6019H201.785C202.242 66.6019 202.627 66.5189 202.939 66.352C203.251 66.1851 203.489 65.9629 203.651 65.6865C203.812 65.4101 203.892 65.1061 203.888 64.7767C203.892 64.298 203.713 63.8923 203.353 63.5606C202.991 63.229 202.468 63.0632 201.785 63.0632H198.926V61.0489ZM209.913 56.5916V68.6515H207.382V56.5916H209.913Z" fill="white"/>
<path d="M212.004 68.6515V56.5916H220.09V58.6942H214.542V61.5674H219.674V63.6701H214.542V66.5499H220.114V68.6526H212.005L212.004 68.6515Z" fill="white"/>
<path d="M87.8691 82.3738H96.0443V84.0685H87.8691V82.3738ZM87.8691 82.3738H89.6632V86.8864H87.8691V82.3738ZM88.1804 82.3738H88.4378C88.6809 82.3738 88.891 82.2754 89.0659 82.0764C89.2408 81.8785 89.3761 81.5889 89.4685 81.2075C89.562 80.8261 89.6082 80.3651 89.6082 79.8256V72.8621H91.3913V80.1274C91.3913 81.3081 91.1548 82.1936 90.6818 82.7828C90.2088 83.3732 89.5323 83.6683 88.6512 83.6683H88.1782V82.3727L88.1804 82.3738ZM90.8127 72.8621H94.5296V74.5568H90.8127V72.8621ZM93.874 72.8621H95.6791V84.0685H93.874V72.8621ZM95.4426 82.3738H97.2367V86.8864H95.4426V82.3738Z" fill="white"/>
<path d="M99.7337 83.7933C99.2288 83.5015 98.8416 83.077 98.5732 82.5198C98.3048 81.9626 98.1706 81.2905 98.1706 80.5067V76.6098C98.1706 75.7818 98.3015 75.0732 98.5622 74.4828C98.824 73.8925 99.2013 73.4426 99.6952 73.133C100.189 72.8235 100.784 72.6687 101.478 72.6687C102.172 72.6687 102.791 72.8113 103.289 73.0954C103.786 73.3795 104.166 73.7941 104.427 74.3369C104.689 74.8808 104.819 75.5408 104.819 76.318V79.179H99.3619V77.6136H103.068V76.3611C103.068 75.7132 102.93 75.2114 102.654 74.8554C102.378 74.4994 101.987 74.3214 101.478 74.3214C100.97 74.3214 100.601 74.5105 100.329 74.8885C100.057 75.2666 99.9207 75.8006 99.9207 76.4915V80.562C99.9207 81.1877 100.064 81.6763 100.351 82.0245C100.637 82.3739 101.042 82.5486 101.565 82.5486C102.052 82.5486 102.432 82.4137 102.704 82.1439C102.975 81.8742 103.109 81.495 103.101 81.0053V80.9301L104.852 80.9412V81.0064C104.852 82.0356 104.566 82.8305 103.993 83.3921C103.42 83.9536 102.61 84.2344 101.565 84.2344C100.849 84.2344 100.239 84.0885 99.7337 83.7967V83.7933Z" fill="white"/>
<path d="M105.712 82.5031C106.027 82.5031 106.266 82.4025 106.426 82.2013C106.587 82.0001 106.668 81.7083 106.668 81.3269V72.8632H108.462V81.4673C108.462 82.0576 108.368 82.5518 108.177 82.952C107.987 83.351 107.701 83.654 107.318 83.8585C106.935 84.0641 106.471 84.1658 105.927 84.1658H105.712V82.5031ZM108.032 72.8621H111.76V74.5568H108.032V72.8621ZM110.997 72.8621H112.791V84.0685H110.997V72.8621Z" fill="white"/>
<path d="M115.702 83.4473C115.229 82.9255 114.993 82.1395 114.993 81.0882C114.993 79.829 115.279 78.8872 115.852 78.2648C116.425 77.6424 117.284 77.3306 118.43 77.3306H120.149L120.299 78.8098H118.441C117.854 78.8098 117.414 78.9988 117.12 79.3769C116.827 79.755 116.68 80.3254 116.68 81.0882C116.68 81.6498 116.811 82.0655 117.072 82.3352C117.334 82.6049 117.729 82.7398 118.259 82.7398C118.86 82.7398 119.309 82.5784 119.607 82.2545C119.904 81.9306 120.053 81.4409 120.053 80.7864L120.278 81.7692C120.271 82.3164 120.176 82.773 119.994 83.14C119.811 83.507 119.54 83.7812 119.183 83.9603C118.824 84.1405 118.373 84.23 117.83 84.23C116.885 84.23 116.175 83.9691 115.702 83.4473ZM120.053 75.8636C120.053 75.3385 119.91 74.9317 119.623 74.6431C119.337 74.3557 118.932 74.2109 118.408 74.2109C117.95 74.2109 117.592 74.3546 117.334 74.6431C117.076 74.9306 116.951 75.3418 116.958 75.8736L115.217 75.8625C115.217 74.8477 115.5 74.0616 116.065 73.5034C116.631 72.9462 117.429 72.6665 118.461 72.6665C119.155 72.6665 119.75 72.7925 120.244 73.0446C120.738 73.2966 121.114 73.6603 121.372 74.1346C121.629 74.6089 121.759 75.1859 121.759 75.8614V84.0664H120.051V75.8614L120.053 75.8636Z" fill="white"/>
<path d="M74.9177 68.6549H75.8362C76.1739 68.6549 76.505 68.656 76.8361 68.6549C77.2486 68.6527 77.4972 68.446 77.5005 68.1022C77.5027 67.9419 77.4543 67.8103 77.3586 67.713C77.2431 67.5958 77.0561 67.5306 76.835 67.5306C70.9049 67.5295 64.9748 67.5295 59.0447 67.5306C58.6355 67.5306 58.388 67.7373 58.3858 68.0834C58.3847 68.2437 58.4309 68.3741 58.5255 68.4703C58.641 68.5886 58.8291 68.6538 59.0546 68.6549C59.3868 68.656 59.7179 68.656 60.0523 68.6549H60.9466L61.0192 69.0916C61.0269 69.1413 61.0357 69.1878 61.0445 69.2408C61.0621 69.3403 61.0786 69.4354 61.0918 69.5349C61.1919 70.2756 61.292 71.0163 61.3921 71.7569L61.3943 71.7768C61.5846 73.1886 61.7815 74.6478 61.9784 76.0828C62.0279 76.4476 62.2809 76.6477 62.6384 76.6057C62.8056 76.5858 62.9112 76.4907 62.9706 76.4133C63.0707 76.284 63.1136 76.1137 63.0905 75.9357C63.0201 75.3951 62.9431 74.8446 62.8694 74.3118C62.8221 73.9702 62.7737 73.6286 62.7275 73.287C62.6032 72.3683 62.4789 71.4485 62.3546 70.5221L62.106 68.677H73.7715L73.6516 69.6056C73.6208 69.8433 73.5922 70.0722 73.5603 70.3021C73.4789 70.898 73.3975 71.4938 73.315 72.0941L73.3128 72.1096C73.1401 73.3654 72.9619 74.6644 72.7925 75.9413C72.7496 76.263 72.9476 76.5603 73.2336 76.6035C73.271 76.609 73.3073 76.6123 73.3425 76.6123C73.4712 76.6123 73.5878 76.5758 73.6824 76.504C73.8012 76.4144 73.8771 76.2773 73.9013 76.1082C74.0344 75.1763 74.162 74.2255 74.2852 73.3069V73.298C74.3402 72.8934 74.3952 72.4877 74.4502 72.0831C74.5415 71.4065 74.6339 70.7299 74.7274 70.0456L74.9166 68.656L74.9177 68.6549Z" fill="white"/>
<path d="M61.4229 83.5181C61.4075 83.3877 61.391 83.2517 61.3668 83.119C61.182 82.0611 60.698 81.138 59.9269 80.373C59.4286 79.8788 58.8456 79.5018 58.1933 79.252C58.2494 79.2067 58.3033 79.1636 58.355 79.1138C59.2482 78.2648 59.543 77.2533 59.2317 76.1091C58.9336 75.0135 58.2054 74.3049 57.0669 74.0009C56.958 73.9721 56.8469 73.9556 56.738 73.9401C56.6896 73.9334 56.6401 73.9257 56.5917 73.918H56.188H56.1737C56.1253 73.9257 56.0758 73.9334 56.0274 73.9401C55.9196 73.9556 55.8074 73.9721 55.6985 74.0009C54.571 74.3016 53.8428 75.0102 53.5315 76.1069C53.1971 77.2875 53.5964 78.4859 54.5732 79.2498C53.6228 79.6246 52.844 80.2315 52.2566 81.0573C51.6461 81.9152 51.3315 82.9035 51.3205 83.9957V84.0841H52.2687L52.2709 83.9979C52.2929 82.8847 52.679 81.9273 53.4182 81.1524C54.175 80.3586 55.1089 79.9308 56.1913 79.8788C57.2363 79.8291 58.1702 80.1386 58.9677 80.7997C59.9511 81.6156 60.4659 82.6934 60.4967 84.0046L60.4989 84.0908H61.4449V83.6983C61.4361 83.6375 61.4284 83.5778 61.4218 83.517L61.4229 83.5181ZM58.3957 76.8995C58.3913 78.0116 57.4904 78.9159 56.3849 78.9159C55.8492 78.9159 55.3443 78.7037 54.9626 78.319C54.582 77.9343 54.373 77.4279 54.3741 76.8907C54.3785 75.7785 55.2794 74.8742 56.3849 74.8742C56.9206 74.8742 57.4255 75.0865 57.8072 75.4712C58.1878 75.8559 58.3968 76.3622 58.3957 76.8995Z" fill="white"/>
<path d="M73.0048 83.5181C72.9894 83.3877 72.9729 83.2517 72.9487 83.119C72.7639 82.0611 72.2799 81.138 71.5088 80.373C71.0105 79.8788 70.4275 79.5018 69.7752 79.252C69.8313 79.2067 69.8852 79.1636 69.9369 79.1138C70.8301 78.2648 71.1249 77.2533 70.8136 76.1091C70.5155 75.0135 69.7873 74.3049 68.6488 74.0009C68.5399 73.9721 68.4288 73.9556 68.3199 73.9401C68.2715 73.9334 68.222 73.9257 68.1736 73.918H67.7699H67.7556C67.7072 73.9257 67.6577 73.9334 67.6093 73.9401C67.5015 73.9556 67.3893 73.9721 67.2804 74.0009C66.1529 74.3016 65.4247 75.0102 65.1134 76.1069C64.779 77.2875 65.1783 78.4859 66.1551 79.2498C65.2047 79.6246 64.4259 80.2315 63.8385 81.0573C63.228 81.9152 62.9134 82.9035 62.9024 83.9957V84.0841H63.8506L63.8528 83.9979C63.8748 82.8847 64.2609 81.9273 65.0001 81.1524C65.7569 80.3586 66.6908 79.9308 67.7732 79.8788C68.8182 79.8291 69.7521 80.1386 70.5496 80.7997C71.533 81.6156 72.0478 82.6934 72.0786 84.0046L72.0808 84.0908H73.0268V83.6983C73.018 83.6375 73.0103 83.5778 73.0037 83.517L73.0048 83.5181ZM69.9776 76.8995C69.9732 78.0116 69.0723 78.9159 67.9668 78.9159C67.4311 78.9159 66.9262 78.7037 66.5445 78.319C66.1639 77.9343 65.9549 77.4279 65.956 76.8907C65.9604 75.7785 66.8613 74.8742 67.9668 74.8742C68.5025 74.8742 69.0074 75.0865 69.3891 75.4712C69.7697 75.8559 69.9787 76.3622 69.9776 76.8995Z" fill="white"/>
<path d="M84.6318 83.6994C84.6241 83.6386 84.6164 83.5789 84.6087 83.5181C84.5933 83.3877 84.5768 83.2517 84.5526 83.119C84.3678 82.0611 83.8838 81.138 83.1127 80.373C82.6144 79.8788 82.0314 79.5018 81.3791 79.252C81.4352 79.2067 81.4891 79.1636 81.5408 79.1138C82.434 78.2648 82.7288 77.2533 82.4175 76.1091C82.1194 75.0135 81.3912 74.3049 80.2527 74.0009C80.1438 73.9721 80.0327 73.9556 79.9238 73.9401C79.8754 73.9334 79.8259 73.9257 79.7775 73.918H79.3738H79.3595C79.3111 73.9257 79.2616 73.9334 79.2132 73.9401C79.1054 73.9556 78.9932 73.9721 78.8843 74.0009C77.7568 74.3016 77.0286 75.0102 76.7173 76.1069C76.3829 77.2875 76.7822 78.4848 77.759 79.2498C76.8086 79.6246 76.0298 80.2315 75.4424 81.0573C74.8319 81.9152 74.5173 82.9035 74.5063 83.9957V84.0841H75.4545L75.4567 83.9979C75.4787 82.8847 75.8648 81.9273 76.604 81.1524C77.3608 80.3586 78.2947 79.9308 79.3771 79.8788C80.4221 79.8291 81.356 80.1386 82.1535 80.7997C83.1369 81.6156 83.6517 82.6934 83.6825 84.0046L83.6847 84.0908H84.6307V83.6983L84.6318 83.6994ZM81.5804 76.8995C81.576 78.0116 80.6751 78.9159 79.5696 78.9159C79.0339 78.9159 78.529 78.7037 78.1473 78.319C77.7667 77.9343 77.5577 77.4279 77.5588 76.8907C77.5632 75.7785 78.4641 74.8742 79.5696 74.8742C80.1053 74.8742 80.6102 75.0865 80.9919 75.4712C81.3725 75.8559 81.5815 76.3622 81.5804 76.8995Z" fill="white"/>
<path d="M63.8726 66.8042C63.8946 65.691 64.2807 64.7336 65.0199 63.9586C65.7767 63.1649 66.7106 62.7371 67.793 62.6851C68.838 62.6354 69.7719 62.9449 70.5694 63.606C71.5528 64.4218 72.0676 65.4997 72.0984 66.8108L72.1006 66.8971H73.0466V66.5046C73.0378 66.4438 73.0301 66.3841 73.0235 66.3233C73.0081 66.1929 72.9916 66.0569 72.9674 65.9242C72.7826 64.8663 72.2986 63.9432 71.5275 63.1782C71.0292 62.684 70.4462 62.307 69.7939 62.0572C69.85 62.0119 69.9039 61.9687 69.9556 61.919C70.8488 61.07 71.1436 60.0584 70.8323 58.9142C70.5342 57.8187 69.806 57.1101 68.6675 56.8061C68.5586 56.7773 68.4475 56.7607 68.3386 56.7453C68.2902 56.7386 68.2407 56.7309 68.1923 56.7231H67.7886H67.7743C67.7259 56.7309 67.6764 56.7386 67.628 56.7453C67.5202 56.7607 67.408 56.7773 67.2991 56.8061C66.1716 57.1068 65.4434 57.8154 65.1321 58.912C64.7977 60.0927 65.197 61.29 66.1738 62.055C65.2234 62.4297 64.4446 63.0367 63.8572 63.8625C63.2467 64.7203 62.9321 65.7086 62.9211 66.8009V66.8893H63.8693L63.8715 66.8031L63.8726 66.8042ZM66.5621 61.1241C66.1815 60.7394 65.9725 60.2331 65.9736 59.6958C65.978 58.5837 66.8789 57.6794 67.9844 57.6794C68.5201 57.6794 69.025 57.8917 69.4067 58.2764C69.7884 58.6611 69.9963 59.1674 69.9952 59.7047C69.9908 60.8168 69.0899 61.7211 67.9844 61.7211C67.4487 61.7211 66.9438 61.5089 66.5621 61.1241Z" fill="white"/>
</svg>
