<svg width="264" height="89" viewBox="0 0 264 89" fill="none" xmlns="http://www.w3.org/2000/svg">
<path d="M104.342 72.3502V70.2839H104.993C105.317 70.2839 105.579 70.2442 105.778 70.1638C105.977 70.0834 106.137 69.9643 106.255 69.8057C106.374 69.647 106.475 69.4486 106.557 69.2095L106.703 68.816L102.344 60.1631H104.968L107.792 66.0798L110.154 60.1631H112.743L108.606 69.8255C108.407 70.2718 108.172 70.6862 107.9 71.0697C107.628 71.4532 107.282 71.7628 106.859 71.9975C106.438 72.2323 105.898 72.3502 105.242 72.3502H104.34H104.342Z" fill="white"/>
<path d="M122.084 60.1643V62.2603H116.658V72.1861H114.121V60.1643H122.084V60.1643Z" fill="white"/>
<path d="M134.207 66.1745C134.207 67.4859 133.96 68.6012 133.466 69.5202C132.972 70.4404 132.3 71.1413 131.451 71.6251C130.602 72.1089 129.647 72.3502 128.589 72.3502C127.53 72.3502 126.565 72.1078 125.718 71.6229C124.87 71.138 124.2 70.4349 123.708 69.5158C123.216 68.5968 122.97 67.4826 122.97 66.1756C122.97 64.8687 123.216 63.749 123.708 62.83C124.2 61.9109 124.87 61.2089 125.718 60.7251C126.566 60.2413 127.523 60 128.589 60C129.655 60 130.602 60.2413 131.451 60.7251C132.3 61.2089 132.972 61.9098 133.466 62.83C133.96 63.7501 134.207 64.8654 134.207 66.1756V66.1745ZM131.636 66.1745C131.636 65.3249 131.509 64.6097 131.257 64.0256C131.005 63.4427 130.651 63.0008 130.194 62.6988C129.736 62.398 129.201 62.247 128.589 62.247C127.976 62.247 127.44 62.398 126.983 62.6988C126.526 62.9997 126.171 63.4427 125.919 64.0256C125.667 64.6086 125.541 65.3249 125.541 66.1745C125.541 67.0242 125.667 67.7394 125.919 68.3235C126.171 68.9064 126.525 69.3483 126.983 69.6503C127.44 69.9511 127.975 70.1021 128.589 70.1021C129.202 70.1021 129.737 69.9511 130.194 69.6503C130.651 69.3494 131.005 68.9064 131.257 68.3235C131.509 67.7405 131.636 67.0242 131.636 66.1745Z" fill="white"/>
<path d="M135.432 72.186V70.1429L135.772 70.1131C136.209 70.0778 136.563 69.9103 136.832 69.6117C137.102 69.3119 137.304 68.8326 137.438 68.1736C137.573 67.5146 137.66 66.6264 137.699 65.5111L137.898 60.1631H146.042V72.1849H143.576V62.1996H140.254L140.067 66.385C140.004 67.7317 139.845 68.8304 139.59 69.6844C139.333 70.5374 138.928 71.1677 138.371 71.5744C137.814 71.981 137.053 72.1849 136.088 72.1849H135.432V72.186Z" fill="white"/>
<path d="M159.157 66.1745C159.157 67.4859 158.909 68.6012 158.415 69.5202C157.921 70.4404 157.249 71.1413 156.4 71.6251C155.551 72.1089 154.596 72.3502 153.538 72.3502C152.48 72.3502 151.514 72.1078 150.667 71.6229C149.819 71.138 149.149 70.4349 148.657 69.5158C148.165 68.5968 147.919 67.4826 147.919 66.1756C147.919 64.8687 148.165 63.749 148.657 62.83C149.149 61.9109 149.819 61.2089 150.667 60.7251C151.515 60.2413 152.472 60 153.538 60C154.604 60 155.551 60.2413 156.4 60.7251C157.249 61.2089 157.921 61.9098 158.415 62.83C158.909 63.7501 159.157 64.8654 159.157 66.1756V66.1745ZM156.585 66.1745C156.585 65.3249 156.458 64.6097 156.206 64.0256C155.954 63.4427 155.6 63.0008 155.143 62.6988C154.685 62.398 154.15 62.247 153.538 62.247C152.925 62.247 152.389 62.398 151.932 62.6988C151.475 62.9997 151.12 63.4427 150.868 64.0256C150.616 64.6086 150.49 65.3249 150.49 66.1745C150.49 67.0242 150.616 67.7394 150.868 68.3235C151.12 68.9064 151.474 69.3483 151.932 69.6503C152.389 69.9511 152.924 70.1021 153.538 70.1021C154.152 70.1021 154.686 69.9511 155.143 69.6503C155.6 69.3494 155.954 68.9064 156.206 68.3235C156.458 67.7405 156.585 67.0242 156.585 66.1745Z" fill="white"/>
<path d="M161.031 72.1861V60.1643H165.836C166.719 60.1643 167.455 60.2954 168.045 60.5577C168.634 60.82 169.077 61.1826 169.374 61.6465C169.671 62.1104 169.82 62.6438 169.82 63.2466C169.82 63.7161 169.726 64.1282 169.538 64.482C169.351 64.8357 169.094 65.1255 168.768 65.3504C168.443 65.5752 168.07 65.735 167.652 65.8286V65.9454C168.109 65.9653 168.537 66.0942 168.938 66.3333C169.338 66.5725 169.664 66.9053 169.913 67.334C170.163 67.7626 170.289 68.2718 170.289 68.8636C170.289 69.5016 170.131 70.0703 169.817 70.5684C169.502 71.0676 169.038 71.4621 168.425 71.7508C167.811 72.0406 167.056 72.185 166.158 72.185H161.031V72.1861ZM163.568 65.195H165.449C165.796 65.195 166.105 65.1333 166.377 65.0098C166.649 64.8864 166.863 64.7112 167.022 64.4842C167.18 64.2572 167.259 63.985 167.259 63.6687C167.259 63.2345 167.106 62.8841 166.799 62.6185C166.492 62.3529 166.058 62.2195 165.496 62.2195H163.568V65.1961V65.195ZM163.568 70.1077H165.636C166.343 70.1077 166.858 69.9722 167.182 69.7C167.507 69.4278 167.668 69.0652 167.668 68.6112C167.668 68.2784 167.588 67.9853 167.429 67.7307C167.268 67.4761 167.04 67.2767 166.745 67.1323C166.451 66.9879 166.1 66.9152 165.694 66.9152H163.566V70.1088L163.568 70.1077Z" fill="white"/>
<path d="M171.935 72.1861V60.1643H174.472V65.1244H179.622V60.1643H182.153V72.1861H179.622V67.2205H174.472V72.1861H171.935Z" fill="white"/>
<path d="M185.916 64.6076H188.775C189.728 64.6076 190.549 64.7608 191.239 65.0682C191.929 65.3757 192.461 65.8088 192.836 66.3686C193.211 66.9284 193.396 67.5874 193.393 68.3467C193.396 69.1016 193.211 69.7683 192.836 70.3458C192.461 70.9232 191.929 71.3739 191.239 71.699C190.549 72.0241 189.729 72.1861 188.775 72.1861H184.293V60.1643H186.824V70.143H188.775C189.232 70.143 189.617 70.0603 189.929 69.8939C190.241 69.7275 190.479 69.506 190.641 69.2305C190.802 68.955 190.882 68.652 190.878 68.3236C190.882 67.8464 190.703 67.442 190.343 67.1114C189.981 66.7808 189.458 66.6155 188.775 66.6155H185.916V64.6076V64.6076ZM196.903 60.1643V72.1861H194.372V60.1643H196.903Z" fill="white"/>
<path d="M198.994 72.1861V60.1643H207.08V62.2603H201.532V65.1244H206.664V67.2205H201.532V70.0912H207.104V72.1872H198.995L198.994 72.1861Z" fill="white"/>
<path d="M102.191 83.5774H110.193V85.0199H102.191V83.5774ZM102.191 83.5774H103.737V87.8278H102.191V83.5774ZM102.491 83.5774H102.749C102.992 83.5774 103.202 83.4683 103.377 83.249C103.552 83.0297 103.687 82.7123 103.779 82.2969C103.873 81.8814 103.919 81.3789 103.919 80.7904V73.8489H105.466V81.0913C105.466 82.3465 105.251 83.2909 104.821 83.9212C104.391 84.5527 103.772 84.8678 102.963 84.8678H102.49V83.5763L102.491 83.5774ZM104.962 73.8489H108.69V75.2914H104.962V73.8489ZM108.388 73.8489H109.935V85.0199H108.388V73.8489ZM109.838 83.5774H111.385V87.8278H109.838V83.5774V83.5774Z" fill="white"/>
<path d="M113.97 84.7456C113.465 84.4547 113.078 84.0315 112.809 83.4761C112.541 82.9207 112.407 82.2507 112.407 81.4694V77.5947C112.407 76.7627 112.537 76.0519 112.798 75.4634C113.06 74.875 113.437 74.4264 113.931 74.1179C114.425 73.8093 115.02 73.655 115.714 73.655C116.408 73.655 117.027 73.7972 117.525 74.0804C118.022 74.3636 118.402 74.778 118.663 75.3235C118.925 75.869 119.055 76.5258 119.055 77.2928V80.0698H113.35V78.6273H117.507V77.3357C117.507 76.6249 117.35 76.075 117.034 75.6838C116.719 75.2926 116.279 75.0976 115.713 75.0976C115.148 75.0976 114.721 75.3036 114.413 75.7169C114.105 76.129 113.951 76.7164 113.951 77.4768V81.5123C113.951 82.2154 114.112 82.762 114.434 83.1532C114.756 83.5444 115.21 83.7395 115.798 83.7395C116.349 83.7395 116.777 83.5852 117.082 83.2767C117.386 82.9681 117.538 82.5306 117.538 81.9642V81.8991H119.085V81.9642C119.085 82.9901 118.799 83.7825 118.226 84.3423C117.652 84.9021 116.843 85.182 115.798 85.182C115.082 85.182 114.471 85.0366 113.966 84.7456H113.97Z" fill="white"/>
<path d="M119.948 83.6744C120.256 83.6744 120.493 83.5719 120.658 83.368C120.823 83.163 120.905 82.8743 120.905 82.5018V73.8489H122.452V82.5878C122.452 83.119 122.363 83.5741 122.183 83.9543C122.004 84.3345 121.743 84.6232 121.399 84.8205C121.056 85.0177 120.643 85.1169 120.164 85.1169H119.949V83.6744H119.948ZM122.268 73.8489H125.996V75.2914H122.268V73.8489ZM125.48 73.8489H127.027V85.0199H125.48V73.8489Z" fill="white"/>
<path d="M129.959 84.4007C129.472 83.8806 129.229 83.097 129.229 82.049C129.229 80.7938 129.514 79.8549 130.082 79.2345C130.652 78.6141 131.512 78.3033 132.666 78.3033H134.654L134.805 79.4229H132.677C131.996 79.4229 131.488 79.6422 131.152 80.0797C130.815 80.5172 130.647 81.174 130.647 82.049C130.647 82.7157 130.801 83.2149 131.109 83.5444C131.417 83.875 131.879 84.0392 132.495 84.0392C133.182 84.0392 133.698 83.8585 134.041 83.496C134.385 83.1334 134.557 82.5868 134.557 81.8551L134.783 82.7808C134.775 83.3119 134.674 83.756 134.477 84.1153C134.28 84.4745 133.989 84.7412 133.601 84.9175C133.214 85.0939 132.731 85.1809 132.152 85.1809C131.178 85.1809 130.447 84.9209 129.96 84.4007H129.959ZM134.557 76.8409C134.557 76.2381 134.391 75.772 134.058 75.4414C133.725 75.1119 133.254 74.9466 132.645 74.9466C132.109 74.9466 131.691 75.1119 131.394 75.4414C131.097 75.772 130.948 76.2381 130.948 76.8409H129.455C129.455 75.8293 129.738 75.0458 130.304 74.4892C130.869 73.9338 131.668 73.655 132.699 73.655C133.393 73.655 133.989 73.7807 134.482 74.0319C134.976 74.2832 135.353 74.6457 135.61 75.1185C135.867 75.5913 135.997 76.1665 135.997 76.8398V85.0189H134.557V76.8398V76.8409Z" fill="white"/>
<path d="M98.5873 77.1538C98.3915 77.9682 98.2892 78.8201 97.9856 79.5915C96.6997 82.8523 94.3105 84.8811 90.8631 85.4233C88.4585 85.8024 86.2046 85.1225 84.2697 83.6182C81.5714 81.5211 80.3768 78.7176 80.6617 75.308C80.7882 73.796 81.3118 72.3998 82.1808 71.1523C82.3788 70.868 82.4118 70.6255 82.3183 70.2938C81.7881 68.416 81.2821 66.5305 80.7695 64.6472C80.7519 64.5843 80.7398 64.5204 80.7167 64.419C81.6946 64.1579 82.6538 63.9011 83.635 63.6388C80.6804 60.9973 75.4708 60.6458 71.942 63.6322C72.9353 63.8978 73.8901 64.1535 74.8878 64.4212C74.6546 65.2852 74.4291 66.1316 74.1981 66.9768C73.8846 68.1273 73.5579 69.2745 73.2631 70.4305C73.2169 70.6101 73.2499 70.8658 73.35 71.0179C75.7359 74.6302 75.5577 78.9633 72.7604 82.2638C70.6792 84.718 67.9347 85.8343 64.7634 85.4222C61.6812 85.0222 59.3844 83.2667 57.9951 80.4731C56.1009 76.6623 56.9677 72.3204 60.1126 69.4409C60.4701 69.1136 60.8562 68.794 61.2797 68.5648C63.7998 67.2016 65.6896 65.1827 67.2846 62.8465C67.3605 62.7352 67.4408 62.6272 67.5453 62.4817C68.345 62.6933 69.1524 62.8983 69.9543 63.1242C70.2249 63.2002 70.4141 63.1716 70.6374 62.9677C72.9551 60.8496 75.7018 59.946 78.806 60.2149C81.1391 60.4166 83.1906 61.3367 84.922 62.9324C85.1574 63.1495 85.362 63.2123 85.6722 63.1187C86.3443 62.9137 87.0307 62.7616 87.705 62.5633C87.9657 62.4861 88.1065 62.5368 88.2671 62.766C89.2813 64.2119 90.3307 65.6357 91.7057 66.7597C92.4053 67.3316 93.1676 67.8342 93.9387 68.3069C96.439 69.8398 97.968 72.0273 98.4707 74.93C98.5103 75.1548 98.5477 75.3807 98.5862 75.6066V77.1549L98.5873 77.1538ZM70.9234 76.4959C70.8904 74.6975 70.3481 73.4412 69.2536 72.4648C68.444 71.743 67.5189 71.16 66.3738 71.3176C65.6456 71.4179 64.9053 71.5953 64.2299 71.8796C60.8287 73.3167 60.0576 77.7302 62.7823 80.0764C64.3641 81.4384 66.1538 81.6269 68.0029 80.7739C69.9246 79.8868 70.8497 78.2823 70.9234 76.4948V76.4959ZM84.68 76.1565C84.6613 77.3566 85.0386 78.4222 85.7745 79.3612C87.166 81.1376 89.806 81.79 91.6947 80.829C93.8694 79.7226 94.9331 77.4007 94.2643 75.0997C93.6593 73.0191 92.1281 71.9413 90.1184 71.4708C89.5783 71.3441 88.9645 71.2294 88.4486 71.3606C86.165 71.9436 84.7603 73.7894 84.6811 76.1565H84.68ZM71.7594 70.7875C72.2489 68.9913 72.7384 67.1961 73.2334 65.38C71.6109 64.9502 70.0434 64.5425 68.4814 64.1138C68.1877 64.0333 68.0293 64.0884 67.8522 64.3419C66.3133 66.5382 64.4345 68.3631 62.0684 69.6602C61.6691 69.8795 61.2962 70.1715 60.9662 70.4878C58.6617 72.6929 57.818 75.3862 58.665 78.4597C59.4889 81.4506 61.5228 83.3063 64.5478 84.0282C65.2518 84.1968 65.6236 84.026 65.7424 83.5058C65.8557 83.011 65.5488 82.6826 64.8481 82.5471C62.2818 82.0545 60.3535 80.0852 59.8816 77.4756C59.4427 75.0479 60.5911 72.4494 62.7328 71.1402C64.9097 69.8101 67.2681 69.6404 69.7035 70.1903C70.3844 70.3434 71.0477 70.5782 71.7561 70.7875H71.7594ZM83.8484 70.8217C84.1916 70.6983 84.4798 70.5848 84.7735 70.4922C87.1528 69.7406 89.5189 69.6337 91.8718 70.6167C95.4699 72.1188 96.89 76.3395 94.888 79.673C93.9035 81.3117 92.4229 82.2528 90.5529 82.6C90.0117 82.7002 89.7543 83.0628 89.8555 83.5058C89.9611 83.972 90.312 84.1736 90.8532 84.0789C96.0771 83.1576 98.8854 77.1009 96.2344 72.4868C95.5359 71.2713 94.5976 70.3005 93.4074 69.5742C92.1809 68.826 90.9467 68.081 89.9743 67.0021C89.1779 66.1172 88.4343 65.1827 87.683 64.2582C87.5422 64.0851 87.4344 64.0212 87.2133 64.0962C86.8811 64.2086 86.5346 64.2758 86.1958 64.3661C84.9319 64.7001 83.6691 65.0362 82.3645 65.3822C82.8606 67.1994 83.3479 68.9858 83.8484 70.8228V70.8217ZM67.0492 84.0612C69.8333 83.5003 71.8639 81.985 72.9936 79.3865C74.0595 76.9367 73.8395 74.53 72.5151 72.2025C71.8023 72.5199 71.2732 72.0053 70.622 71.8807C72.2038 73.8148 72.723 75.9527 71.9123 78.2955C71.1027 80.6351 69.379 82.0027 67.0492 82.525V84.0612V84.0612ZM83.074 72.1992C81.6627 74.757 81.5208 77.3379 82.8595 79.9177C84.0552 82.2231 85.9978 83.5609 88.5498 84.0513V82.5184C86.1969 81.9917 84.4831 80.6141 83.679 78.2702C82.8782 75.935 83.4051 73.8015 84.9781 71.8741C84.3236 72.0196 83.8011 72.5001 83.074 72.197V72.1992Z" fill="white"/>
<path d="M69.203 65.4053C69.203 65.7392 68.9511 65.996 68.6167 66.0015C68.2845 66.007 68.0161 65.7535 68.004 65.424C67.9919 65.0868 68.2801 64.7948 68.6178 64.8014C68.9489 64.808 69.2019 65.0692 69.2019 65.4053H69.203Z" fill="white"/>
<path d="M72.3841 66.1932C72.3885 66.5227 72.1322 66.7938 71.8066 66.8038C71.4623 66.8148 71.1829 66.5382 71.1884 66.1921C71.1928 65.8726 71.4722 65.5938 71.7868 65.5938C72.1036 65.5938 72.3797 65.8704 72.3841 66.1921V66.1932Z" fill="white"/>
<path d="M69.5208 67.2015C69.8541 67.1993 70.1159 67.4528 70.1236 67.7856C70.1313 68.1217 69.8376 68.4182 69.5076 68.4071C69.1853 68.3972 68.9268 68.1217 68.9301 67.7922C68.9334 67.4572 69.1875 67.2026 69.5208 67.2004V67.2015Z" fill="white"/>
<path d="M87.595 65.4065C87.595 65.7338 87.3299 65.9983 86.9999 66.0027C86.6655 66.006 86.4048 65.7569 86.396 65.4241C86.3861 65.0726 86.6578 64.7938 87.0021 64.8004C87.3233 64.807 87.595 65.0858 87.5939 65.4065H87.595Z" fill="white"/>
<path d="M84.4094 66.2044C84.4083 66.5361 84.1487 66.7995 83.8209 66.8039C83.4755 66.8083 83.206 66.5295 83.217 66.1812C83.2269 65.8595 83.5096 65.5873 83.8242 65.5939C84.141 65.6016 84.4116 65.8826 84.4105 66.2044H84.4094Z" fill="white"/>
<path d="M86.6688 67.7967C86.6699 68.1251 86.4092 68.3994 86.088 68.4083C85.7569 68.4171 85.4654 68.1195 85.4753 67.7834C85.4852 67.4506 85.747 67.1994 86.0803 67.2027C86.4136 67.206 86.6666 67.4616 86.6677 67.7967H86.6688Z" fill="white"/>
</svg>
